<svg xmlns="http://www.w3.org/2000/svg" viewBox="0 0 970.82 665.37"><defs><style>.cls-1{fill:#a4b0bc;}.cls-2{fill:#c7d3dd;}.cls-3{fill:#022a44;}.cls-4{fill:#352f6c;}.cls-5{fill:#92a1ad;}.cls-6{fill:#708491;}.cls-7{fill:#ffd255;}.cls-8{fill:#7d95c9;}.cls-9{fill:#2070b4;}.cls-10{fill:#faa701;}.cls-11{fill:#fff;}.cls-12{fill:#e8e9eb;}.cls-13{fill:#e7a988;}.cls-14{fill:#d88568;}.cls-15{fill:#98a9d8;}.cls-16{fill:#22619c;}.cls-17{fill:#27b2e4;}.cls-18{fill:#292666;}</style></defs><g id="Calque_2" data-name="Calque 2"><g id="OBJECTS"><path class="cls-1" d="M822.14,581.4H197.74C120,590.31,72,602.53,72,616c0,27.26,196.06,49.36,437.92,49.36S947.85,643.27,947.85,616C947.85,602.53,899.87,590.31,822.14,581.4Z"/><path class="cls-2" d="M959.52,582.44c3.72-11.89,0-26.65-6.22-38.2-8.14-15.25-19.87-29.4-21.82-46.62-3.7-32.72,29.09-60.4,27.73-93.3-1.62-39.23-50.15-64.48-50.33-103.74-.16-36.78,43-65.14,37-101.41-5.39-32.49-44.56-44.3-68.3-66.81-23.32-22.12-27.54-60.3-52.17-81-19.49-16.41-41.14-28.32-67.17-29-17.12-.44-31.42,4.83-47.62,9C668.85,41.92,626.17,12.81,586.37,4.53a224,224,0,0,0-95.14,1.2c-22.29,5.18-43.8,13.13-65.9,19-22.47,5.95-40.64,6-63.29,1C309.13,14.16,227.81,47.51,190.57,79.39c-41.29,35.34-43.14,80.94-62.63,132.11C109.07,261,104.24,315.43,82.58,363.76,70.64,390.41,53.8,414.67,43,441.81a194.86,194.86,0,0,0-.65,140.63Z"/><path class="cls-3" d="M716.28,629.88a6.86,6.86,0,0,0,6.43-9.34c-5.23-12.89-20-21.74-34.06-26-24.73-7.43-51-7.31-76.79-8.47s-52.37-3.91-75-16.32a81.91,81.91,0,0,1-20.07-15.53V398.68H479.13V554.25a82.14,82.14,0,0,1-20.08,15.53c-22.66,12.41-49.24,15.16-75,16.32s-52.05,1-76.79,8.47c-14.05,4.23-28.83,13.08-34.06,26a6.86,6.86,0,0,0,6.43,9.34H289.8l-.54-.09c.42-4.19,3.73-7.63,7.54-9.4s8.09-4.65,12.28-5c20.57-1.83,357.14-1.83,377.72,0,4.18.37,8.46,3.25,12.27,5s7.12,5.21,7.54,9.4l-.54.09Z"/><path class="cls-4" d="M499.39,569h-.22a10.77,10.77,0,0,1-10.76-10.78V512.9a10.77,10.77,0,0,1,10.76-10.78h.22a10.77,10.77,0,0,1,10.75,10.78v45.31A10.77,10.77,0,0,1,499.39,569Z"/><path class="cls-3" d="M889.63,550.21a2679.17,2679.17,0,0,0-794.59,0,11.62,11.62,0,0,1-13.35-11.5V57.06A11.62,11.62,0,0,1,95,45.56a2678.83,2678.83,0,0,0,794.59,0A11.62,11.62,0,0,1,903,57.06V538.71A11.62,11.62,0,0,1,889.63,550.21Z"/><path class="cls-1" d="M881,547.22a2581.47,2581.47,0,0,0-791.14,0v-490a2581.47,2581.47,0,0,0,791.14,0Z"/><rect class="cls-5" x="664.29" y="78.64" width="186.99" height="110.41"/><path class="cls-2" d="M96.76,52.87v490Q128.22,538,159.7,534L282.32,74.76Q189.4,67.16,96.76,52.87Z"/><path class="cls-5" d="M229.86,405.91c-21.67,1.67-45-1.67-65-10-30.24-13.17-48-39.85-68.11-63.65V542.9a2581.47,2581.47,0,0,1,791.14,0V152.39c-190.17,81.36-379.47,155.23-573,230.14C286.52,394.22,259.86,404.24,229.86,405.91Z"/><rect class="cls-6" x="324.34" y="80.97" width="332.12" height="331.59"/><rect class="cls-5" x="95.88" y="150.04" width="221.83" height="182.32"/><rect class="cls-6" x="665.06" y="217.04" width="222.68" height="190.49"/><rect class="cls-4" x="676.4" y="201.16" width="294.41" height="194.83"/><path class="cls-7" d="M737.48,224.15a33.77,33.77,0,1,0,33.7,33.77A33.74,33.74,0,0,0,737.48,224.15Zm0,54.22a20.45,20.45,0,1,1,20.41-20.45A20.43,20.43,0,0,1,737.48,278.37Z"/><path class="cls-8" d="M737.48,278.37a20.43,20.43,0,0,1-20.39-19.83H703.8a33.69,33.69,0,0,0,67.37,0h-13.3A20.42,20.42,0,0,1,737.48,278.37Z"/><path class="cls-9" d="M753.92,228.44l-5.82,12a20.45,20.45,0,0,1,9.79,17.47c0,.21,0,.41,0,.62h13.3c0-.21,0-.41,0-.62A33.75,33.75,0,0,0,753.92,228.44Z"/><path class="cls-7" d="M817.25,224.15A33.77,33.77,0,1,0,851,257.92,33.74,33.74,0,0,0,817.25,224.15Zm0,54.22a20.45,20.45,0,1,1,20.41-20.45A20.43,20.43,0,0,1,817.25,278.37Z"/><path class="cls-7" d="M817.25,237.47a20.33,20.33,0,0,1,15.12,6.74l9.83-9a33.62,33.62,0,0,0-43.08-5.77l8.23,10.6A20.2,20.2,0,0,1,817.25,237.47Z"/><path class="cls-8" d="M850.92,256.68a33.7,33.7,0,0,0-8.72-21.45l-9.83,9a20.39,20.39,0,0,1,5.25,12.47Z"/><path class="cls-8" d="M807.35,240.06l-8.23-10.6a33.78,33.78,0,0,0-15.54,27.22c0,.41,0,.82,0,1.24a33.72,33.72,0,0,0,8.85,22.81l9.83-9a20.4,20.4,0,0,1-5.38-13.83c0-.42,0-.83,0-1.24A20.41,20.41,0,0,1,807.35,240.06Z"/><path class="cls-9" d="M851,257.92c0-.42,0-.83,0-1.24h-13.3c0,.41,0,.82,0,1.24a20.44,20.44,0,0,1-5.55,14l8.22,10.59A33.72,33.72,0,0,0,851,257.92Z"/><path class="cls-7" d="M897,224.15a33.77,33.77,0,1,0,33.7,33.77A33.74,33.74,0,0,0,897,224.15Zm0,54.22a20.45,20.45,0,1,1,20.4-20.45A20.43,20.43,0,0,1,897,278.37Z"/><path class="cls-8" d="M917.42,257.92a20.42,20.42,0,0,1-9.68,17.39L917,285.1a33.8,33.8,0,0,0,2.64-52.2l-9.59,9.29A20.41,20.41,0,0,1,917.42,257.92Z"/><rect class="cls-10" x="694.2" y="353.73" width="37.77" height="5.58"/><rect class="cls-1" x="694.2" y="366.05" width="19.47" height="2.27"/><rect class="cls-1" x="716.84" y="366.05" width="12.43" height="2.27"/><polygon class="cls-1" points="722.23 372.1 722.23 373.62 720.96 373.62 720.96 372.1 700.86 372.1 700.86 374.37 730.8 374.37 730.8 372.1 722.23 372.1"/><rect class="cls-1" x="694.2" y="372.1" width="5.08" height="2.27"/><rect class="cls-1" x="731.97" y="372.1" width="4.76" height="2.27"/><rect class="cls-1" x="694.2" y="378.16" width="39.37" height="2.27"/><rect class="cls-1" x="694.2" y="384.21" width="28.67" height="2.27"/><rect class="cls-1" x="724.77" y="384.21" width="11.96" height="2.27"/><rect class="cls-5" x="724.9" y="302.32" width="23.66" height="5.63"/><rect class="cls-7" x="724.85" y="312.52" width="23.76" height="1.56"/><rect class="cls-7" x="724.85" y="319.01" width="23.76" height="1.56"/><rect class="cls-5" x="805.42" y="302.32" width="23.66" height="5.63"/><rect class="cls-7" x="805.37" y="312.52" width="23.76" height="1.56"/><rect class="cls-7" x="805.37" y="319.01" width="23.76" height="1.56"/><rect class="cls-5" x="885.94" y="302.32" width="23.66" height="5.63"/><rect class="cls-7" x="885.89" y="312.52" width="23.76" height="1.56"/><rect class="cls-7" x="885.89" y="319.01" width="23.76" height="1.56"/><rect class="cls-11" x="330.81" y="32.49" width="320.48" height="359.6"/><rect class="cls-12" x="390.16" y="44.18" width="81.62" height="9.34"/><rect class="cls-12" x="590.61" y="44.18" width="35.79" height="9.34"/><rect class="cls-12" x="590.61" y="65.89" width="35.79" height="3.07"/><path class="cls-7" d="M380.37,236.82a23.77,23.77,0,1,0,23.73,23.77A23.74,23.74,0,0,0,380.37,236.82Zm0,38.16a14.39,14.39,0,1,1,14.37-14.39A14.37,14.37,0,0,1,380.37,275Z"/><path class="cls-7" d="M380.37,251.1a9.49,9.49,0,1,0,9.48,9.49A9.48,9.48,0,0,0,380.37,251.1Zm0,17.85a8.37,8.37,0,1,1,8.35-8.36A8.35,8.35,0,0,1,380.37,269Z"/><path class="cls-7" d="M433,236.82a23.77,23.77,0,1,0,23.72,23.77A23.74,23.74,0,0,0,433,236.82ZM433,275a14.39,14.39,0,1,1,14.36-14.39A14.38,14.38,0,0,1,433,275Z"/><path class="cls-7" d="M433,251.1a9.49,9.49,0,1,0,9.47,9.49A9.49,9.49,0,0,0,433,251.1ZM433,269a8.37,8.37,0,1,1,8.35-8.36A8.35,8.35,0,0,1,433,269Z"/><polygon class="cls-7" points="364.09 333.8 363.5 332.36 444.63 299.26 462.26 307.06 483.99 275.67 498.57 284.85 514.39 262.08 515.67 262.97 499 286.96 484.42 277.78 462.81 309 444.61 300.95 364.09 333.8"/><rect class="cls-8" x="388.34" y="316" width="14.23" height="57.05"/><rect class="cls-8" x="411.41" y="324.85" width="14.23" height="48.2"/><rect class="cls-8" x="434.48" y="314.52" width="14.23" height="58.53"/><rect class="cls-8" x="457.55" y="330.75" width="14.23" height="42.3"/><rect class="cls-8" x="480.61" y="290.91" width="14.23" height="82.13"/><rect class="cls-8" x="503.68" y="283.05" width="14.23" height="90"/><rect class="cls-12" x="393.78" y="82.84" width="18.54" height="141.31"/><rect class="cls-12" x="420.72" y="82.84" width="18.54" height="141.31"/><rect class="cls-12" x="447.65" y="82.84" width="18.54" height="141.31"/><rect class="cls-12" x="474.59" y="82.84" width="18.54" height="141.31"/><rect class="cls-12" x="501.53" y="82.84" width="18.54" height="141.31"/><rect class="cls-12" x="528.46" y="82.84" width="18.54" height="141.31"/><rect class="cls-12" x="555.4" y="82.84" width="18.54" height="141.31"/><rect class="cls-12" x="582.33" y="82.84" width="18.54" height="141.31"/><rect class="cls-12" x="609.27" y="82.84" width="18.54" height="141.31"/><rect class="cls-11" x="399.49" y="92.3" width="2.33" height="131"/><rect class="cls-11" x="426.65" y="92.3" width="2.33" height="131"/><rect class="cls-11" x="453.8" y="92.3" width="2.33" height="131"/><rect class="cls-11" x="480.96" y="92.3" width="2.33" height="131"/><rect class="cls-11" x="508.11" y="92.3" width="2.33" height="131"/><rect class="cls-11" x="535.26" y="92.3" width="2.33" height="131"/><rect class="cls-11" x="562.42" y="92.3" width="2.33" height="131"/><rect class="cls-11" x="589.57" y="92.3" width="2.33" height="131"/><rect class="cls-11" x="616.73" y="92.3" width="2.33" height="131"/><rect class="cls-10" x="396.39" y="157.99" width="8.53" height="65.31"/><rect class="cls-10" x="423.54" y="157.99" width="8.53" height="65.31"/><rect class="cls-10" x="450.7" y="179.18" width="8.53" height="44.12"/><rect class="cls-10" x="477.85" y="135.06" width="8.53" height="88.24"/><rect class="cls-7" x="477.85" y="135.06" width="8.53" height="18.44"/><rect class="cls-10" x="505.01" y="121.45" width="8.53" height="101.85"/><rect class="cls-10" x="532.16" y="157.99" width="8.53" height="65.31"/><rect class="cls-10" x="559.32" y="131.17" width="8.53" height="92.13"/><rect class="cls-7" x="559.32" y="131.17" width="8.53" height="6.27"/><rect class="cls-10" x="586.47" y="141.28" width="8.53" height="82.02"/><rect class="cls-10" x="613.62" y="157.99" width="8.53" height="65.31"/><rect class="cls-12" x="367.33" y="217.7" width="17.44" height="5.06"/><rect class="cls-12" x="367.33" y="196.8" width="17.44" height="5.06"/><rect class="cls-12" x="367.33" y="175.9" width="17.44" height="5.06"/><rect class="cls-12" x="367.33" y="155" width="17.44" height="5.06"/><rect class="cls-12" x="367.33" y="134.1" width="17.44" height="5.06"/><rect class="cls-12" x="367.33" y="113.2" width="17.44" height="5.06"/><rect class="cls-12" x="367.33" y="92.3" width="17.44" height="5.06"/><rect class="cls-1" x="393.78" y="76.16" width="18.54" height="1.99"/><rect class="cls-1" x="420.72" y="76.16" width="18.54" height="1.99"/><rect class="cls-1" x="447.65" y="76.16" width="18.54" height="1.99"/><rect class="cls-1" x="474.59" y="76.16" width="18.54" height="1.99"/><rect class="cls-1" x="501.53" y="76.16" width="18.54" height="1.99"/><rect class="cls-1" x="528.46" y="76.16" width="18.54" height="1.99"/><rect class="cls-1" x="555.4" y="76.16" width="18.54" height="1.99"/><rect class="cls-1" x="582.33" y="76.16" width="18.54" height="1.99"/><rect class="cls-1" x="609.27" y="76.16" width="18.54" height="1.99"/><rect class="cls-11" y="135.27" width="302.19" height="182.32"/><ellipse class="cls-10" cx="253.19" cy="199.54" rx="45.21" ry="45.3"/><path class="cls-7" d="M253,154.24a45,45,0,0,0-32.13,13.62L251,200.21l21.14-41.82A44.92,44.92,0,0,0,253,154.24Z"/><path class="cls-4" d="M292,176.37a45.45,45.45,0,0,0-19.94-18L251,200.21l.44.46Z"/><path class="cls-8" d="M220.89,167.86a45.37,45.37,0,0,0-6.49,54.94l36-21.55.53-1Z"/><polygon class="cls-10" points="250.96 200.21 250.43 201.25 251.4 200.68 250.96 200.21"/><path class="cls-4" d="M282.45,234.07l-31-33.4-1,.58-19.16,37.91a45.13,45.13,0,0,0,51.18-5.09Z"/><path class="cls-12" d="M214.4,222.8a45.42,45.42,0,0,0,16.87,16.36l19.16-37.91Z"/><path class="cls-8" d="M292,176.37l-40.64,24.3,31,33.4a45.36,45.36,0,0,0,9.59-57.7Z"/><ellipse class="cls-11" cx="253.19" cy="199.54" rx="31.56" ry="31.62"/><path class="cls-10" d="M253.19,227a27.41,27.41,0,1,1,27.35-27.41A27.41,27.41,0,0,1,253.19,227Zm0-53.26A25.85,25.85,0,1,0,279,199.54,25.85,25.85,0,0,0,253.19,173.69Z"/><rect class="cls-10" x="252.15" y="254.81" width="13.42" height="3.1"/><rect class="cls-1" x="252.15" y="263.07" width="19.89" height="3.1"/><rect class="cls-1" x="274.69" y="263.07" width="9.8" height="3.1"/><rect class="cls-1" x="285.27" y="263.07" width="6.27" height="3.1"/><rect class="cls-1" x="252.15" y="271.33" width="9.5" height="3.1"/><rect class="cls-1" x="264.2" y="271.33" width="24.4" height="3.1"/><rect class="cls-1" x="280.37" y="279.58" width="11.17" height="3.1"/><rect class="cls-1" x="252.15" y="279.58" width="27.14" height="3.1"/><rect class="cls-1" x="252.15" y="287.84" width="17.15" height="3.1"/><rect class="cls-1" x="271.94" y="287.84" width="7.35" height="3.1"/><rect class="cls-1" x="280.37" y="287.84" width="4.26" height="3.1"/><rect class="cls-10" x="34.8" y="280.92" width="34.4" height="2.11"/><rect class="cls-1" x="34.8" y="286.56" width="41.38" height="2.11"/><rect class="cls-1" x="50.62" y="292.19" width="25.56" height="2.11"/><rect class="cls-1" x="34.8" y="292.19" width="12.05" height="2.11"/><rect class="cls-1" x="34.8" y="297.83" width="41.38" height="2.11"/><rect class="cls-1" x="34.8" y="303.47" width="41.38" height="2.11"/><rect class="cls-3" x="34.03" y="164.95" width="1.55" height="101.37"/><rect class="cls-3" x="62.8" y="164.95" width="1.55" height="101.37"/><rect class="cls-3" x="91.57" y="164.95" width="1.55" height="101.37"/><rect class="cls-3" x="120.34" y="164.95" width="1.55" height="101.37"/><rect class="cls-3" x="149.11" y="164.95" width="1.55" height="101.37"/><rect class="cls-3" x="177.88" y="164.95" width="1.55" height="101.37"/><rect class="cls-1" x="30.12" y="205.22" width="9.36" height="61.09"/><rect class="cls-1" x="59.16" y="226.17" width="9.36" height="40.14"/><rect class="cls-1" x="87.7" y="208.56" width="9.36" height="57.75"/><rect class="cls-1" x="116.43" y="186.55" width="9.36" height="79.77"/><rect class="cls-1" x="145.2" y="220.23" width="9.36" height="46.08"/><rect class="cls-12" x="15.08" y="268.23" width="169.19" height="1.3"/><polygon class="cls-7" points="188.56 187.03 178.65 169.83 168.74 187.03 173.97 187.03 173.97 266.31 183.33 266.31 183.33 187.03 188.56 187.03"/><path class="cls-12" d="M27.16,261.35A1.18,1.18,0,0,1,26,262.53H16.26a1.18,1.18,0,0,1-1.18-1.18h0a1.18,1.18,0,0,1,1.18-1.19H26a1.18,1.18,0,0,1,1.18,1.19Z"/><path class="cls-12" d="M27.16,244.45A1.18,1.18,0,0,1,26,245.64H16.26a1.18,1.18,0,0,1-1.18-1.19h0a1.18,1.18,0,0,1,1.18-1.18H26a1.18,1.18,0,0,1,1.18,1.18Z"/><path class="cls-12" d="M27.16,227.56A1.18,1.18,0,0,1,26,228.75H16.26a1.18,1.18,0,0,1-1.18-1.19h0a1.18,1.18,0,0,1,1.18-1.18H26a1.18,1.18,0,0,1,1.18,1.18Z"/><path class="cls-12" d="M27.16,210.67A1.18,1.18,0,0,1,26,211.85H16.26a1.18,1.18,0,0,1-1.18-1.18h0a1.18,1.18,0,0,1,1.18-1.18H26a1.18,1.18,0,0,1,1.18,1.18Z"/><path class="cls-12" d="M27.16,193.78A1.18,1.18,0,0,1,26,195H16.26a1.18,1.18,0,0,1-1.18-1.18h0a1.18,1.18,0,0,1,1.18-1.18H26a1.18,1.18,0,0,1,1.18,1.18Z"/><path class="cls-12" d="M27.16,176.89A1.18,1.18,0,0,1,26,178.07H16.26a1.18,1.18,0,0,1-1.18-1.18h0a1.18,1.18,0,0,1,1.18-1.18H26a1.18,1.18,0,0,1,1.18,1.18Z"/><path class="cls-12" d="M27.16,160A1.18,1.18,0,0,1,26,161.18H16.26A1.18,1.18,0,0,1,15.08,160h0a1.18,1.18,0,0,1,1.18-1.19H26A1.18,1.18,0,0,1,27.16,160Z"/><rect class="cls-11" x="676.4" y="52.24" width="188.87" height="124.98"/><rect class="cls-8" x="694.66" y="110.25" width="16.22" height="45.77"/><rect class="cls-8" x="715.09" y="124.16" width="16.23" height="31.86"/><rect class="cls-8" x="735.53" y="92.3" width="16.22" height="63.72"/><rect class="cls-8" x="755.96" y="110.25" width="16.22" height="45.77"/><rect class="cls-8" x="776.39" y="92.3" width="16.22" height="63.72"/><rect class="cls-8" x="796.82" y="97.36" width="16.22" height="58.66"/><rect class="cls-8" x="817.25" y="84.68" width="16.23" height="71.34"/><rect class="cls-9" x="694.66" y="151.44" width="16.22" height="4.58"/><rect class="cls-9" x="715.09" y="137.7" width="16.22" height="18.32"/><rect class="cls-9" x="735.53" y="146.86" width="16.23" height="9.16"/><rect class="cls-9" x="755.96" y="137.7" width="16.23" height="18.32"/><rect class="cls-9" x="776.39" y="126.69" width="16.22" height="29.33"/><rect class="cls-9" x="796.82" y="137.7" width="16.22" height="18.32"/><rect class="cls-9" x="817.25" y="110.25" width="16.23" height="45.77"/><rect class="cls-10" x="827.77" y="57.86" width="25.63" height="3.78"/><rect class="cls-1" x="827.77" y="66.21" width="13.21" height="1.54"/><rect class="cls-1" x="843.13" y="66.21" width="8.43" height="1.54"/><polygon class="cls-1" points="846.79 70.32 846.79 71.35 845.93 71.35 845.93 70.32 832.29 70.32 832.29 71.86 852.61 71.86 852.61 70.32 846.79 70.32"/><rect class="cls-1" x="827.77" y="70.32" width="3.45" height="1.54"/><rect class="cls-1" x="853.4" y="70.32" width="3.23" height="1.54"/><rect class="cls-10" x="696.34" y="78.83" width="13.12" height="3.2" rx="1.58"/><rect class="cls-10" x="716.65" y="78.83" width="13.12" height="3.2" rx="1.58"/><rect class="cls-10" x="737.08" y="78.83" width="13.12" height="3.2" rx="1.58"/><rect class="cls-10" x="757.51" y="78.83" width="13.12" height="3.2" rx="1.58"/><rect class="cls-10" x="777.94" y="78.83" width="13.12" height="3.2" rx="1.58"/><rect class="cls-10" x="798.37" y="78.83" width="13.12" height="3.2" rx="1.58"/><rect class="cls-10" x="818.44" y="78.83" width="13.12" height="3.2" rx="1.58"/><path class="cls-10" d="M165.53,385.24c.61,1.66.18,3.62,1,5.17a4.63,4.63,0,0,0,3.87,2.11,12.07,12.07,0,0,0,4.49-.9,78.6,78.6,0,0,0,7.87-3.2,11.47,11.47,0,0,0,4.91-3.6c1.23-1.84,1.38-4.17,1.53-6.38a186.14,186.14,0,0,1,4.42-29.52,24.73,24.73,0,0,0,1-7.28c-.19-2.45-1.32-5-3.47-6.16a8.84,8.84,0,0,0-4.6-.83,9.93,9.93,0,0,0-6,1.83c-2.41,1.94-3.06,5.27-3.85,8.26a48.9,48.9,0,0,1-10.33,19.49c-1.95,2.24-4.13,4.33-5.5,7s-1.81,6-.17,8.48C162.1,381.73,164.69,382.91,165.53,385.24Z"/><path class="cls-3" d="M180.91,383.29a8.57,8.57,0,0,1-2.24,5.81c-1.6,1.57-3.9,2.14-6.08,2.65-1.83.43-3.84.85-5.54,0-1.88-.92-2.78-3.06-3.52-5a26.37,26.37,0,0,1-1.87-6.65,8.8,8.8,0,0,1,1.72-6.52,8,8,0,0,1,5-2.61,10.89,10.89,0,0,1,9.07,3.21A12.5,12.5,0,0,1,180.91,383.29Z"/><path class="cls-13" d="M172.06,391.83c-3.49,1.27-7.35-.09-10.58-2a34.5,34.5,0,0,1-10.15-9.39,13,13,0,0,0,7.23-9.24c2.85,1.6,6.14,1.93,9.28,2.64s6.43,2,8.31,4.78a9.23,9.23,0,0,1,1.06,7.72A8.65,8.65,0,0,1,172.06,391.83Z"/><path class="cls-14" d="M176.15,378.6c-1.88-2.81-5.16-4.08-8.31-4.78s-6.43-1-9.28-2.64a13.28,13.28,0,0,1-5.1,8c6.54,4.54,17.11,3.76,19.94,9.44a8.51,8.51,0,0,1,.85,2,8.93,8.93,0,0,0,3-4.27A9.23,9.23,0,0,0,176.15,378.6Z"/><rect class="cls-3" x="157.98" y="324.95" width="10.63" height="78.69" transform="translate(-85.77 52.3) rotate(-14.46)"/><path class="cls-13" d="M149.16,367.51a14.14,14.14,0,0,1,.37-2.91c.95-3.57,4.63-11.17,4.84-14.88,3.46,4.71,1.1,8.4,1.31,10.22a21.91,21.91,0,0,1,5.37.36c.58.14,1.24.43,1.35,1.06a1.24,1.24,0,0,1-.52,1.13,3.22,3.22,0,0,1-1.16.45,6,6,0,0,1,1.62,1.23,2.33,2.33,0,0,1,.55,2,1.24,1.24,0,0,1-1.52,1,3.34,3.34,0,0,1,1.21,1.68c.14.71-.4,1.59-1.05,1.43a1.93,1.93,0,0,1,.27,2.36,12.53,12.53,0,0,1-1.61,2,22,22,0,0,0-2.15,4.08c-.7,1.38-1.76,2.72-3.19,3s-2.93-.73-4.07-1.81a5.58,5.58,0,0,1-1.35-1.7,6.85,6.85,0,0,1-.44-2.82C149,372.68,149,370.09,149.16,367.51Z"/><path class="cls-14" d="M162.34,364.17a6,6,0,0,0-1.62-1.23,3.22,3.22,0,0,0,1.16-.45,1.24,1.24,0,0,0,.52-1.13c-.11-.63-.77-.92-1.35-1.06a18.9,18.9,0,0,0-4.45-.37c2.34,7.53,2.56,15-1.76,21.66h0c1.43-.25,2.49-1.59,3.19-3a22,22,0,0,1,2.15-4.08,12.53,12.53,0,0,0,1.61-2,1.93,1.93,0,0,0-.27-2.36c.65.16,1.19-.72,1.05-1.43a3.34,3.34,0,0,0-1.21-1.68,1.24,1.24,0,0,0,1.52-1A2.33,2.33,0,0,0,162.34,364.17Z"/><path class="cls-3" d="M162,367.76a13,13,0,0,0-5.84-1.59l0-.78a13.82,13.82,0,0,1,6.19,1.69Z"/><path class="cls-3" d="M162,370.6a17.56,17.56,0,0,0-6-1.3l0-.78a18.38,18.38,0,0,1,6.29,1.36Z"/><path class="cls-3" d="M160.65,375.21a2.79,2.79,0,0,1-1.67-2.06,1.16,1.16,0,0,0-.09-.36.61.61,0,0,0-.24-.05,9.37,9.37,0,0,0-2.25.11l-.14-.76a9.58,9.58,0,0,1,2.45-.12,1.13,1.13,0,0,1,.7.24,1.24,1.24,0,0,1,.32.73,2,2,0,0,0,1.21,1.55Z"/><path class="cls-13" d="M197.2,298.69c3.27-.38,7.25-2.52,10.42-3.46.88,4.21,2.91,14.94,5.7,20l1.08,1.59c-7.66,5.86-15.51,8.76-24.61,11.25C200.29,322.16,196.76,308.9,197.2,298.69Z"/><path class="cls-14" d="M206.06,295.76c-2.86,1.05-6.11,2.61-8.86,2.93-.44,10.21,3.09,23.47-7.41,29.36a103.51,103.51,0,0,0,10.72-3.5A64.85,64.85,0,0,0,206.06,295.76Z"/><path class="cls-3" d="M206.13,295.55c-3,1-6.49,2.8-9.43,3.14.21,4.37.8,9.31.67,14C204.46,311.23,205.58,303,206.13,295.55Z"/><path class="cls-4" d="M194.26,318.64a13.08,13.08,0,0,0-5,3.82c-2.05,2.9-1.8,6.8-2.88,10.19a40.19,40.19,0,0,1,15.2-9.36A95.58,95.58,0,0,1,219,319.12a3.77,3.77,0,0,0-1.9-3.79,9,9,0,0,0-4.34-1A38.47,38.47,0,0,0,194.26,318.64Z"/><path class="cls-13" d="M208.23,281.44a20,20,0,0,0-11.75-6.87l-3-.06c-1.85,2.13-2.93,2.27-4.39,4.75l-.44,1.94a5,5,0,0,1-2.45,3.34,21.57,21.57,0,0,0-4.59,2.86,2.17,2.17,0,0,0-1.1,1.68,2.26,2.26,0,0,0,.78,1.38c.83.84,1.68,1.66,2.54,2.46-.29,2.81.15,5.73.27,8.6.07,1.6.07,3.35,1,4.6a5.38,5.38,0,0,0,3.7,1.82,22,22,0,0,0,15.81-3.82,16.7,16.7,0,0,0,6.84-8.87A15.55,15.55,0,0,0,208.23,281.44Z"/><path class="cls-14" d="M208.23,281.44a20,20,0,0,0-11.75-6.87l-3-.06c-1.85,2.13-2.93,2.27-4.39,4.75l-.23,1c.53,8.55,9.46,17.58,11.73,26.06a22.88,22.88,0,0,0,4-2.22,16.7,16.7,0,0,0,6.84-8.87A15.55,15.55,0,0,0,208.23,281.44Z"/><path class="cls-11" d="M188.68,281.2a6.69,6.69,0,0,0,.21-1.21Z"/><path class="cls-3" d="M227.86,273.87c-1.14-2.16-2.39-4.27-3.73-6.31a4.16,4.16,0,0,0-2.52-2.14,4.22,4.22,0,0,0-3,1.19l-2.76,2.05a34.88,34.88,0,0,0-4.25-2.11,18.31,18.31,0,0,0-13.7.55l-4.13-1.32c-2.59,1.7-3.78,5.1-4.12,8.35a26.42,26.42,0,0,0,3.7,16.09c2.84,4.73,7.9,10.64,12.58,13.11,2.59,1.36,4.84.62,7.46-.36.24-.09.45-.22.68-.32a15.46,15.46,0,0,0,3.71-1.89,34.63,34.63,0,0,0,8.64-9.36c2.07-3,4-6.48,3.86-10.16A17.42,17.42,0,0,0,227.86,273.87Z"/><path class="cls-9" d="M194.22,278.4a12,12,0,0,0,1.67,5.86c.14-1.45.29-2.9.43-4.35a8.53,8.53,0,0,0,3.29,2c.21-.92.42-1.85.62-2.77a3.83,3.83,0,0,0,2.11,1.79l.81-1.77a1.38,1.38,0,0,0,1.48.76c.14-.53.29-1.06.43-1.58a1.37,1.37,0,0,0,1.69,1.1,1.39,1.39,0,0,0,.8-1.86l1.74,1.18a.74.74,0,0,0,0-1.05,13.55,13.55,0,0,0,6.84.11,12.39,12.39,0,0,1-4.45-6.06,2.44,2.44,0,0,1-3.83,2.29L206,276a2.74,2.74,0,0,0-2.38-.81,16.15,16.15,0,0,0-2.54.6,11,11,0,0,1-7.91-1.06,15,15,0,0,0,1.14,10.88A16.09,16.09,0,0,1,194.22,278.4Z"/><path class="cls-7" d="M216.46,268.89a38.24,38.24,0,0,0,1.72,8c-2.1-1.08-3.09-3.49-3.92-5.71a2.56,2.56,0,0,1-.2-1.79C214.6,268,215.7,270.2,216.46,268.89Z"/><path class="cls-13" d="M151.23,594.08c7.39-4.12,12.19-11.22,16.27-18.52,4.93-61.29,0-57.33,2.55-83.92h19.62c.81,16.68.4,31.81-3.28,47.61-2.84,12.24-5.34,21.64-8.12,36.3-.52,2.74-1.09,6.7-.39,9.45.51,2,.81,3.91-.16,5.46-2.31,3.64-4.59,2.76-8.72,4.29-4.83,1.77-3.84,5.44-13.61,5.72-1.86.06-3.84.11-5.5-1.06a3,3,0,0,1-1.3-1.81C148.23,595.85,149.93,594.8,151.23,594.08Z"/><path class="cls-14" d="M181.28,561c1.67-7.47,3.33-14,5.11-21.75,3.68-15.8,4.09-30.93,3.28-47.61H170.05c-2.39,24.52,1.65,23.06-1.58,70.78C175.05,566.19,178.73,563.73,181.28,561Z"/><path class="cls-3" d="M166.89,591.66a17.4,17.4,0,0,1-6.47,3.34,9.55,9.55,0,0,1-7-.82q-.45-.25-.87-.54l1.57-1.29a1.16,1.16,0,0,1,.62-.32,1.31,1.31,0,0,1,.67.25,6.29,6.29,0,0,0,3,.54C161.3,592.86,164.24,592.88,166.89,591.66Z"/><path class="cls-7" d="M151.23,594.08c.73-.4,1.41-.86,2.09-1.32a9.16,9.16,0,0,0,7.45,2c6.34-.8,11.95-5.47,17.21-9.35.44,1.86.64,3.59-.26,5-2.31,3.64-4.59,2.76-8.72,4.29-4.83,1.77-3.84,5.44-13.61,5.72-1.86.06-3.84.11-5.5-1.06a3,3,0,0,1-1.3-1.81C148.23,595.85,149.93,594.8,151.23,594.08Z"/><path class="cls-4" d="M169,432.42c.36,9.34-.75,20.69-1.1,30-.37,9.5-1.49,19-1.57,28.49-.19,22.34,5.3,45.05.66,66.76a35.84,35.84,0,0,0,25.3-1.05c3-35.49,6.84-83,12.73-121.41C194.25,435.93,179.12,436.93,169,432.42Z"/><path class="cls-3" d="M202.19,441a37.25,37.25,0,0,1-5.48-.09,13.45,13.45,0,0,1-.31,6.46c-5.52,15.74-15.7,38.95-15.7,53.12,0,20.71,0,36.94-.34,59a34.41,34.41,0,0,0,12-2.88C195.34,521.16,196.29,479.39,202.19,441Z"/><path class="cls-13" d="M196.45,600.22s4-3.29,4-3.32a18,18,0,0,0,3.17-13.28c-3.36-27-12.31-60.55-16.5-87.27h24.28c3.57,28.15,7.63,61.67,2.23,88.28a29,29,0,0,0-.27,9.83c.29,2.13.55,4.26.76,6.39s.3,4.35-.8,5.71c-.89,1.1-4.23.54-6.84,1.77-6.84,3.21-14.58,3.95-19.44,1.35C184.12,607.49,190.31,603.78,196.45,600.22Z"/><path class="cls-14" d="M211.37,496.35H187.09c4,25.78,12.51,57.89,16.11,84.4,5.09,2.11,9.55-.73,11.62-3.56C218.24,552,214.62,521.94,211.37,496.35Z"/><path class="cls-3" d="M212.38,599.13a4.2,4.2,0,0,0,.12-1.73,12.16,12.16,0,0,0-1.09,2.54.58.58,0,0,0,.64-.16A1.6,1.6,0,0,0,212.38,599.13Z"/><path class="cls-3" d="M199.25,607.33a12.31,12.31,0,0,1-3.72.71,7.2,7.2,0,0,1-6-3.56l2.06-1.49c2.79,2.27,6.63,2.34,10.07,1.66s6.77-2,10.26-2.28A132.08,132.08,0,0,1,199.25,607.33Z"/><path class="cls-7" d="M190.64,603.77a7.15,7.15,0,0,0,4.26,2.68c2.78.7,6.76-.54,9.37-1.55,3.16-1.22,6.48-3.32,9.82-4,.21,2,.3,4.34-.8,5.69-.89,1.1-4.23.54-6.84,1.77-6.84,3.21-14.58,3.95-19.44,1.35C185.08,608.22,187.2,606.08,190.64,603.77Z"/><path class="cls-4" d="M218.7,436.9c4.15,15.55-1.41,31.91-3.38,48-3.48,28.33,11.85,61,6.41,89-8.37,4.09-17.42,7.33-26.87,2.27,1.61-16.8-3.36-38.88-6.2-55.49-1.46-8.52-3.67-16.92-4.43-25.55-1.86-21.17,5.05-43.08-.49-63.48l29.71-1.47Z"/><path class="cls-3" d="M208.67,443.62a13.89,13.89,0,0,0,5.24-1.58,4.94,4.94,0,0,0,2.55-4.56q-22.86-1.46-45.57-4.62a4.29,4.29,0,0,0,.2,4.42,9.49,9.49,0,0,0,3.43,3.07A35.78,35.78,0,0,0,191.24,445,84.37,84.37,0,0,0,208.67,443.62Z"/><path class="cls-3" d="M215.32,484.85c2-16,7.53-32.4,3.38-48l-5.25-6.78-5.39.27c3.76,6.08,6.6,12.47,5.69,18.86-6.21,35.77,0,66.87,4.65,101.08a81.47,81.47,0,0,1,.9,24.65l2.43-1.14C227.17,545.87,211.84,513.18,215.32,484.85Z"/><path class="cls-7" d="M223.92,319.81c3.91,4.09,5,10.53,4.31,16.36a62.74,62.74,0,0,1-7.59,22.72c-3.5,6.43-6.31,14.09-4.49,23.39.91,4.61,2.7,8.93,4.35,13.29a98.75,98.75,0,0,1,6.36,35.23c0,2-.14,4.1-1.35,5.56-1.37,1.64-3.63,1.88-5.66,2-14.39.75-34.72,1.52-51.27-4.69.83-22.59,9.76-41.65,10.59-64.25.39-10.77-5-18.22-.74-28,3.81-8.71,16.45-19.51,24.62-23.38C209.83,314.84,218.59,314.24,223.92,319.81Z"/><path class="cls-10" d="M183.52,402.36c.51-11.82,4.58-23.4,4-35.22A101.13,101.13,0,0,0,218.64,348c-5.19,12.16-10.48,25.12-8.44,38.18,1.3,8.33,5.48,15.87,8.66,23.67s5.28,18.8,2.45,26.74c-13.77,1.55-26.31,1.78-38.8-1.94C185.54,424.29,183.06,413.18,183.52,402.36Z"/><path class="cls-3" d="M181.75,375.52c.33-3.07.9-6.25,2.74-8.73,1.66-2.25,4.17-3.68,6.62-5q14.74-8,30.21-14.6a111.78,111.78,0,0,1-33,43.69c-1.25,1-2.79,2-4.32,1.58-2-.57-2.5-3.07-2.61-5.12A75.12,75.12,0,0,1,181.75,375.52Z"/><path class="cls-3" d="M172.23,435.09c-1.77-10.09,1-20.25,3.64-30.07,1-3.87,2.13-7.86,2.92-11.8a177.26,177.26,0,0,0,2.44-20.43c.48-6,1-12.22,2-18.27,1.89-10.85,6.68-25.44,18.71-33.27l.43.65C190.6,329.58,185.89,344,184,354.66c-1.05,6-1.54,12.2-2,18.19a177.32,177.32,0,0,1-2.45,20.53c-.8,3.95-1.88,8-2.93,11.84C174,415,171.25,425,173,435Z"/><path class="cls-13" d="M219.64,321.43c-4.62-1-9.49,1.27-13.44,3.66-6,3.6-11.6,7.79-17.36,11.76s-12.14,7.38-19,7.74c-9.64-10.83-15.62-13.57-25-23.93a21,21,0,0,1-2.4-5.06c-1-2.8-1.75-5.75-3.32-8.22a2.55,2.55,0,0,0-1.18-1.14,5.29,5.29,0,0,0-1.38-.06,5.33,5.33,0,0,1-2.87-1.45L124,297c-1.33,2.64,1.23,4,5.52,8.08a3.15,3.15,0,0,0-2.55,2.42,9.44,9.44,0,0,1,0,3c-.24.79-.9,1.57-.58,2.33.17.42.6.67.79,1.08.26.58,0,1.25,0,1.89a4.52,4.52,0,0,0,1.25,2.82,12.76,12.76,0,0,0,3.29,3.34c1,.58,2,.87,3,1.43a8.27,8.27,0,0,1,3.48,4c.17.36,1.14,2.32,1.26,2.6,0,0,9.43,18.64,19.35,31.85a6.55,6.55,0,0,0,5.73,2.55c16.4-1.19,32.48-6.32,47.37-13.88a41.48,41.48,0,0,0,9.85-6.41c3.35-3.12,6.17-7.25,5.85-12.27S224.15,322.41,219.64,321.43Z"/><path class="cls-14" d="M219.64,321.43c-4.62-1-9.49,1.27-13.44,3.66-6,3.6-11.6,7.79-17.36,11.76s-12.14,7.38-19,7.74c-1.3-1.46-2.53-2.77-3.72-4a10.39,10.39,0,0,1-2.06,1.33c-10.86,6.23-21.73-7.77-26.38-18.66-1.5-3-7.35-3.11-10.54-7.34a4.74,4.74,0,0,0,1.23,2.65,12.76,12.76,0,0,0,3.29,3.34c1,.58,2,.87,3,1.43a8.27,8.27,0,0,1,3.48,4c.17.36,1.14,2.32,1.26,2.6,0,0,9.43,18.64,19.35,31.85a6.55,6.55,0,0,0,5.73,2.55c16.4-1.19,32.48-6.32,47.37-13.88a41.48,41.48,0,0,0,9.85-6.41c3.35-3.12,6.17-7.25,5.85-12.27S224.15,322.41,219.64,321.43Z"/><path class="cls-7" d="M215.16,319.9c-4,.48-7.45,3.12-10.79,5.46a98.58,98.58,0,0,1-26.65,13.22,23.64,23.64,0,0,0-6.28,2.62,6.94,6.94,0,0,0-3.3,5.66c.08,2.05,1.4,3.93,1.26,6-.16,2.23-2,3.92-3.41,5.62s-2.61,4.21-1.39,6.09a6,6,0,0,0,3.5,2,24.14,24.14,0,0,1,6,2.33,7.59,7.59,0,0,1,3.7,5,23.52,23.52,0,0,1-.11,4,4.38,4.38,0,0,0,1.36,3.64,3.82,3.82,0,0,0,2.31.65c4-.05,6.83-3.79,9.53-6.79,9-10,22.7-14.66,31.64-24.68A27.06,27.06,0,0,0,229,338.85a17.3,17.3,0,0,0-2.13-13.18A12.71,12.71,0,0,0,215.16,319.9Z"/><path class="cls-3" d="M170.13,343.32l-.66-.42c1.6-2.51,4.49-4.27,8.61-5.22,1.29-.3,2.63-.51,3.92-.72a36.74,36.74,0,0,0,5.85-1.26c4.18-1.38,7.81-4.26,10.88-6.85l1.15-1a48.92,48.92,0,0,1,9.45-6.81c4.51-2.26,9.23-2.67,13-1.15l-.29.72c-3.52-1.44-8-1-12.32,1.13a48.47,48.47,0,0,0-9.3,6.7l-1.15,1c-3.13,2.63-6.82,5.57-11.14,7a38.77,38.77,0,0,1-6,1.29c-1.28.21-2.6.42-3.87.71C174.34,339.34,171.61,341,170.13,343.32Z"/><path class="cls-10" d="M185.16,346.35a25.5,25.5,0,0,1-11.49,2.79c-1.13,0-2.41,0-3.19.81a7.17,7.17,0,0,1-.77,6c1.69-2.11,4.5-2.86,7-3.9A25.73,25.73,0,0,0,185.16,346.35Z"/><path class="cls-10" d="M202.52,351.33a216.25,216.25,0,0,1-24.21,19.86,17,17,0,0,0-10.11-5.05A48.86,48.86,0,0,0,186.29,361,140.17,140.17,0,0,0,202.52,351.33Z"/><path class="cls-10" d="M184.58,379.85c4.27-2.71,7.55-6.92,11.32-10.29,4-3.59,8.52-6.09,13.16-8.82s9.13-6.43,10.73-11.57c-3.19,5.26-8.42,8.95-13.79,11.95s-11.07,5.46-16.05,9.06a61.2,61.2,0,0,0-10.21,9.69,2.58,2.58,0,0,0,2.37,1A5.83,5.83,0,0,0,184.58,379.85Z"/><path class="cls-14" d="M183.54,290.86a2.61,2.61,0,0,1,1,.47.94.94,0,0,1,.34,1,.59.59,0,0,1-.85.35,12,12,0,0,1-2.27-2.28C182.33,290.52,182.94,290.68,183.54,290.86Z"/><path class="cls-13" d="M767.6,371.08c-.16-1.11-.92-2.09-1-3.21,0-.76.28-1.49.29-2.25a7.87,7.87,0,0,0-1.16-3.32,11.63,11.63,0,0,1-1-4.18,3.56,3.56,0,0,0-2.49,4.13c.19.95.76,1.86.55,2.8a2.51,2.51,0,0,1-.48.95l-.14-.16a15.47,15.47,0,0,0-2.66-2.1c-3-2.21-5.21-5.36-7.55-8.28-.38-.48-1-1-1.52-.7s-.56,1.47-.36,2a24,24,0,0,0,4.55,7.28,1.75,1.75,0,0,1,.25,2.45,32.1,32.1,0,0,0-1.37,3.34,5.66,5.66,0,0,0-.39,3.4,6,6,0,0,0,1.2,2c1.13,1.41,2.47,2.88,4.26,3.08a18.1,18.1,0,0,0,3.23.33,52.59,52.59,0,0,1,8.51,8.88,28.49,28.49,0,0,1,6.63-5.29q-4.94-4.68-9.5-9.71A3.09,3.09,0,0,0,767.6,371.08Z"/><path class="cls-14" d="M754.3,373.73a6.46,6.46,0,0,1,0-3.49c.32-1.86.65-3.72,1-5.58a6.83,6.83,0,0,0,2.82,1.23,2.82,2.82,0,0,1,2.62,2.79c.22,1.9.43,3.81.64,5.71a5.21,5.21,0,0,1-3.74,1.53A3.76,3.76,0,0,1,754.3,373.73Z"/><path class="cls-13" d="M754.69,367.61c.61.44,1.25.86,1.9,1.25a1.35,1.35,0,0,0,1.08.26,1.1,1.1,0,0,0,.59-1,3.29,3.29,0,0,0-.9-2.33,9.92,9.92,0,0,0-2-1.59,2.17,2.17,0,0,0-1.12-.46A1.3,1.3,0,0,0,753,364.8a2.05,2.05,0,0,0,.4,1.63A5.06,5.06,0,0,0,754.69,367.61Z"/><path class="cls-13" d="M752.06,369.21a2.87,2.87,0,0,0,1.37,1.29c.66.37,1.31.75,2,1.13a4.18,4.18,0,0,0,1.46.62,1.48,1.48,0,0,0,1.44-.49,1.42,1.42,0,0,0,.13-1.3,3.31,3.31,0,0,0-.76-1.13,10,10,0,0,0-4.14-2.65,1.12,1.12,0,0,0-.84,0,1.18,1.18,0,0,0-.52.81A2.74,2.74,0,0,0,752.06,369.21Z"/><path class="cls-13" d="M752.25,371.3a2.06,2.06,0,0,0,.25,2,3.49,3.49,0,0,0,1.73,1.21,13.4,13.4,0,0,0,2.09.45,3.57,3.57,0,0,0,1.08.06,1.13,1.13,0,0,0,.88-.57,1.4,1.4,0,0,0-.49-1.51,7.06,7.06,0,0,0-1.84-1.18l-1.79-.89a1.8,1.8,0,0,0-1.09-.29A1.21,1.21,0,0,0,752.25,371.3Z"/><path class="cls-15" d="M859.83,405.46l-6.73-2.26a117,117,0,0,1-82-29.16,2.3,2.3,0,0,0-3.06,0,18.73,18.73,0,0,0-3.64,4,8.17,8.17,0,0,0-1.1,7.13c.72,1.91,2.35,3.31,3.91,4.63,10.42,8.76,20.9,17.56,32.59,24.53s24.74,12.09,38.33,12.86c6.47.36,13.4-.43,18.47-4.48S863.89,410.51,859.83,405.46Z"/><path class="cls-12" d="M828.65,406.59a1.07,1.07,0,1,1-1.07-1.07A1.06,1.06,0,0,1,828.65,406.59Z"/><path class="cls-12" d="M813.52,414.17a.88.88,0,1,1-.88-.88A.87.87,0,0,1,813.52,414.17Z"/><circle class="cls-12" cx="811.58" cy="401.63" r="1.36"/><circle class="cls-12" cx="794.31" cy="394.63" r="0.78"/><path class="cls-12" d="M785.58,393.76a1.07,1.07,0,1,1-1.06-1.07A1.06,1.06,0,0,1,785.58,393.76Z"/><path class="cls-12" d="M775.89,381.9A.88.88,0,1,1,775,381,.88.88,0,0,1,775.89,381.9Z"/><circle class="cls-12" cx="769.87" cy="386.47" r="1.16"/><path class="cls-8" d="M763.93,378.93a7.75,7.75,0,0,0-.59,6.21c.72,1.91,2.35,3.31,3.91,4.63,10.42,8.76,20.9,17.56,32.59,24.53s24.74,12.09,38.33,12.86c6.47.36,13.4-.43,18.47-4.48a14.58,14.58,0,0,0,4.68-6.94C826,421.58,787.18,406.94,763.93,378.93Z"/><path class="cls-8" d="M800.44,397.6a8.8,8.8,0,0,0,2.82,9.13A16.16,16.16,0,0,0,800.44,397.6Z"/><path class="cls-3" d="M801,616.84a5.76,5.76,0,1,0,5.75,5.76A5.76,5.76,0,0,0,801,616.84Z"/><path class="cls-3" d="M907.79,617.16v-1h.05v-1.35a2.49,2.49,0,0,0-2.29-2.49c-6.77-.55-26.7-2.2-34.37-3.1-9.3-1.1-13.13-6-13.13-6h-1.21V571.29h-1.21V525.62h-4.58v45.67h-1.22v31.84h-1.2s-3.83,4.94-13.14,6c-7.66.9-27.6,2.55-34.37,3.1a2.5,2.5,0,0,0-2.29,2.49v1.35l.91-.07v4.07h3.69v-4.37l43.19-3.5a28.65,28.65,0,0,1-2.75,2.07,8.6,8.6,0,0,0-2.16,1.82,4.36,4.36,0,0,0-.63,1.21h-2.82V628h9.46V617.34h-3c0-.28,0-.57.09-.85a19.73,19.73,0,0,0,10.09-4.66l49.17,4v1.38a5.75,5.75,0,1,0,3.69,0Z"/><path class="cls-10" d="M786.21,538.46c-2.92,2.51-5.62,6.25-4.48,9.94,1.46,4.74,7.72,5.54,12.68,5.46l54.88-1c12.05-.21,25.1-.77,34.45-8.4,6.65-5.43,10.34-13.65,13.19-21.76a141.87,141.87,0,0,0,7.85-36c.63-8.3.32-17-3.47-24.41s-11.84-13.14-20.07-12c-5.74.81-10.66,4.76-13.91,9.56s-5.08,10.42-6.74,16c-4,13.53-7.91,28.11-18.48,37.46C826.66,527,801.87,525.05,786.21,538.46Z"/><path class="cls-7" d="M786.21,534.83c-2.92,2.51-5.62,6.25-4.48,9.94,1.46,4.75,7.72,5.55,12.68,5.46l54.88-1c12.05-.21,25.1-.77,34.45-8.39,6.65-5.44,10.34-13.66,13.19-21.77a141.89,141.89,0,0,0,7.85-36c.63-8.31.32-17-3.47-24.42s-11.84-13.14-20.07-12c-5.74.8-10.66,4.76-13.91,9.56s-5.08,10.41-6.74,16c-4,13.53-7.91,28.11-18.48,37.46C826.66,523.34,801.87,521.42,786.21,534.83Z"/><path class="cls-4" d="M890.69,462c3.45,1,5.69,4.54,6.25,8.1s-.23,7.17-1.07,10.67q-3,12.54-7,24.81c-3.22,9.87-7.19,20-14.91,26.92-8.25,7.39-19.62,10.08-30.58,11.6a231.36,231.36,0,0,1-39,2c-3.85-.12-8.34-.68-10.32-4a7.7,7.7,0,0,1,0-7.11,16.73,16.73,0,0,1,4.81-5.55c10.53-8.52,24.41-11.59,36-18.67a59.48,59.48,0,0,0,22.92-25.92c2-4.47,3.52-9.17,5.67-13.58s5.12-8.6,9.34-11.09,9.87-3,13.91-.19Z"/><path class="cls-13" d="M755.1,610.79c3.25-1.47,8.7-3,11.93-6.1,4.9-4.63,4.62-6.8,5-11.62.49-5.57-.75-12.58-1.24-18.14-.16-1.83-.36-3.66-.55-5.48h15.78a100.93,100.93,0,0,0,.22,37.48c.48,2.45,1,5.29-.64,7.21-1.38,1.64-3.83,1.92-5.94,1.54s-3.53-.85-5.65-.5c-6.79,1.14-13.68,3.3-20.08,1.56-1.2-.32-3.43-1-3.68-2.27C750,612.94,753.67,611.43,755.1,610.79Z"/><path class="cls-14" d="M786.28,606.93a100.93,100.93,0,0,1-.22-37.48H770.28c.19,1.82.39,3.65.55,5.48.2,2.22.51,4.68.79,7.18,6,2.23,7.48,9.64,10.08,14.87,3.11,7.77-4.65,12.44-10.86,14a91.06,91.06,0,0,1-20.56,3.42s0,.06,0,.08c.25,1.22,2.48,1.95,3.68,2.27,6.4,1.74,13.29-.42,20.08-1.56,2.12-.35,3.53.12,5.65.5s4.56.1,5.94-1.54C787.24,612.22,786.76,609.38,786.28,606.93Z"/><path class="cls-9" d="M756.61,618.78a11.93,11.93,0,0,1-6.24-2,2.69,2.69,0,0,1-1.3-2.47,2.89,2.89,0,0,1,1.3-1.63,14.71,14.71,0,0,1,5.32-2.43,3.1,3.1,0,0,0,1.48,2.56,7.22,7.22,0,0,0,2.9,1c4.56.69,9.2-.11,13.68-1.18s8.93-2.41,13.52-2.82a5.41,5.41,0,0,1-2.65,5.87c-2.46,1.28-5.42.45-8.19.45-3.32,0-6.49,1.25-9.73,2A32.29,32.29,0,0,1,756.61,618.78Z"/><path class="cls-8" d="M771.3,582.49c-.06-2.53-.25-5-.47-7.56-.16-1.83-.36-3.66-.55-5.48h15.78a101.67,101.67,0,0,0-1.5,13Z"/><path class="cls-9" d="M789.27,576l-18.2.84a4.46,4.46,0,0,1-4.39-3.84c-3.12-21.74-8-35.92-4.21-55.57,1.35-7,8.45-13,15.42-14.29,18.41-3.38,46.25-6,48-26.58L853,481.66c.63,9.43.61,31.69-8.28,44.56l-58.2,4.09C787.24,548.2,787.62,556.88,789.27,576Z"/><path class="cls-16" d="M851.81,506.94c-24,3.62-49.8.9-73.21,9.18-4.65,3.11-10.86,7.77-9.31,14,1.88,16,2.62,31.42,4,46.62l16-.74c-1.65-19.11-2-27.79-2.72-45.68l58.2-4.09C848.44,520.88,850.58,513.93,851.81,506.94Z"/><path class="cls-13" d="M766.69,627.07c2.89-1.77,8.49-4.23,12.31-6.22,4.09-2.12,5.66-4.39,6.23-8.64.73-5.54-.89-15.46-1.39-21-.16-1.83-.36-3.65-.55-5.48h15.78c-.48,13-2.2,25.15.22,37.48.48,2.46,1,5.29-.64,7.21-2.29,2.74-6.65,1.78-9.75,1.73a81.06,81.06,0,0,0-11.34.58c-3.48.42-7.11,1.22-10.58.3a3.45,3.45,0,0,1-2.71-2.27C764,629.2,765.36,627.89,766.69,627.07Z"/><path class="cls-14" d="M799.29,623.18c-2.42-12.33-.7-24.44-.22-37.48h-5.55c1.77,15.66,3.85,32.13.89,46.56a5.82,5.82,0,0,0,4.24-1.87C800.26,628.47,799.77,625.64,799.29,623.18Z"/><path class="cls-8" d="M783.74,599c0-2.52-.48-5.43-.71-7.94-.16-1.82.45-3.48.26-5.31l16.93.14A102.61,102.61,0,0,0,799.09,599Z"/><path class="cls-9" d="M762.05,631.12c1,2,4.71,3.47,6.91,3.7a25.19,25.19,0,0,0,6.57-.6,60.38,60.38,0,0,1,13-.7,34.14,34.14,0,0,0,6.23.08c2.06-.26,4.81-.81,6.15-2.4s0-4.68-1.23-6.38c-4.59,3.15-9.36,4-14.9,4.42-3.11.23-6.21.55-9.33.52-2.17,0-5.65.27-6.23-2.49-.21-1,.21-1.43.85-2.12-1.18-.56-3,1.37-5.19,2.41-.8.39-2.17.8-2.72,1.49A1.83,1.83,0,0,0,762.05,631.12Z"/><path class="cls-9" d="M798.82,593.35H784.46a5.06,5.06,0,0,1-5-4.41L774,548c-.78-5.84-2-13.27.8-18.43,1.87-3.41,3.93-6.86,7.13-9.08,13.3-9.24,32.15-11.68,42.59-21.82,5.14-5,5.46-11.47,7.51-20.08,9.88,2.08,24.18,4.85,32.12,11.27,3.11,62.37-35.65,38.27-60.83,50.27,0,16.46.57,32.76-.11,49A4.39,4.39,0,0,1,798.82,593.35Z"/><path class="cls-16" d="M830.46,482.7c-1.88-.83-4.16-1.53-5.88-.41-2.59,1.68-1.9,6.12-4.38,7.95a77.18,77.18,0,0,1,38.37,30.33c2.43-5.15,1.51-11.42-1.23-16.41s-7.1-8.88-11.64-12.3A76.6,76.6,0,0,0,830.46,482.7Z"/><path class="cls-16" d="M864.16,489.88a34.66,34.66,0,0,0-8-4.62c8.94,34.43-27.82,55.39-58.95,48,4.66,17.11,6.21,35.77-3.1,51.32-2.63,4-8.33,5.66-14.49,5.27a5.07,5.07,0,0,0,4.83,3.54h14.36a4.39,4.39,0,0,0,4.4-4.2c.68-16.24.09-32.54.11-49C828.51,528.15,867.27,552.25,864.16,489.88Z"/><path class="cls-4" d="M820.43,485.79c.92-1.37,1.07-5,2-6.34,8.16.6,15.41,5.44,21.41,11s11.18,12,17.62,17.09a7,7,0,0,1,2.18,2.28c1,2.15-.47,4.62-1.91,6.54-4.68-6.1-10.64-11.07-16.55-16A81.6,81.6,0,0,0,820.43,485.79Z"/><path class="cls-15" d="M829,453.38c-2-3.95-3.78-7.92-4.14-12.26-.53-6.26,2-12.11,5.45-17.53a21.59,21.59,0,0,1,21.48-21.9,90,90,0,0,1,17.79,1.73c5.52,1.1,11.28,2.94,14.86,7.3,2.73,3.33,3.79,7.71,4.45,12,3.22,20.9-18.93,42.18-23.05,87.51a1.69,1.69,0,0,1-2.67,1.24c-12.68-9.35-28.14-29.55-42.4-31.06C824.24,476,827.25,465.73,829,453.38Z"/><path class="cls-8" d="M888.84,422.69c-.66-4.26-1.72-8.64-4.45-12-3.58-4.36-9.34-6.2-14.86-7.3-2.28-.46-4.57-.79-6.88-1.07-5.34,6.84-9.95,13.83-8.59,22,.38,8.49.76,17.08.64,25.55L839.94,449a28.38,28.38,0,0,1-6.69-1,9.49,9.49,0,0,1-5.38-3.9c-.79-1.33-1.46-3.14-3-3.24a31.11,31.11,0,0,0,7,14.72,1.84,1.84,0,0,0,1.06.75c1.16.17,1.58-1.56,2.61-2.12a2.42,2.42,0,0,1,2.52.52,14.92,14.92,0,0,0,2.1,1.74c1.88,1,4.15-.1,6.25.08,3.16.28,5.24,3.22,7.74,5.25-1,11.87-3.47,23.29-8.91,33.65,6.27,5.76,12.33,11.91,17.87,16a1.69,1.69,0,0,0,2.67-1.24C869.91,464.87,892.06,443.59,888.84,422.69Z"/><path class="cls-3" d="M841.71,405.33a7.81,7.81,0,0,0-1.1,4.37c-.11,3.85.51,8,3.26,10.73a10.5,10.5,0,0,0,6,2.73,18.89,18.89,0,0,0,6.61-.44,31.57,31.57,0,0,0,15.35-8.48c1.69-1.69,3.28-4,2.61-6.3-.57-2-2.59-3.13-4.49-3.93-7.91-3.37-17.19-4.39-25.06-.92A7.32,7.32,0,0,0,841.71,405.33Z"/><path class="cls-12" d="M836,462.6a1.18,1.18,0,1,0-.65,1.67A1.23,1.23,0,0,0,836,462.6Z"/><path class="cls-12" d="M835.24,431.81a1.16,1.16,0,1,0-1.79-1A1.23,1.23,0,0,0,835.24,431.81Z"/><path class="cls-12" d="M848.34,439.37a1.2,1.2,0,1,0,.85-2A1.27,1.27,0,0,0,848.34,439.37Z"/><path class="cls-12" d="M840.49,478.19a1.21,1.21,0,1,0,1.49,1.18A1.27,1.27,0,0,0,840.49,478.19Z"/><path class="cls-12" d="M860.74,476.32a3.61,3.61,0,0,0,.69-1.2,1.2,1.2,0,0,0-.35-1.26,1.09,1.09,0,0,0-1.58.86A1.68,1.68,0,0,0,860.74,476.32Z"/><path class="cls-12" d="M859.1,492.31a1.26,1.26,0,1,1-1.26-1.27A1.26,1.26,0,0,1,859.1,492.31Z"/><circle class="cls-12" cx="850.76" cy="467.13" r="1.16"/><circle class="cls-12" cx="836.6" cy="445.17" r="1.16"/><path class="cls-12" d="M864.34,504.55a1.07,1.07,0,1,1-1.07-1.07A1.07,1.07,0,0,1,864.34,504.55Z"/><path class="cls-12" d="M846.49,490.75a.87.87,0,1,1-.87-.87A.88.88,0,0,1,846.49,490.75Z"/><path class="cls-12" d="M831.17,477.14a1.46,1.46,0,1,1-1.46-1.45A1.46,1.46,0,0,1,831.17,477.14Z"/><path class="cls-7" d="M862.56,354.12c-2.61-.87-4.39-3.94-7.13-3.82s-4.13,3.07-6.52,4.13-5.22.28-7,2c-2,1.84-1.13,5.12-1.84,7.74-.63,2.36-2.52,4.12-4.07,6s-2.83,4.43-2,6.71c.52,1.38,1.79,2.56,1.66,4a9.05,9.05,0,0,1-.6,1.87,7.92,7.92,0,0,0,.53,4.94c.57,1.58.08,3,.06,4.66s-1.52,3.06-1.14,5.86c16.59,3,33.06,5,49.47,1.15-1.2-1.06-1.18-3.89-.41-5.3.5-.92,1.44-1.82,1.12-2.82s-1.63-1-2.33-1.76c-1.76-1.82-2-4.16-1.17-4.89,1.33-1.19,1.28-3.39,1.28-5.18,0-3.75-3.52-6.39-5.36-9.66-1.49-2.65-1.85-5.77-2.8-8.67s-2.84-5.83-5.8-6.5C866.56,354.12,864.45,354.74,862.56,354.12Z"/><path class="cls-14" d="M842.75,364c-1.12,1.33-2.09,3.08-1.58,4.75.33,1.07,1.24,1.95,1.34,3.07.21,2.53-3.63,3.79-3.81,6.33-.09,1.39,1,2.56,1.46,3.86a8,8,0,0,1-.32,5.46,31.59,31.59,0,0,0-1.74,5.3,5.41,5.41,0,0,0,1.56,5.1,7.26,7.26,0,0,0,2.74,1.16,63.25,63.25,0,0,0,16,2.38,33.94,33.94,0,0,0,15.71-3.52.82.82,0,0,0,.37-.29c.26-.45-.35-.87-.78-1.16a3.84,3.84,0,0,1-1.28-3.64c.16-1.35.71-2.61,1-3.94a4.48,4.48,0,0,0-.68-3.85c-1.31-1.49-3.7-1.24-5.47-2.13-2.14-1.08-3-3.62-3.61-5.95s-1.09-4.87-2.89-6.45c-2-1.73-5.14-1.94-6.61-4.12-.81-1.21-.92-2.79-1.76-4a4.8,4.8,0,0,0-5.1-1.58A9.29,9.29,0,0,0,842.75,364Z"/><path class="cls-13" d="M849.87,402.14c2.57-5.88,3-11.52,3.63-17.91a32.11,32.11,0,0,0,12.72,1q1.39,9.12,2.78,18.25a3.48,3.48,0,0,1,2.19,2.25,4.86,4.86,0,0,1-1.1,3.65c-2.54,3.88-5.86,7.4-10.11,9.25s-9.51,1.73-13.18-1.1-5-8.62-2.26-12.35C845.37,404,848.63,402.75,849.87,402.14Z"/><path class="cls-14" d="M870.88,405c-3,9.43-12.74,15.3-22.45,11.65-1.43,0-3.51-1.67-4.89-3.91a9.72,9.72,0,0,0,3.26,4.81c3.67,2.83,8.94,2.94,13.18,1.1s7.57-5.37,10.11-9.25a4.86,4.86,0,0,0,1.1-3.65A2.48,2.48,0,0,0,870.88,405Z"/><path class="cls-14" d="M865.06,385.29a31.17,31.17,0,0,1-11.56-1.06c-.61,6.39-1.06,12-3.63,17.91-1.24.61-4.5,1.88-5.33,3a7.73,7.73,0,0,0-1.45,4.63c5.29-3.53,11.87-5.71,17.76-7.18C864.94,401.23,864.23,392.64,865.06,385.29Z"/><path class="cls-3" d="M851.64,397a79.93,79.93,0,0,0,1.86-12.73,30.88,30.88,0,0,0,10.82,1.12C864.08,393,858.43,395.82,851.64,397Z"/><path class="cls-13" d="M843.72,372.73a4,4,0,0,0,.42-2.4,18.7,18.7,0,0,1,1-6.19l1.14-3.15c6.71-3.5,14.53-2.09,20.35,2.75a12.22,12.22,0,0,1,4.65,7.75c.33,3.07-1,6.06-2.25,8.87-1.42,3.15-2.91,6.38-5.43,8.74a17.51,17.51,0,0,1-8.72,4.12,40.53,40.53,0,0,1-6.78.64,4,4,0,0,1-3.87-2.79c-1.48-4.72-2.67-9.52-2.09-14.64A9.35,9.35,0,0,1,843.72,372.73Z"/><path class="cls-14" d="M871.31,371.49a12.22,12.22,0,0,0-4.65-7.75,19,19,0,0,0-15.4-4.43,7,7,0,0,1,1.83,1.31c4,2.66,3.42,9.9,8.06,12.89a4.8,4.8,0,0,1,2.29,4.35,16.48,16.48,0,0,0,1.93,9.27,35.18,35.18,0,0,0,3.69-6.77C870.33,377.55,871.64,374.56,871.31,371.49Z"/><path class="cls-7" d="M875.85,388.41c.36-2.85,1.29-5.65,1.16-8.51a11.68,11.68,0,0,0-2-5.94,11.42,11.42,0,0,0-.92-1.16c0-.32,0-.64.07-1a15.92,15.92,0,0,0-1.06-7.54c-1.35-2.85-4.07-4.84-6.94-6.13a25.94,25.94,0,0,0-12.91-2.12l-4.07,1.84c1.72-.44,6.87,1.12,7.77,2.65.8,1.36.77,3,1.26,4.54a6.65,6.65,0,0,0,3.8,4c1.34.52,3,.71,3.76,1.92s.3,2.66,0,4a14,14,0,0,0-.39,5.68,8.94,8.94,0,0,0,1,2.8,4.91,4.91,0,0,0,2,2.9c1.25.94,2.75,1.71,3.48,3.1.85,1.6.46,3.71,1.55,5.17s2.9,1.62,4.59,1.73C875.84,394.48,875.49,391.25,875.85,388.41Z"/><path class="cls-10" d="M835.55,377.89c.39.45.94.8,1.09,1.38s-.31,1.4-.62,2.07a4.09,4.09,0,0,0,1,4.58,6,6,0,0,1,.22-4.61c.39-.82,1-1.65.85-2.55-.22-1.21-1.67-1.8-2.11-2.95a3.33,3.33,0,0,1,.51-2.71,8.38,8.38,0,0,0,1.26-2.54,11.64,11.64,0,0,0-2.55,3.34A3.86,3.86,0,0,0,835.55,377.89Z"/><path class="cls-10" d="M838.56,388.18a15.69,15.69,0,0,0-2,5,5.38,5.38,0,0,0,1.51,4.94A17.16,17.16,0,0,1,838.56,388.18Z"/><path class="cls-10" d="M868.33,368.62a2.94,2.94,0,0,1,1.91,3,14.35,14.35,0,0,1-.91,3.72,4.79,4.79,0,0,0,.13,3.74c.63,1.07,1.86,1.59,2.91,2.25s2.07,1.74,1.84,3c-.16.87-.94,1.58-.91,2.47a2.41,2.41,0,0,0,1,1.65,6.66,6.66,0,0,1,1.44,1.36,3.14,3.14,0,0,1,.36,2.19,9,9,0,0,1-.73,2.14,3.49,3.49,0,0,0,1.47-2.42A3.54,3.54,0,0,0,876,389a6,6,0,0,1-1-1.26,3.06,3.06,0,0,1,.33-2.5,4.19,4.19,0,0,0,.64-2.47c-.21-1.1-1.29-1.78-2.28-2.28a4.48,4.48,0,0,1-2.49-2.11c-.45-1.24.33-2.55.61-3.85A5.21,5.21,0,0,0,868.33,368.62Z"/><path class="cls-10" d="M880,382.57c.54-1,1.42-2,1.28-3.15s-1.2-1.87-2.22-2.37a5.8,5.8,0,0,1,1.26,1,1.92,1.92,0,0,1,.51,1.48c-.12.77-.82,1.29-1.36,1.85a5.32,5.32,0,0,0-.85,5.92c.5,1,1.32,1.82,1.76,2.85a5.83,5.83,0,0,1-.14,4.38,17.66,17.66,0,0,1-2.36,3.81,15.69,15.69,0,0,0,2.85-2.85,5.19,5.19,0,0,0,1-3.82c-.28-1.52-1.43-2.73-2-4.17A6,6,0,0,1,880,382.57Z"/><path class="cls-10" d="M853.51,355.41c2,.43,3.6,1.93,5.07,3.37a10.7,10.7,0,0,0-11-.58A5.64,5.64,0,0,1,853.51,355.41Z"/><path class="cls-10" d="M863.64,363.12a11,11,0,0,1-1.63-2.79,10.7,10.7,0,0,0-1.67-2.75,3.61,3.61,0,0,0-2.86-1.26,4.49,4.49,0,0,1,2.19,2.21c.51.93.87,1.94,1.45,2.83A3.65,3.65,0,0,0,863.64,363.12Z"/><path class="cls-10" d="M863.39,358.86a3.38,3.38,0,0,0,2.31,2.67,3.11,3.11,0,0,0-1-2.21C864.07,358.76,864.22,358.8,863.39,358.86Z"/><path class="cls-15" d="M889.44,483.94l-15,2A190,190,0,0,0,872.31,446c-1.59-10-3.93-20.49-.2-29.87,1.42-3.58,4.18-7.12,8-7.5a8.74,8.74,0,0,1,7,2.93,19.42,19.42,0,0,1,3.84,6.77c4.78,12.85,3.78,22.68,2.54,36.34C892.62,464,892.77,474.9,889.44,483.94Z"/><path class="cls-8" d="M871.26,418.73c-2.44,8.7-.4,18.23,1,27.29A190,190,0,0,1,874.4,486l4.14-.55C880.87,463.3,877.43,440.05,871.26,418.73Z"/><circle class="cls-12" cx="877.72" cy="418.73" r="0.97"/><circle class="cls-12" cx="888.78" cy="426.7" r="1.55"/><path class="cls-12" d="M881.8,443.13a1.27,1.27,0,1,1-1.27-1.27A1.26,1.26,0,0,1,881.8,443.13Z"/><circle class="cls-12" cx="891.3" cy="443.61" r="1.16"/><path class="cls-12" d="M888.58,461.59a1.07,1.07,0,1,1-1.06-1.06A1.06,1.06,0,0,1,888.58,461.59Z"/><path class="cls-13" d="M871.24,438.56c-.57.85-2,1.49-2.25,2.46-.09.3.23.47.22.78a37.85,37.85,0,0,0,.24,4.76c-2.59,2.56-5.43,2.6-8.22,3.72l-.32-3a6.34,6.34,0,0,0-.87-2.08,10.5,10.5,0,0,0-1.4-1.43,6.82,6.82,0,0,1-1.71-4.06,39.54,39.54,0,0,1,0-4.49c0-4.38-1-8.69-1.36-13a2.94,2.94,0,0,1,.18-1.67c.49-.07,1.2.64,1.33,1.11a55.42,55.42,0,0,1,1.94,8.49c.61-.81.27-1.74.21-2.76a23.81,23.81,0,0,0-.46-3.36,22.58,22.58,0,0,1-.74-4.82,2.08,2.08,0,0,1,.8-1.45c.52-.19.73.24.86.78-.17-.75,0-.71,0-1.17s.43-.94.88-.85a18.63,18.63,0,0,1,3.61,6.73,16.79,16.79,0,0,1,.35,5.69,11.17,11.17,0,0,0-.41-6.52,27.29,27.29,0,0,1-1.13-2.88,3.59,3.59,0,0,1,.36-3c2.43,3.59,5,7.48,4.84,11.81,0,1.79-.55,3.63,0,5.35a7.31,7.31,0,0,0,2.23-1.94,25.26,25.26,0,0,0,1.08-2.29,2.45,2.45,0,0,1,1.9-1.48.71.71,0,0,1,.58.2.92.92,0,0,1,.09.73c-.42,2.14-1.65,4.07-2,6.23C871.82,436.33,871.9,437.59,871.24,438.56Z"/><path class="cls-14" d="M857.88,442.78a4.75,4.75,0,0,0,.76,1,10.5,10.5,0,0,1,1.4,1.43,6.26,6.26,0,0,1,.87,2.08l.32,3c2.79-1.12,5.63-1.16,8.22-3.72a37.85,37.85,0,0,1-.24-4.76c0-.3-.29-.48-.22-.76A22,22,0,0,1,857.88,442.78Z"/><path class="cls-13" d="M871.24,438.56c.66-1,.58-2.23.76-3.39.32-2.16,1.55-4.09,2-6.23a.92.92,0,0,0-.09-.73.71.71,0,0,0-.58-.2,2.48,2.48,0,0,0-1.91,1.48,22.76,22.76,0,0,1-1.07,2.29,7.31,7.31,0,0,1-2.23,1.94c-.5-1.72,0-3.56,0-5.35.11-4.33-2.41-8.22-4.84-11.81a3.59,3.59,0,0,0-.36,3,27.29,27.29,0,0,0,1.13,2.88,11.17,11.17,0,0,1,.41,6.52,16.79,16.79,0,0,0-.35-5.69,18.63,18.63,0,0,0-3.61-6.73c-.45-.09-.88.39-.88.85s-.17.42,0,1.17c-.13-.54-.34-1-.86-.78a2.08,2.08,0,0,0-.8,1.45,22.58,22.58,0,0,0,.74,4.82,23.81,23.81,0,0,1,.46,3.36c.06,1,.4,1.95-.21,2.76a55.42,55.42,0,0,0-1.94-8.49c-.13-.47-.84-1.18-1.33-1.11a2.94,2.94,0,0,0-.18,1.67c.4,4.35,1.38,8.66,1.36,13a39.54,39.54,0,0,0,0,4.49,7.67,7.67,0,0,0,1,3A22,22,0,0,0,869,441v0C869.29,440.05,870.67,439.41,871.24,438.56Z"/><path class="cls-3" d="M862.59,429.76l-.77,0a22.54,22.54,0,0,0-3-11.48l.67-.39A23.25,23.25,0,0,1,862.59,429.76Z"/><path class="cls-15" d="M883.11,490.6c-3.49.61-7.72-.61-9.85-3.45a34.62,34.62,0,0,1-5.17-10.3c-3-10.23-5.72-20.87-8.67-31.1,3.82-.18,9.06-2.28,11-5.58a136.84,136.84,0,0,0,12.33,24.21c2.91,4.37,6.29,8.69,7.22,13.85S888.27,489.71,883.11,490.6Z"/><path class="cls-3" d="M885.69,475.89c0-6.84-3.29-13.28-6.49-18.68-.93-1.56-1.87-3-2.78-4.43-2.44-3.77-4.74-7.33-6.17-12.08l.74-.22c1.4,4.64,3.67,8.16,6.08,11.88.91,1.41,1.86,2.88,2.8,4.46,3.25,5.48,6.58,12,6.6,19.07Z"/><circle class="cls-12" cx="876.56" cy="478.41" r="1.16"/><circle class="cls-12" cx="878.89" cy="465.19" r="0.97"/><path class="cls-12" d="M869.19,459.65a.88.88,0,1,1-1.75,0,.88.88,0,0,1,1.75,0Z"/><path class="cls-12" d="M871.13,450.51a.88.88,0,1,1-.88-.87A.87.87,0,0,1,871.13,450.51Z"/><path class="cls-3" d="M784.46,593.74a5.47,5.47,0,0,1-5.41-4.74l-5.58-42.08c-.76-5.61-1.71-12.58,1-17.52,1.86-3.4,4-6.92,7.25-9.21,6-4.17,13.17-7,20.1-9.69,8.61-3.37,16.75-6.56,22.44-12.09l.54.56c-5.81,5.64-14,8.85-22.7,12.25-6.88,2.7-14,5.49-19.94,9.61-3.15,2.19-5.19,5.62-7,8.95-2.59,4.71-1.66,11.54-.91,17l.15,1.15,5.43,40.92a4.69,4.69,0,0,0,4.64,4.07Z"/><path class="cls-13" d="M409.9,319.84A15,15,0,0,1,407,331.23c-1.53,7.52-7.55,13.8-14.72,15.36-6.73-2.89-11.33-10.54-10.93-18.17s5.8-14.7,12.8-16.78c3.89-1.16,8.5-.69,11.31,2.36Z"/><path class="cls-14" d="M398.69,311.07a14,14,0,0,0-4.5.57c-7,2.08-12.39,9.14-12.8,16.78s4.2,15.28,10.93,18.17a17.3,17.3,0,0,0,2-.58C391.88,334,391.65,320.81,398.69,311.07Z"/><path class="cls-13" d="M366,351.55c-.75-.85,0-2.17.64-3.09,5.52-7.41,9.5-15.57,10.87-24.72,5.61,2.35,11.18,3.37,17.2,4.29a202.33,202.33,0,0,0-5.26,30.51l-22.22-6.37A2.49,2.49,0,0,1,366,351.55Z"/><path class="cls-4" d="M414.73,319a9.72,9.72,0,0,0,6.52-7.46,10.35,10.35,0,0,1-7.3,1,2.39,2.39,0,0,0,1.87-.81,15.27,15.27,0,0,1-7.9-3.41c-2.33-1.74-4.44-3.78-6.89-5.34a12.12,12.12,0,0,0-8.25-2.19,8.48,8.48,0,0,0-1,.27,13.52,13.52,0,0,0-5,.28c-5.55,1.44-9.48,6.75-10.73,12.36s-1.88,12.2-.37,17.74c5.65,2.69,13.93,2.49,19.93.7a24.72,24.72,0,0,0,2.45-.88,23,23,0,0,0,.67-3.42,7,7,0,0,1,1.51-3.7,2.63,2.63,0,0,1,4.78,1.67,5.26,5.26,0,0,1-.08,1.19,26.14,26.14,0,0,0,3.26-3.31,11.54,11.54,0,0,0,10.46-5.1A10.83,10.83,0,0,1,414.73,319Z"/><path class="cls-14" d="M402.48,328a4.51,4.51,0,0,1,.8-.7,1.93,1.93,0,0,0,.56-2.08,1.53,1.53,0,0,0-1.88-.88,1.94,1.94,0,0,0-1.06,1.81,6.43,6.43,0,0,0,.49,2.32.93.93,0,0,0-1.1,0,.91.91,0,0,0-.28,1,2.88,2.88,0,0,0,.49.67.78.78,0,0,1,.2.76c-.06.16-.2.27-.27.43s-.06.38.1.42a.37.37,0,0,0,.3-.09,3.46,3.46,0,0,0,1.32-2.25A3.19,3.19,0,0,1,402.48,328Z"/><path class="cls-9" d="M399.72,308.8c.67.39.58,1.44,1.09,2s1.67.51,2.57.52a6.72,6.72,0,0,1,4.43,2,20,20,0,0,1,3,4c.59-.92,1.17-1.85,1.75-2.77l-17.81-10.39c.3,1.47.59,2.93.89,4.4a1.5,1.5,0,0,0,.29.75c.46.53,1.31.24,1.9-.12S399.11,308.45,399.72,308.8Z"/><path class="cls-3" d="M332.22,627.2A14.28,14.28,0,0,0,327,626a10.25,10.25,0,0,1-4.28-1.43,3.84,3.84,0,0,1-2.06-3.93A25.42,25.42,0,0,1,310,617c0,3-1.91,5.61-2.72,8.45a7.11,7.11,0,0,0-.13,2.33,11.38,11.38,0,0,0,.37,5.79,18.06,18.06,0,0,0,11.21,2.23,10.52,10.52,0,0,1,.45-1.86,12.78,12.78,0,0,1,5.46-.47c2,.34,2.77.72,4.08.59a8.77,8.77,0,0,0,2.76-1.12,4.92,4.92,0,0,0,2.57-2.77C334.39,628.62,333.59,628,332.22,627.2Z"/><path class="cls-12" d="M319.94,623.25a44.7,44.7,0,0,0-9.28-3.57,7.65,7.65,0,0,0-1,2,2.63,2.63,0,0,0,.28,2.19,3.18,3.18,0,0,0,1.87,1.08A9.43,9.43,0,0,0,319.94,623.25Z"/><path class="cls-9" d="M314.76,586.82c-1.48,3.8-3.51,17.43-5.49,22.32-1.53,3.78-3,5.79-.76,9.17s9.48,7.06,13.2,5.38c10.35-26.81,22.61-52.87,32.26-79.94s16.7-55.48,16.11-84.22l-46.56-14.8C309,479.59,318.58,490,320,515.47S324.06,563,314.76,586.82Z"/><path class="cls-16" d="M370.08,459.53l-34.15-10.85c-15.5,34.73-1.26,73.52-4.25,109.42a243.49,243.49,0,0,1-15.52,65.4,8,8,0,0,0,5.55.19c10.35-26.81,22.61-52.87,32.26-79.94S370.67,488.27,370.08,459.53Z"/><path class="cls-3" d="M334.8,448.32l35.28,11.21c.59,28.74-6.46,57.15-16.11,84.22-6.3,17.67-13.7,34.91-21,52.2,1.21-6.38,1.81-12.86,2.82-18.92C345.15,532.6,312.15,490.41,334.8,448.32Z"/><path class="cls-3" d="M380.11,643.31a5.65,5.65,0,0,0-4.49-3,35.15,35.15,0,0,0-5.62,0c-7.38.07-14.59-3.75-21.89-2.6,0,3.15-.5,6.32-.15,9.45a14.42,14.42,0,0,0,.31,1.72,35.1,35.1,0,0,0,.61,4.78,5.55,5.55,0,0,0,.79,2.37,4.74,4.74,0,0,0,2.73,1.6,14.5,14.5,0,0,0,11.82-2,2.9,2.9,0,0,0,1-1,2.21,2.21,0,0,0,.23-1,33.17,33.17,0,0,1,3.38-1.22,25.59,25.59,0,0,0,6.23-2.34C377.53,648.74,381.2,645.86,380.11,643.31Z"/><path class="cls-12" d="M365.86,642a1.18,1.18,0,0,1,1.43.9,1.83,1.83,0,0,1-.64,1.7,4.51,4.51,0,0,1-1.69.86,26.73,26.73,0,0,1-8.27.94,13.68,13.68,0,0,1-4.93-.71,5.4,5.4,0,0,1-3.35-3.47,3.4,3.4,0,0,1,2.07-4Z"/><path class="cls-9" d="M326.35,451.14l.92-10.49c14.4,6.6,30.91,13.73,46.55,16.13,0,34.29,3.3,63.52,2.28,95-1,29.23-6,60.73-10.28,91.45-7,1.71-11.85,2.17-18.22-2.43-.34-26-1.86-46.16-.34-57.62s-3.92-39.62-7.32-50.76C329.31,497.53,319.14,492.23,326.35,451.14Z"/><path class="cls-16" d="M358.06,547.22c-2.85-31.42-17.46-65.47-9-97.32-7.52-2.82-14.89-6.09-21.78-9.25l-.92,10.49c-7.21,41.09,3,46.39,13.59,81.25,3.4,11.14,8.84,39.34,7.32,50.76s0,31.65.34,57.62a17.55,17.55,0,0,0,8.36,3.52C358.58,612.06,360.57,579.86,358.06,547.22Z"/><path class="cls-17" d="M362.2,642.33c11.58-57.89,7.59-118.34,2.2-175.07l1.18-.17c4.35,57.68,8.83,117.18-2.53,174.94C362.62,642.12,362.63,642.24,362.2,642.33Z"/><path class="cls-3" d="M355.48,348.55c-5.31-.95-10.54,3.12-12.55,8.14s-1.49,10.68-.47,16c2.82,14.74,9.21,28.68,17.71,41a63.31,63.31,0,0,0,11.67,13.34c11.58,9.49,27.16,12,42,14.2l4.36-9.58a92.41,92.41,0,0,1-38.89-40.34c-5.84-11.88-9-24.85-12.19-37.7Z"/><polygon class="cls-3" points="436.45 456.75 406.72 456.75 418.89 407.05 448.62 407.05 436.45 456.75"/><polygon class="cls-11" points="435.07 448.98 410 448.98 420.26 407.05 445.34 407.05 435.07 448.98"/><path class="cls-2" d="M420.26,407.05l-9.47,38.69c8-9.45,17.26-16.54,29.19-16.78l5.36-21.91Z"/><path class="cls-4" d="M357.64,347.89a20,20,0,0,0,7.67-8.83,36,36,0,0,1,29.16,18.78l-14.91-5.65c-6.26-2.38-12.7-4.79-19.4-4.69Z"/><path class="cls-4" d="M379.42,478.48c.43-4.93-1.61-15.73-.74-32.29.39-13.35,1-8.34,1.3-12.46.74-10.07,4-13.43,9-22.21,3.79-6.69,9.59-18,13.54-24.59s6-15.26,2.05-21.86c-2.44-4.07-6.72-6.63-10.93-8.79a136.88,136.88,0,0,0-19.32-8.13c-7.43-2.48-16.19-4.13-22.62.35a48.75,48.75,0,0,0-12.08,13.16c-14.71,24.6-12.74,33.55-20.35,76.06-.62,3.49-12,27.64-13.71,35.32a98.33,98.33,0,0,0,11.29,3.65,132.2,132.2,0,0,1,8.33-29.12c0,11.51-3.26,19.49-2.59,30.42C340.78,481.64,360.15,480.82,379.42,478.48Z"/><path class="cls-18" d="M361.16,348.68a97.07,97.07,0,0,1,24.48,5,44.69,44.69,0,0,0-23.55-7.52,3.36,3.36,0,0,0-1.86.32,1.22,1.22,0,0,0-.5,1.63A1.8,1.8,0,0,0,361.16,348.68Z"/><path class="cls-16" d="M356.84,347.19a21.44,21.44,0,0,0-12,9.75Z"/><path class="cls-16" d="M396.76,362.81,390.12,372A14.24,14.24,0,0,1,396.76,362.81Z"/><path class="cls-18" d="M369.48,479.53c3.31-.3,6.63-.65,9.94-1,.43-4.93-1.61-15.73-.74-32.29.39-13.35,1-8.34,1.3-12.46.74-10.07,4-13.43,9-22.21,3.79-6.69,9.59-18,13.54-24.59,3.67-6.13,5.69-14,2.8-20.41C364.86,388.06,365.32,435.72,369.48,479.53Z"/><path class="cls-13" d="M423.09,368.43a31.65,31.65,0,0,1,7.38-3,16.94,16.94,0,0,1-1.68-8.34c.1-1.64.35-3.53-.8-4.7a5.11,5.11,0,0,0-2.48-1.14l-6.18-1.54c-2.05-.52-2.65.12-3.75-1.67-.44-.71-2.29-2.84-2.82-3.48s-1.94-3.42-3.29-2.16c-.62.58.79,3.33,1.13,4.12.85,2,1.71,4,2.57,6,.68,1.6,1.12,2.68-.16,3.85-.46.41-1.53.43-2,.78s-.35,2.15-.14,2.73a1.72,1.72,0,0,0,.78.82Z"/><path class="cls-15" d="M432.58,365.76c-.8-1.51-1.61-3-2.42-4.52a13.71,13.71,0,0,0-9.59,3.57,2,2,0,0,0-.8,1.42,2.07,2.07,0,0,0,.29.82c1,2,2.08,4.05,3.13,6.07a17.45,17.45,0,0,1,10-5.67Z"/><path class="cls-4" d="M445.51,426.37c2.74-1,4.56-3.64,5.5-6.39,1.77-5.18,1-10.93-.68-16.13s-4.36-10-6.48-15.08C441,381.9,439,374.63,435.67,368c-.72-1.42-1.52-3-3-3.66-1.84-.82-4.11.15-6.39.44-1.58.21-3,1.84-4.56,2.54a2.38,2.38,0,0,0-1.3,2.74,229.63,229.63,0,0,1,5.63,29.19c.63,5.31,1.09,10.72,3,15.71s5.56,9.62,10.63,11.3A9,9,0,0,0,445.51,426.37Z"/><path class="cls-18" d="M421.74,367.29a2.38,2.38,0,0,0-1.3,2.74,229.63,229.63,0,0,1,5.63,29.19c.63,5.31,1.09,10.72,3,15.71s5.56,9.62,10.63,11.3l.28.07c-1.3-21-7.11-41.78-15.34-60.89A28.87,28.87,0,0,1,421.74,367.29Z"/><path class="cls-4" d="M388.26,381.68a27.27,27.27,0,0,1,11.05-17.89,5.75,5.75,0,0,1,4.14-1.4,6.26,6.26,0,0,1,3.05,1.91C417.63,375,426,388.35,437.19,399c3.06,2.92,6.34,5.66,8.9,9s4.36,7.54,3.93,11.75-3.6,8.29-7.8,8.79c-3.22.39-6.33-1.27-9-3.12-4.75-3.29-8.93-7.34-13.29-11.13a155.77,155.77,0,0,0-22.85-16.43c-2.53-1.49-5.19-3-6.9-5.38C388,389.47,387.68,385.4,388.26,381.68Z"/><path class="cls-16" d="M440,401.37a20.35,20.35,0,0,1,6.94,15.72A12.86,12.86,0,0,0,440,401.37Z"/><path class="cls-18" d="M438.76,424.37c-13-19.59-35.93-27.12-50.28-43.78-.07.36-.17.72-.22,1.09-.58,3.72-.28,7.79,1.92,10.85,1.71,2.39,4.37,3.89,6.9,5.38a155.77,155.77,0,0,1,22.85,16.43c4.36,3.79,8.54,7.84,13.29,11.13,2.43,1.68,5.21,3.19,8.12,3.16Q440,426.58,438.76,424.37Z"/><path class="cls-18" d="M326,441.49a180.52,180.52,0,0,1,23-80.7A161.53,161.53,0,0,0,326,441.49Z"/><path class="cls-3" d="M627.19,622.71c-2.12,4.61,1.1,8.71,1.11,12.87,4.55.25,8,.11,12.57.36v-3a41.72,41.72,0,0,0,27.25,2.08c.28-2.2-1.42-4.24-3.4-5.15s-4.22-1-6.38-1.25a21.69,21.69,0,0,1-9.34-3.17,13.09,13.09,0,0,1-5.73-8l-12.44,1.2a4.24,4.24,0,0,0-3,1.12C627.22,620.6,627.61,621.79,627.19,622.71Z"/><path class="cls-11" d="M631.8,624.77a25.3,25.3,0,0,0,10.13.77,1.76,1.76,0,0,0,1.39-.68,1.85,1.85,0,0,0,0-1.21l-.81-4.19a100.71,100.71,0,0,0-13.92,3.13C629.16,623.83,630.53,624.41,631.8,624.77Z"/><path class="cls-4" d="M580.08,410.11c-.3,14.9,3.56,29.24,6.39,42.78,12.2,58.34,25.28,113.4,38.74,172.54,4.93-1.71,15.19-3.52,20.12-5.22-3.88-71.6-12.19-139.71-24.22-210.1Z"/><path class="cls-18" d="M580.08,410.11c-.3,14.9,3.56,29.24,6.39,42.78,12.2,58.34,25.28,113.4,38.74,172.54,2.62-.91,6.73-1.84,10.76-2.77C625,549.86,605,480,581.45,410.11Z"/><path class="cls-8" d="M629.37,623.93c-2.17-10.63-4.21-19.72-6.24-29.75-9.83-48.61-17.93-90.37-30.23-140.78l.54-.46c12.31,50.44,20.8,92.43,30.63,141.05,2,10,3.65,19.06,5.82,29.68Z"/><path class="cls-3" d="M564.45,644.56c1.53-1,1.59-3.28,1.48-5.16l-.45-7.85a3.91,3.91,0,0,0-.64-2.32,3.68,3.68,0,0,0-3-.86l-15.12.1q-4,10.14-8,20.28c-.52,1.34-1,3-.11,4.11a8.31,8.31,0,0,0,4.25,1.8,77,77,0,0,0,8.73.13c1.51,0,6.71-2.23,7.52-3.53,1.18-1.87-.25-3.42,1.24-5C561.43,645.13,563.23,645.39,564.45,644.56Z"/><path class="cls-11" d="M550.06,635.8l4.05.28a17,17,0,0,0,5.69-.23,5.94,5.94,0,0,0,4.21-3.61,32.18,32.18,0,0,0-14-1.76,6,6,0,0,0-2.61.7,2.24,2.24,0,0,0,.24,4.15A7,7,0,0,0,550.06,635.8Z"/><path class="cls-4" d="M554.8,410.11l-.52,5.19c-4.69,44-8.65,72.81-8.92,109.06S546.66,597,542.65,633a85.68,85.68,0,0,1,25.06,1.13c5.78-68.39,18.09-127.24,28.82-190.35,1.6-9.37.79-21.51-.41-33.65Z"/><path class="cls-18" d="M563.68,467.91c9.8-26.66,22.5-2.72,30.86-57.8H554.8l-.52,5.19c-4.69,44-8.65,72.81-8.92,109.06S546.66,597,542.65,633c2.15-.22,4.31-.35,6.47-.41C548.72,584.56,546.83,512.94,563.68,467.91Z"/><path class="cls-8" d="M563.55,632.35l-.64-.29c5-62.48,15.73-118.25,30.25-182.77l.65.35C579.29,514.12,568.56,569.93,563.55,632.35Z"/><path class="cls-11" d="M585.41,424.23c0-1.41.05-3-.08-4.52-8.94.36-17.88,1-26.79,1.82q-1.17,3.77-2.33,7.53a273.79,273.79,0,0,1,29.27-3.13C585.46,425.36,585.43,424.8,585.41,424.23Z"/><path class="cls-11" d="M587.21,419.64c.11,1.54,0,3.13.08,4.59,0,.54.05,1.08.07,1.61l2.94-.12c0-2.06,0-4.13.05-6.2C589.3,419.56,588.26,419.61,587.21,419.64Z"/><path class="cls-11" d="M610.11,425.76c3.8.14,7.6.34,11.39.65l-1.17-6.81c-3.44-.12-6.88-.18-10.32-.22C610.05,421.51,610,423.64,610.11,425.76Z"/><path class="cls-11" d="M608.24,425.7c-.07-2.11-.06-4.22-.11-6.33l-3.61,0a25.78,25.78,0,0,1,.46,6.27C606.07,425.63,607.15,425.66,608.24,425.7Z"/><path class="cls-7" d="M602.63,419.34c-3.47,0-6.93.05-10.39.14,0,2.06-.07,4.12,0,6.18,3.68-.11,7.36-.11,11-.07A21,21,0,0,0,602.63,419.34Z"/><path class="cls-4" d="M580,322.6a2.94,2.94,0,0,1,0,1.71l-2.07,9.18c-5.35-4-5.53-12.27-10.17-17.1l10.63,4.87A3,3,0,0,1,580,322.6Z"/><path class="cls-12" d="M607.16,314c-18.83-7.65-36.29-8.36-56.69-6.21-5.09.54-10.62,1.63-13.81,5.38-3.72,4.34-2.95,10.59-1.81,16.05,6.41,30.54,18.72,60.51,17.6,91.61a322.26,322.26,0,0,1,70-3.06c-5.51-25.75-6.54-49.1-1.91-75,1.07-6,.3-14.5-3.66-19.36C614.76,320.78,610.41,315.34,607.16,314Z"/><path class="cls-13" d="M582.79,288c-6,1.06-15.36,1.59-21.32.51,1.67,8.45,2.61,12.14-.3,20.24,37.46,9.77,27.1,7.63,27.8,5.25C583.8,306.45,583.78,297.08,582.79,288Z"/><path class="cls-14" d="M589,314c-5.17-7.54-5.19-16.91-6.18-26a77.13,77.13,0,0,1-19,.84,174.46,174.46,0,0,0,5.66,22.08C597,318.15,588.33,316.18,589,314Z"/><path class="cls-4" d="M585.6,306.91c-1.89-6-2.11-12.51-2.81-18.92a78.38,78.38,0,0,1-18.56.88C565.19,300.24,575,306,585.6,306.91Z"/><path class="cls-13" d="M577,263a15.05,15.05,0,0,0-10.23-.56c-3.75,1.06-8.41,2.26-10.93,5.63s-2.32,7.81-1,11.65a27.25,27.25,0,0,0,14.58,16.38c7.11,3.09,12.08,2.81,17.93,1.75a3.62,3.62,0,0,0,3-3.88c-.4-4.46-.6-8.73-2.15-12.78-.51-1.36-1.86-2.36-2.26-3.65s.19-2.64-.33-4.05C583.76,268.69,581.47,265,577,263Z"/><path class="cls-14" d="M573.76,297.59c4.93,1.37,9,1,13.55.21a3.62,3.62,0,0,0,3-3.88l-.18-2.08C585.23,296.92,579.6,298.23,573.76,297.59Z"/><path class="cls-14" d="M566,273.53c5.63-.26,7.18-.38,11.84-1.94a8.44,8.44,0,0,0,5.56-2.72,13.81,13.81,0,0,0-6.47-5.94c-4.1-1.82-8.87-1-13.15.33-3,.94-6.07,2.24-7.95,4.76-2.44,3.25-2.32,7.81-1,11.65A27.73,27.73,0,0,0,566,294.21C566.07,287.3,562.13,280.21,566,273.53Z"/><path class="cls-4" d="M586.58,253a9.81,9.81,0,0,1-4.56,4.55,5,5,0,0,0,1.27-3.13c-1.89,2.62-5.12,4-8.3,4.52s-6.44.47-9.65.9-6.49,1.45-8.7,3.81c-2.46,2.61-6,6.17-4.83,10.15a8,8,0,0,0-1.6,6.38c.62,2.88,2.94,5.06,5.34,6.75s5.06,3.11,7,5.36a23,23,0,0,0,.93-6.36c.86.67,1.68,1.4,2.48,2.14a1.12,1.12,0,0,0,1.19-1,9.65,9.65,0,0,0-.9-3.17c-.79-1.35-1.44-1-2.21-2.39a8.73,8.73,0,0,1-.57-1.24,26.91,26.91,0,0,1,.89-8c.27,0,.53-.08.8-.1,4.28-.42,8.68-.49,12.69-2.06s7.62-5.09,7.75-9.4l-2.08,1.84A17.9,17.9,0,0,0,586.58,253Z"/><path class="cls-13" d="M567.41,287.71c-.12-1-4.83-3.79-5.74-3.49a2.57,2.57,0,0,0-1.62,2.2,5.48,5.48,0,0,0,.58,2.8,12.85,12.85,0,0,0,2.12,3.32,5.1,5.1,0,0,0,2.4,1.68,2.34,2.34,0,0,0,2.61-.91Z"/><path class="cls-4" d="M620.56,342.78c1.07-6,.3-14.5-3.66-19.36-2.14-2.64-6.49-8.08-9.74-9.4a99.1,99.1,0,0,0-10.22-3.52c12.6,34.11,9.7,70.72,11.06,106.68q7.25.13,14.47.61C617,392,615.93,368.69,620.56,342.78Z"/><path class="cls-4" d="M599.22,417.59a.34.34,0,0,1-.31-.18.35.35,0,0,1,.14-.49l5.57-3.13a2.14,2.14,0,0,0-1.77-.77.36.36,0,0,1-.39-.31.37.37,0,0,1,.3-.4c1.54-.24,2.5-1.92,2.63-3.37a12,12,0,0,0-.75-4.38l-.14-.46c-2.67-8.93-2.9-18.36-3.13-27.48-.16-6.53-1-14-1.72-21.29s-1.56-14.78-1.73-21.34a.36.36,0,0,1,.35-.37h0a.36.36,0,0,1,.36.35c.16,6.54,1,14,1.72,21.29s1.56,14.78,1.73,21.35c.22,9.07.46,18.44,3.09,27.29l.14.46a12.41,12.41,0,0,1,.78,4.64,4.76,4.76,0,0,1-2,3.54,2.82,2.82,0,0,1,1.33,1.2.37.37,0,0,1-.14.49l-5.91,3.32A.39.39,0,0,1,599.22,417.59Z"/><path class="cls-4" d="M596.44,322.14c-1.07,1.65-.94,5.17-2.69,6.06,4,22.82,4.36,42,.41,64.86,4.47,3.54,7.94,5.17,11,7.31.35-6,2.5-6.48,2.47-9.43,0-2.71-.81-6.42-1.53-12.39C603.81,360,601.92,340,596.44,322.14Z"/><path class="cls-8" d="M556.46,304.5c-.85.06-1.88,2.75-2.74,2.83-1.69.14-1.53.36-3.25.56-5.09.57-10.62,1.75-13.81,5.76-3.72,4.66-2.45,11.28-1.81,17.21,4.48,41.27,23.6,57.4,13.81,120.5,7.72-1.27,17.89-3.52,27.05-4.92a11.31,11.31,0,0,0,9.59-11.83c-1.7-30.18-2.76-72.67-6.47-99.93C577.17,322.17,567,310.79,556.46,304.5Z"/><path class="cls-2" d="M554.47,422.91A27.83,27.83,0,0,0,574.54,409,198.5,198.5,0,0,1,554.47,422.91Z"/><path class="cls-4" d="M534.31,325.92c.15,1.66.37,3.32.54,4.94a161.45,161.45,0,0,0,4.42,23.56c8.28,19.19,24.84,33.62,44.2,42.08-.58-12.13-1.23-24.48-2.08-35.95C561.16,354,542.71,344.34,534.31,325.92Z"/><path class="cls-4" d="M582.59,442.77a.35.35,0,0,1-.35-.35,391,391,0,0,0-14.6-90.59.37.37,0,0,1,.05-.29.3.3,0,0,1,.23-.16,20.18,20.18,0,0,0,7-2.75l-6.66-.87a.35.35,0,0,1-.25-.14.38.38,0,0,1-.06-.29,39.74,39.74,0,0,0-14.91-39.64.36.36,0,1,1,.42-.58,40.48,40.48,0,0,1,15.27,40L576,348a.36.36,0,0,1,.16.65,20.82,20.82,0,0,1-7.7,3.32A392,392,0,0,1,583,442.39a.36.36,0,0,1-.34.38Z"/><path class="cls-4" d="M549,450.83a.37.37,0,0,1-.32-.19.36.36,0,0,1,.15-.48c4.57-2.44,9.86-2.93,15-3.41l2.31-.22c5.57-.56,11.83-1.7,16-5.88a.36.36,0,1,1,.51.51c-4.33,4.33-10.74,5.51-16.44,6.09l-2.31.22c-5,.47-10.26.95-14.7,3.32A.35.35,0,0,1,549,450.83Z"/><path class="cls-4" d="M554.66,421.72a.34.34,0,0,1-.3-.17.37.37,0,0,1,.11-.5c6.73-4.15,13.39-8.6,19.8-13.21a.36.36,0,0,1,.42.58c-6.43,4.63-13.1,9.08-19.84,13.24A.33.33,0,0,1,554.66,421.72Z"/><path class="cls-15" d="M609.76,315.57c10.09,8.61,9.55,15.46,14.75,27.67,3.4,8,7.12,19.38,8.16,28,.88,7.28-.88,16.37-2.2,23.59-2.86,15.64-2.82,29.36-7.21,44.65-4.3-5.19-8.87-8.67-9.46-15.39a31.74,31.74,0,0,1,.67-8.12c1.64-9.31,3.83-18.68,3.17-28.12s-4.06-18.23-6.3-27.32c-3.25-13.17-4.06-26.8-4.86-40.35Z"/><path class="cls-4" d="M607.5,335.3a161,161,0,0,0,3.84,25.22c2.24,9.09,5.65,18,6.3,27.32s-1.53,18.81-3.17,28.12a31.74,31.74,0,0,0-.67,8.12c.59,6.72,5.16,10.2,9.46,15.39.31-1.08.59-2.16.86-3.23C624.84,401,626.19,365.81,607.5,335.3Z"/><path class="cls-15" d="M593.73,367.17c1.26-7.69-1.29-9.8-6-16s-9.18-5.78-15.41-10.45c-7.91-5.91-15.87-20.31-23.78-26.23a16.69,16.69,0,0,0-6.17-3.38c-4.53-1-9.24,2.11-11.29,6.28s-1.89,9.11-1,13.66c2.15,10.47,8.16,19.86,15.71,27.4s16.64,13.36,25.93,18.6c5.19,2.93,11.41,5.75,16.89,3.4C592.82,378.67,593,371.7,593.73,367.17Z"/><path class="cls-2" d="M533.47,334.43A22.44,22.44,0,0,1,540,314.26c-1.65-.9-3.67.29-4.94,1.67a15.14,15.14,0,0,0-1.58,18.5Z"/><path class="cls-2" d="M544.79,318.23a1.46,1.46,0,1,0-2.73-.85,1.46,1.46,0,0,0,2.73.85Z"/><path class="cls-4" d="M570.89,341.24A25.5,25.5,0,0,0,578,374.13a41.31,41.31,0,0,1-.43-29.16Z"/><path class="cls-13" d="M586.38,295a14.2,14.2,0,0,1,4.44-1,17.6,17.6,0,0,1,6.14-.05c2.19.52,3.64,1.91,5.57,2.58a1.55,1.55,0,0,1,1,1.94c-.3.9-.57,1.74-.92,2.78-.21.6.06,1.69-.55,1.87a1.38,1.38,0,0,1-1.54-.95,4,4,0,0,1,0-2,16.33,16.33,0,0,1-5,3.45,18.08,18.08,0,0,0-.09,6.31c-3.31-.32-6.61-.79-9.87-1.42a2.84,2.84,0,0,1-2.11-1.1,2.77,2.77,0,0,1-.24-1.37c0-2.51.67-4.57.64-7.08C584.42,297.39,584.9,295.68,586.38,295Z"/><path class="cls-14" d="M583.45,302.23a23.52,23.52,0,0,0-.34,3.74,2.77,2.77,0,0,0,.24,1.37,2.84,2.84,0,0,0,2.11,1.1c3.26.63,6.56,1.1,9.87,1.42a18,18,0,0,1-.16-4.34A55.32,55.32,0,0,1,583.45,302.23Z"/><path class="cls-15" d="M587,382.1c3.17-.78,5.53-3.58,6.68-6.64s1.26-6.4,1.37-9.67c.6-18.35,2.07-39.36,2.67-57.71-4-1.25-13.43-1.76-17.44-3-2.11,20.5-9.6,41.8-6.77,62.3.51,3.73,1.41,7.55,3.67,10.57S583.29,383,587,382.1Z"/><path class="cls-2" d="M580,317.31c-2.47,9.32-4.93,18.68-6.18,28.24s-1.22,19.4,1.24,28.72A210.14,210.14,0,0,1,580,317.31Z"/><path class="cls-4" d="M597.26,314.11A51.48,51.48,0,0,1,579.63,311a.36.36,0,0,1,.24-.68,50.58,50.58,0,0,0,17.39,3.08h.26a.35.35,0,0,1,.36.35.36.36,0,0,1-.36.36Z"/><path class="cls-8" d="M622.06,444c1.61.26,3.2.49,4.73.6-5.51-27.6-10.86-71.47-6.23-99.22,1.07-6.46,1.31-15.87-2.65-21.08-2.14-2.83-6.88-9-10.13-10.39a117.19,117.19,0,0,0-11.1-3.77c2.79,4.33,6.15,9.8,6.82,14.48,5.42,29.88,5.38,76.85,9.07,109.43A11.34,11.34,0,0,0,622.06,444Z"/><path class="cls-4" d="M616.72,440.55a.36.36,0,0,1-.36-.32c-2.27-23-3.36-62.21-1.41-84.31l-4.93.8a.35.35,0,0,1-.39-.22.37.37,0,0,1,.13-.43l6.06-4.24a134.55,134.55,0,0,0-15-39.36.36.36,0,0,1,.62-.36,135.39,135.39,0,0,1,15.12,39.8.37.37,0,0,1-.15.37l-5,3.48,3.83-.62a.35.35,0,0,1,.31.09.34.34,0,0,1,.11.29c-2,22-.92,61.51,1.36,84.64a.36.36,0,0,1-.32.39Z"/><path class="cls-4" d="M625.46,443.32a16.33,16.33,0,0,1-9.6-3.12.36.36,0,1,1,.42-.58,15.65,15.65,0,0,0,9.83,3,.36.36,0,1,1,0,.72Z"/><path class="cls-4" d="M621.13,415.69a.35.35,0,0,1-.23-.09L617.66,413a.35.35,0,0,1,0-.51.36.36,0,0,1,.5-.05l3.24,2.66a.35.35,0,0,1,.06.5A.38.38,0,0,1,621.13,415.69Z"/><path class="cls-14" d="M561.45,286.08a6.9,6.9,0,0,1,3.07,1.83.9.9,0,0,1,.26.41c.05.32-.24.58-.39.87a1.13,1.13,0,0,0,.59,1.51c.3.1.74.18.73.5s-.18.3-.31.42a1.44,1.44,0,0,0-.36,1.51,5.7,5.7,0,0,1-1.74-1.49,2,2,0,0,1-.13-2.18c.06-.09.14-.2.08-.29a.3.3,0,0,0-.21-.08,2,2,0,0,1-1.59-3Z"/></g></g></svg>