<svg xmlns="http://www.w3.org/2000/svg" viewBox="0 0 750 500"><defs><style>.cls-1{fill:#fff;}.cls-2{fill:#a4b0bc;}.cls-3{fill:#c7d3dd;}.cls-4{fill:#022a44;}.cls-5{fill:#352f6c;}.cls-6{fill:#92a1ad;}.cls-7{fill:#708491;}.cls-8{fill:#ffd255;}.cls-9{fill:#7d95c9;}.cls-10{fill:#2070b4;}.cls-11{fill:#faa701;}.cls-12{fill:#e8e9eb;}.cls-13{fill:#e7a988;}.cls-14{fill:#d88568;}.cls-15{fill:#98a9d8;}.cls-16{fill:#22619c;}.cls-17{fill:#27b2e4;}.cls-18{fill:#292666;}</style></defs><g id="BACKGROUND"><rect class="cls-1" width="750" height="500"/></g><g id="OBJECTS"><path class="cls-2" d="M592,408.33H189.62c-50.09,5.73-81,13.59-81,22.26,0,17.53,126.34,31.74,282.2,31.74S673,448.12,673,430.59C673,421.92,642.09,414.06,592,408.33Z"/><path class="cls-3" d="M680.52,409c2.4-7.64,0-17.13-4-24.56-5.25-9.81-12.81-18.91-14.06-30-2.39-21,18.74-38.84,17.86-60-1-25.22-32.31-41.46-32.43-66.71-.1-23.65,27.69-41.89,23.82-65.21-3.47-20.89-28.71-28.49-44-43-15-14.23-17.75-38.78-33.62-52.11-12.56-10.55-26.51-18.21-43.29-18.64-11-.28-20.25,3.11-30.69,5.76-26.88,6.83-54.39-11.89-80-17.22a144.69,144.69,0,0,0-61.31.77c-14.36,3.33-28.22,8.45-42.47,12.21-14.48,3.82-26.18,3.85-40.78.66C261.4,43.56,209,65,185,85.5c-26.61,22.73-27.8,52.06-40.36,85-12.16,31.84-15.27,66.83-29.23,97.92-7.69,17.13-18.54,32.73-25.51,50.18A125,125,0,0,0,89.48,409Z"/><path class="cls-4" d="M523.78,439.51a4.41,4.41,0,0,0,4.14-6c-3.37-8.3-12.89-14-21.95-16.7-15.94-4.79-32.86-4.71-49.48-5.45s-33.75-2.52-48.36-10.5a52.47,52.47,0,0,1-12.93-10V290.83H371V390.88a52.52,52.52,0,0,1-12.94,10c-14.6,8-31.72,9.75-48.35,10.5s-33.55.66-49.49,5.45c-9.05,2.71-18.57,8.4-21.94,16.7a4.41,4.41,0,0,0,4.14,6H249l-.35-.05c.27-2.7,2.41-4.91,4.86-6.05s5.21-3,7.91-3.23c13.26-1.17,230.15-1.17,243.41,0,2.69.24,5.45,2.09,7.91,3.23s4.59,3.35,4.86,6.05l-.35.05Z"/><rect class="cls-5" x="376.94" y="357.35" width="14" height="43" rx="6.93"/><path class="cls-4" d="M635.48,388.27a1730.57,1730.57,0,0,0-512,0,7.48,7.48,0,0,1-8.6-7.39V71.14a7.48,7.48,0,0,1,8.6-7.39,1729.9,1729.9,0,0,0,512,0,7.48,7.48,0,0,1,8.6,7.39V380.88A7.48,7.48,0,0,1,635.48,388.27Z"/><path class="cls-2" d="M629.94,386.35a1667,1667,0,0,0-509.82,0V71.22a1666.7,1666.7,0,0,0,509.82,0Z"/><rect class="cls-6" x="490.27" y="85.02" width="120.5" height="71"/><path class="cls-3" d="M124.55,68.45V383.58q20.27-3.13,40.56-5.74l79-295.32Q184.24,77.65,124.55,68.45Z"/><path class="cls-6" d="M210.32,295.48A92.75,92.75,0,0,1,168.44,289c-19.49-8.47-30.95-25.63-43.89-40.93V383.58a1666.7,1666.7,0,0,1,509.82,0V132.45c-122.54,52.32-244.53,99.82-369.28,148C246.83,288,229.65,294.41,210.32,295.48Z"/><rect class="cls-7" x="271.21" y="86.52" width="214.02" height="213.24"/><rect class="cls-6" x="123.98" y="130.94" width="142.95" height="117.25"/><rect class="cls-7" x="490.77" y="174.02" width="143.5" height="122.5"/><rect class="cls-5" x="498.08" y="163.81" width="189.72" height="125.29"/><path class="cls-8" d="M537.44,178.59a21.72,21.72,0,1,0,21.72,21.72A21.73,21.73,0,0,0,537.44,178.59Zm0,34.87a13.15,13.15,0,1,1,13.15-13.15A13.15,13.15,0,0,1,537.44,213.46Z"/><path class="cls-9" d="M537.44,213.46a13.14,13.14,0,0,1-13.14-12.75h-8.57a21.71,21.71,0,0,0,43.42,0h-8.57A13.14,13.14,0,0,1,537.44,213.46Z"/><path class="cls-10" d="M548,181.35l-3.75,7.73a13.12,13.12,0,0,1,6.31,11.23c0,.13,0,.27,0,.4h8.57c0-.14,0-.27,0-.4A21.71,21.71,0,0,0,548,181.35Z"/><path class="cls-8" d="M588.84,178.59a21.72,21.72,0,1,0,21.72,21.72A21.72,21.72,0,0,0,588.84,178.59Zm0,34.87A13.15,13.15,0,1,1,602,200.31,13.15,13.15,0,0,1,588.84,213.46Z"/><path class="cls-8" d="M588.84,187.16a13.15,13.15,0,0,1,9.75,4.33l6.33-5.77A21.68,21.68,0,0,0,577.16,182l5.3,6.81A13.12,13.12,0,0,1,588.84,187.16Z"/><path class="cls-9" d="M610.54,199.51a21.64,21.64,0,0,0-5.62-13.79l-6.33,5.77a13.16,13.16,0,0,1,3.38,8Z"/><path class="cls-9" d="M582.46,188.82l-5.3-6.81a21.66,21.66,0,0,0-10,17.5c0,.27,0,.53,0,.8a21.67,21.67,0,0,0,5.7,14.67l6.33-5.77a13.14,13.14,0,0,1-3.47-8.9c0-.27,0-.53,0-.8A13.18,13.18,0,0,1,582.46,188.82Z"/><path class="cls-10" d="M610.56,200.31c0-.27,0-.53,0-.8H602c0,.27,0,.53,0,.8a13.11,13.11,0,0,1-3.57,9l5.3,6.81A21.65,21.65,0,0,0,610.56,200.31Z"/><path class="cls-8" d="M640.25,178.59A21.72,21.72,0,1,0,662,200.31,21.72,21.72,0,0,0,640.25,178.59Zm0,34.87a13.15,13.15,0,1,1,13.15-13.15A13.15,13.15,0,0,1,640.25,213.46Z"/><path class="cls-9" d="M653.4,200.31a13.15,13.15,0,0,1-6.24,11.19l6,6.29a21.72,21.72,0,0,0,1.7-33.57l-6.18,6A13.11,13.11,0,0,1,653.4,200.31Z"/><rect class="cls-11" x="509.55" y="261.93" width="24.34" height="3.59"/><rect class="cls-2" x="509.55" y="269.85" width="12.55" height="1.46"/><rect class="cls-2" x="524.14" y="269.85" width="8.01" height="1.46"/><polygon class="cls-2" points="527.61 273.74 527.61 274.71 526.8 274.71 526.8 273.74 513.84 273.74 513.84 275.2 533.14 275.2 533.14 273.74 527.61 273.74"/><rect class="cls-2" x="509.55" y="273.74" width="3.27" height="1.46"/><rect class="cls-2" x="533.89" y="273.74" width="3.07" height="1.46"/><rect class="cls-2" x="509.55" y="277.63" width="25.37" height="1.46"/><rect class="cls-2" x="509.55" y="281.52" width="18.48" height="1.46"/><rect class="cls-2" x="529.25" y="281.52" width="7.7" height="1.46"/><rect class="cls-6" x="529.33" y="228.87" width="15.24" height="3.62"/><rect class="cls-8" x="529.3" y="235.42" width="15.31" height="1"/><rect class="cls-8" x="529.3" y="239.6" width="15.31" height="1"/><rect class="cls-6" x="581.22" y="228.87" width="15.24" height="3.62"/><rect class="cls-8" x="581.19" y="235.42" width="15.31" height="1"/><rect class="cls-8" x="581.19" y="239.6" width="15.31" height="1"/><rect class="cls-6" x="633.11" y="228.87" width="15.24" height="3.62"/><rect class="cls-8" x="633.08" y="235.42" width="15.31" height="1"/><rect class="cls-8" x="633.08" y="239.6" width="15.31" height="1"/><rect class="cls-1" x="275.37" y="55.34" width="206.52" height="231.25"/><rect class="cls-12" x="313.62" y="62.86" width="52.6" height="6"/><rect class="cls-12" x="442.8" y="62.86" width="23.07" height="6"/><rect class="cls-12" x="442.8" y="76.82" width="23.07" height="1.98"/><path class="cls-8" d="M307.31,186.74A15.29,15.29,0,1,0,322.6,202,15.28,15.28,0,0,0,307.31,186.74Zm0,24.54a9.26,9.26,0,1,1,9.26-9.25A9.25,9.25,0,0,1,307.31,211.28Z"/><path class="cls-8" d="M307.31,195.92a6.11,6.11,0,1,0,6.11,6.11A6.11,6.11,0,0,0,307.31,195.92Zm0,11.49a5.38,5.38,0,1,1,5.38-5.38A5.37,5.37,0,0,1,307.31,207.41Z"/><path class="cls-8" d="M341.21,186.74A15.29,15.29,0,1,0,356.49,202,15.28,15.28,0,0,0,341.21,186.74Zm0,24.54a9.26,9.26,0,1,1,9.25-9.25A9.25,9.25,0,0,1,341.21,211.28Z"/><path class="cls-8" d="M341.21,195.92a6.11,6.11,0,1,0,6.1,6.11A6.12,6.12,0,0,0,341.21,195.92Zm0,11.49a5.38,5.38,0,1,1,5.38-5.38A5.38,5.38,0,0,1,341.21,207.41Z"/><polygon class="cls-8" points="296.82 249.11 296.44 248.18 348.72 226.89 360.08 231.91 374.08 211.72 383.48 217.63 393.68 202.99 394.5 203.56 383.76 218.99 374.36 213.08 360.44 233.16 348.71 227.98 296.82 249.11"/><rect class="cls-9" x="312.45" y="237.66" width="9.17" height="36.69"/><rect class="cls-9" x="327.32" y="243.35" width="9.17" height="31"/><rect class="cls-9" x="342.18" y="236.71" width="9.17" height="37.64"/><rect class="cls-9" x="357.05" y="247.15" width="9.17" height="27.2"/><rect class="cls-9" x="371.91" y="221.53" width="9.17" height="52.82"/><rect class="cls-9" x="386.78" y="216.47" width="9.17" height="57.88"/><rect class="cls-12" x="315.95" y="87.72" width="11.95" height="90.87"/><rect class="cls-12" x="333.31" y="87.72" width="11.95" height="90.87"/><rect class="cls-12" x="350.67" y="87.72" width="11.95" height="90.87"/><rect class="cls-12" x="368.03" y="87.72" width="11.95" height="90.87"/><rect class="cls-12" x="385.39" y="87.72" width="11.95" height="90.87"/><rect class="cls-12" x="402.74" y="87.72" width="11.95" height="90.87"/><rect class="cls-12" x="420.1" y="87.72" width="11.95" height="90.87"/><rect class="cls-12" x="437.46" y="87.72" width="11.95" height="90.87"/><rect class="cls-12" x="454.82" y="87.72" width="11.95" height="90.87"/><rect class="cls-1" x="319.64" y="93.8" width="1.5" height="84.24"/><rect class="cls-1" x="337.13" y="93.8" width="1.5" height="84.24"/><rect class="cls-1" x="354.63" y="93.8" width="1.5" height="84.24"/><rect class="cls-1" x="372.13" y="93.8" width="1.5" height="84.24"/><rect class="cls-1" x="389.63" y="93.8" width="1.5" height="84.24"/><rect class="cls-1" x="407.13" y="93.8" width="1.5" height="84.24"/><rect class="cls-1" x="424.63" y="93.8" width="1.5" height="84.24"/><rect class="cls-1" x="442.13" y="93.8" width="1.5" height="84.24"/><rect class="cls-1" x="459.62" y="93.8" width="1.5" height="84.24"/><rect class="cls-11" x="317.64" y="136.05" width="5.5" height="42"/><rect class="cls-11" x="335.13" y="136.05" width="5.5" height="42"/><rect class="cls-11" x="352.63" y="149.67" width="5.5" height="28.37"/><rect class="cls-11" x="370.13" y="121.3" width="5.5" height="56.75"/><rect class="cls-8" x="370.13" y="121.3" width="5.5" height="11.86"/><rect class="cls-11" x="387.63" y="112.55" width="5.5" height="65.49"/><rect class="cls-11" x="405.13" y="136.05" width="5.5" height="42"/><rect class="cls-11" x="422.63" y="118.8" width="5.5" height="59.25"/><rect class="cls-8" x="422.63" y="118.8" width="5.5" height="4.03"/><rect class="cls-11" x="440.13" y="125.3" width="5.5" height="52.75"/><rect class="cls-11" x="457.62" y="136.05" width="5.5" height="42"/><rect class="cls-12" x="298.91" y="174.45" width="11.24" height="3.25"/><rect class="cls-12" x="298.91" y="161" width="11.24" height="3.25"/><rect class="cls-12" x="298.91" y="147.56" width="11.24" height="3.25"/><rect class="cls-12" x="298.91" y="134.12" width="11.24" height="3.25"/><rect class="cls-12" x="298.91" y="120.68" width="11.24" height="3.25"/><rect class="cls-12" x="298.91" y="107.24" width="11.24" height="3.25"/><rect class="cls-12" x="298.91" y="93.8" width="11.24" height="3.25"/><rect class="cls-2" x="315.95" y="83.42" width="11.95" height="1.28"/><rect class="cls-2" x="333.31" y="83.42" width="11.95" height="1.28"/><rect class="cls-2" x="350.67" y="83.42" width="11.95" height="1.28"/><rect class="cls-2" x="368.03" y="83.42" width="11.95" height="1.28"/><rect class="cls-2" x="385.39" y="83.42" width="11.95" height="1.28"/><rect class="cls-2" x="402.74" y="83.42" width="11.95" height="1.28"/><rect class="cls-2" x="420.1" y="83.42" width="11.95" height="1.28"/><rect class="cls-2" x="437.46" y="83.42" width="11.95" height="1.28"/><rect class="cls-2" x="454.82" y="83.42" width="11.95" height="1.28"/><rect class="cls-1" x="62.2" y="121.44" width="194.74" height="117.25"/><circle class="cls-11" cx="225.36" cy="162.77" r="29.13"/><path class="cls-8" d="M225.25,133.64a29,29,0,0,0-20.71,8.76l19.38,20.8,13.62-26.9A29,29,0,0,0,225.25,133.64Z"/><path class="cls-5" d="M250.39,147.87a29.33,29.33,0,0,0-12.85-11.57l-13.62,26.9.28.3Z"/><path class="cls-9" d="M204.54,142.4a29.08,29.08,0,0,0-4.18,35.32l23.22-13.85.34-.67Z"/><polygon class="cls-11" points="223.92 163.2 223.58 163.87 224.2 163.5 223.92 163.2"/><path class="cls-5" d="M244.21,185l-20-21.47-.62.37-12.35,24.38a29.13,29.13,0,0,0,33-3.28Z"/><path class="cls-12" d="M200.36,177.72a29.21,29.21,0,0,0,10.87,10.53l12.35-24.38Z"/><path class="cls-9" d="M250.39,147.87,224.2,163.5l20,21.47a29.12,29.12,0,0,0,6.18-37.1Z"/><circle class="cls-1" cx="225.36" cy="162.77" r="20.33"/><path class="cls-11" d="M225.36,180.39A17.62,17.62,0,1,1,243,162.77,17.64,17.64,0,0,1,225.36,180.39Zm0-34.24A16.62,16.62,0,1,0,242,162.77,16.64,16.64,0,0,0,225.36,146.15Z"/><rect class="cls-11" x="224.68" y="198.31" width="8.65" height="1.99"/><rect class="cls-2" x="224.68" y="203.62" width="12.82" height="1.99"/><rect class="cls-2" x="239.21" y="203.62" width="6.31" height="1.99"/><rect class="cls-2" x="246.03" y="203.62" width="4.04" height="1.99"/><rect class="cls-2" x="224.68" y="208.93" width="6.12" height="1.99"/><rect class="cls-2" x="232.45" y="208.93" width="15.73" height="1.99"/><rect class="cls-2" x="242.87" y="214.24" width="7.2" height="1.99"/><rect class="cls-2" x="224.68" y="214.24" width="17.49" height="1.99"/><rect class="cls-2" x="224.68" y="219.55" width="11.05" height="1.99"/><rect class="cls-2" x="237.44" y="219.55" width="4.74" height="1.99"/><rect class="cls-2" x="242.87" y="219.55" width="2.75" height="1.99"/><rect class="cls-11" x="84.62" y="215.1" width="22.16" height="1.36"/><rect class="cls-2" x="84.62" y="218.73" width="26.66" height="1.36"/><rect class="cls-2" x="94.81" y="222.35" width="16.47" height="1.36"/><rect class="cls-2" x="84.62" y="222.35" width="7.77" height="1.36"/><rect class="cls-2" x="84.62" y="225.98" width="26.66" height="1.36"/><rect class="cls-2" x="84.62" y="229.6" width="26.66" height="1.36"/><rect class="cls-4" x="84.12" y="140.52" width="1" height="65.19"/><rect class="cls-4" x="102.66" y="140.52" width="1" height="65.19"/><rect class="cls-4" x="121.2" y="140.52" width="1" height="65.19"/><rect class="cls-4" x="139.74" y="140.52" width="1" height="65.19"/><rect class="cls-4" x="158.28" y="140.52" width="1" height="65.19"/><rect class="cls-4" x="176.82" y="140.52" width="1" height="65.19"/><rect class="cls-2" x="81.61" y="166.42" width="6.03" height="39.29"/><rect class="cls-2" x="100.32" y="179.89" width="6.03" height="25.82"/><rect class="cls-2" x="118.71" y="168.57" width="6.03" height="37.14"/><rect class="cls-2" x="137.23" y="154.41" width="6.03" height="51.3"/><rect class="cls-2" x="155.77" y="176.07" width="6.03" height="29.64"/><rect class="cls-12" x="71.92" y="206.94" width="109.03" height="0.83"/><polygon class="cls-8" points="183.71 154.72 177.32 143.66 170.94 154.72 174.31 154.72 174.31 205.71 180.34 205.71 180.34 154.72 183.71 154.72"/><path class="cls-12" d="M79.7,202.51a.76.76,0,0,1-.76.76H72.68a.76.76,0,0,1-.76-.76h0a.76.76,0,0,1,.76-.76h6.26a.76.76,0,0,1,.76.76Z"/><path class="cls-12" d="M79.7,191.65a.76.76,0,0,1-.76.76H72.68a.76.76,0,0,1-.76-.76h0a.76.76,0,0,1,.76-.76h6.26a.76.76,0,0,1,.76.76Z"/><path class="cls-12" d="M79.7,180.79a.76.76,0,0,1-.76.76H72.68a.76.76,0,0,1-.76-.76h0a.76.76,0,0,1,.76-.76h6.26a.76.76,0,0,1,.76.76Z"/><path class="cls-12" d="M79.7,169.93a.76.76,0,0,1-.76.76H72.68a.76.76,0,0,1-.76-.76h0a.76.76,0,0,1,.76-.76h6.26a.76.76,0,0,1,.76.76Z"/><path class="cls-12" d="M79.7,159.06a.76.76,0,0,1-.76.76H72.68a.76.76,0,0,1-.76-.76h0a.76.76,0,0,1,.76-.76h6.26a.76.76,0,0,1,.76.76Z"/><path class="cls-12" d="M79.7,148.2a.76.76,0,0,1-.76.76H72.68a.76.76,0,0,1-.76-.76h0a.76.76,0,0,1,.76-.76h6.26a.76.76,0,0,1,.76.76Z"/><path class="cls-12" d="M79.7,137.34a.76.76,0,0,1-.76.76H72.68a.76.76,0,0,1-.76-.76h0a.76.76,0,0,1,.76-.76h6.26a.76.76,0,0,1,.76.76Z"/><rect class="cls-1" x="498.08" y="68.04" width="121.71" height="80.37"/><rect class="cls-9" x="509.85" y="105.35" width="10.46" height="29.43"/><rect class="cls-9" x="523.01" y="114.29" width="10.46" height="20.49"/><rect class="cls-9" x="536.18" y="93.8" width="10.46" height="40.98"/><rect class="cls-9" x="549.35" y="105.35" width="10.46" height="29.43"/><rect class="cls-9" x="562.51" y="93.8" width="10.46" height="40.98"/><rect class="cls-9" x="575.68" y="97.06" width="10.46" height="37.72"/><rect class="cls-9" x="588.84" y="88.9" width="10.46" height="45.88"/><rect class="cls-10" x="509.85" y="131.84" width="10.46" height="2.95"/><rect class="cls-10" x="523.01" y="123" width="10.46" height="11.78"/><rect class="cls-10" x="536.18" y="128.89" width="10.46" height="5.89"/><rect class="cls-10" x="549.35" y="123" width="10.46" height="11.78"/><rect class="cls-10" x="562.51" y="115.92" width="10.46" height="18.86"/><rect class="cls-10" x="575.68" y="123" width="10.46" height="11.78"/><rect class="cls-10" x="588.84" y="105.35" width="10.46" height="29.43"/><rect class="cls-11" x="595.62" y="71.65" width="16.51" height="2.43"/><rect class="cls-2" x="595.62" y="77.03" width="8.51" height="0.99"/><rect class="cls-2" x="605.52" y="77.03" width="5.43" height="0.99"/><polygon class="cls-2" points="607.88 79.67 607.88 80.33 607.33 80.33 607.33 79.67 598.54 79.67 598.54 80.66 611.63 80.66 611.63 79.67 607.88 79.67"/><rect class="cls-2" x="595.62" y="79.67" width="2.22" height="0.99"/><rect class="cls-2" x="612.14" y="79.67" width="2.08" height="0.99"/><rect class="cls-11" x="510.93" y="85.14" width="8.45" height="2.06" rx="1.02"/><rect class="cls-11" x="524.01" y="85.14" width="8.45" height="2.06" rx="1.02"/><rect class="cls-11" x="537.18" y="85.14" width="8.45" height="2.06" rx="1.02"/><rect class="cls-11" x="550.35" y="85.14" width="8.45" height="2.06" rx="1.02"/><rect class="cls-11" x="563.51" y="85.14" width="8.45" height="2.06" rx="1.02"/><rect class="cls-11" x="576.68" y="85.14" width="8.45" height="2.06" rx="1.02"/><rect class="cls-11" x="589.61" y="85.14" width="8.45" height="2.06" rx="1.02"/><path class="cls-11" d="M168.87,282.18c.39,1.07.11,2.33.66,3.33a3,3,0,0,0,2.49,1.36,7.61,7.61,0,0,0,2.89-.58,49.53,49.53,0,0,0,5.08-2.06,7.41,7.41,0,0,0,3.16-2.31,8.22,8.22,0,0,0,1-4.11,120.43,120.43,0,0,1,2.84-19,15.55,15.55,0,0,0,.64-4.68,4.85,4.85,0,0,0-2.24-4,5.76,5.76,0,0,0-3-.54,6.41,6.41,0,0,0-3.85,1.18c-1.55,1.25-2,3.39-2.48,5.32a31.47,31.47,0,0,1-6.66,12.53,24.42,24.42,0,0,0-3.54,4.47,5.45,5.45,0,0,0-.11,5.45C166.65,279.93,168.33,280.69,168.87,282.18Z"/><path class="cls-4" d="M178.78,280.93a5.47,5.47,0,0,1-1.45,3.74,8,8,0,0,1-3.91,1.71,5.46,5.46,0,0,1-3.57,0c-1.22-.59-1.8-2-2.28-3.23a16.93,16.93,0,0,1-1.19-4.28,5.61,5.61,0,0,1,1.1-4.19,5.15,5.15,0,0,1,3.25-1.68,7,7,0,0,1,5.85,2.07A8,8,0,0,1,178.78,280.93Z"/><path class="cls-13" d="M173.08,286.43c-2.26.81-4.75-.06-6.82-1.31a22.09,22.09,0,0,1-6.54-6,8.33,8.33,0,0,0,4.65-5.94c1.84,1,4,1.24,6,1.69s4.14,1.27,5.35,3.08a5.93,5.93,0,0,1,.68,5A5.6,5.6,0,0,1,173.08,286.43Z"/><path class="cls-14" d="M175.71,277.92c-1.21-1.81-3.33-2.62-5.35-3.08s-4.15-.67-6-1.69a8.5,8.5,0,0,1-3.28,5.14c4.22,2.91,11,2.41,12.85,6.06a6.18,6.18,0,0,1,.55,1.28,5.76,5.76,0,0,0,1.9-2.75A5.93,5.93,0,0,0,175.71,277.92Z"/><rect class="cls-4" x="164" y="243.41" width="6.85" height="50.61" transform="translate(-61.67 50.19) rotate(-14.43)"/><path class="cls-13" d="M158.32,270.78a8.94,8.94,0,0,1,.24-1.86c.61-2.3,3-7.19,3.11-9.58,2.24,3,.72,5.41.85,6.58a13.81,13.81,0,0,1,3.46.23c.37.09.8.28.87.68a.79.79,0,0,1-.34.73,2.16,2.16,0,0,1-.74.29,3.77,3.77,0,0,1,1,.79,1.46,1.46,0,0,1,.35,1.26.8.8,0,0,1-1,.63,2,2,0,0,1,.78,1.08c.09.45-.25,1-.67.92a1.24,1.24,0,0,1,.17,1.52,7.69,7.69,0,0,1-1,1.25,14.33,14.33,0,0,0-1.39,2.63,3.21,3.21,0,0,1-2.06,1.91,3.29,3.29,0,0,1-2.62-1.16,3.59,3.59,0,0,1-.87-1.1,4.23,4.23,0,0,1-.28-1.81C158.19,274.11,158.22,272.44,158.32,270.78Z"/><path class="cls-14" d="M166.81,268.64a3.77,3.77,0,0,0-1-.79,2.16,2.16,0,0,0,.74-.29.79.79,0,0,0,.34-.73c-.07-.4-.5-.59-.87-.68a12,12,0,0,0-2.87-.24c1.51,4.84,1.65,9.66-1.13,13.93h0a3.21,3.21,0,0,0,2.06-1.91,14.33,14.33,0,0,1,1.39-2.63,7.69,7.69,0,0,0,1-1.25,1.24,1.24,0,0,0-.17-1.52c.42.1.76-.47.67-.92a2,2,0,0,0-.78-1.08.8.8,0,0,0,1-.63A1.46,1.46,0,0,0,166.81,268.64Z"/><path class="cls-4" d="M166.61,271a8.53,8.53,0,0,0-3.76-1v-.5a9,9,0,0,1,4,1.09Z"/><path class="cls-4" d="M166.6,272.77a11.73,11.73,0,0,0-3.88-.84l0-.5a12,12,0,0,1,4,.88Z"/><path class="cls-4" d="M165.72,275.74a1.81,1.81,0,0,1-1.08-1.33c0-.11,0-.21-.06-.23l-.15,0a6.39,6.39,0,0,0-1.45.07l-.09-.49a6.43,6.43,0,0,1,1.58-.08.79.79,0,0,1,.45.16.82.82,0,0,1,.21.47,1.29,1.29,0,0,0,.78,1Z"/><path class="cls-13" d="M189.28,226.53c2.1-.25,4.67-1.62,6.71-2.23.57,2.71,1.88,9.61,3.67,12.85l.7,1c-4.94,3.77-10,5.63-15.86,7.23C191.27,241.62,189,233.1,189.28,226.53Z"/><path class="cls-14" d="M195,224.64a28.4,28.4,0,0,1-5.7,1.89c-.29,6.57,2,15.09-4.78,18.88a64.83,64.83,0,0,0,6.9-2.25A41.54,41.54,0,0,0,195,224.64Z"/><path class="cls-4" d="M195,224.51c-1.92.67-4.18,1.8-6.08,2,.14,2.81.51,6,.43,9C194,234.6,194.68,229.29,195,224.51Z"/><path class="cls-5" d="M187.38,239.36a8.36,8.36,0,0,0-3.25,2.46c-1.32,1.86-1.16,4.37-1.85,6.55a25.89,25.89,0,0,1,9.79-6,62.8,62.8,0,0,1,11.26-2.69,2.41,2.41,0,0,0-1.23-2.43,5.8,5.8,0,0,0-2.79-.66A24.85,24.85,0,0,0,187.38,239.36Z"/><path class="cls-13" d="M196.38,215.44a12.88,12.88,0,0,0-7.57-4.42l-1.91,0c-1.2,1.37-1.89,1.46-2.83,3.06l-.29,1.24a3.19,3.19,0,0,1-1.58,2.15,13.58,13.58,0,0,0-2.95,1.84,1.41,1.41,0,0,0-.71,1.08,1.39,1.39,0,0,0,.5.88c.53.55,1.08,1.08,1.64,1.59a38,38,0,0,0,.17,5.53,5.35,5.35,0,0,0,.65,3,3.51,3.51,0,0,0,2.38,1.17A14.16,14.16,0,0,0,194.07,230a10.76,10.76,0,0,0,4.41-5.71A10,10,0,0,0,196.38,215.44Z"/><path class="cls-14" d="M196.38,215.44a12.88,12.88,0,0,0-7.57-4.42l-1.91,0c-1.2,1.37-1.89,1.46-2.83,3.06l-.15.65c.34,5.5,6.09,11.3,7.56,16.76a14.9,14.9,0,0,0,2.59-1.43,10.76,10.76,0,0,0,4.41-5.71A10,10,0,0,0,196.38,215.44Z"/><path class="cls-1" d="M183.78,215.28a4,4,0,0,0,.14-.77Z"/><path class="cls-4" d="M209,210.57c-.73-1.39-1.54-2.75-2.4-4.06a2,2,0,0,0-3.55-.61l-1.78,1.32a21.74,21.74,0,0,0-2.74-1.36,11.84,11.84,0,0,0-8.83.35l-2.66-.85c-1.67,1.1-2.43,3.29-2.65,5.38a16.89,16.89,0,0,0,2.38,10.34c1.83,3,5.09,6.84,8.11,8.43,1.66.88,3.12.4,4.81-.23.15-.05.29-.14.43-.2a9.8,9.8,0,0,0,2.39-1.22,22.07,22.07,0,0,0,5.57-6c1.33-2,2.57-4.16,2.49-6.53A11.14,11.14,0,0,0,209,210.57Z"/><path class="cls-10" d="M187.36,213.48a7.61,7.61,0,0,0,1.07,3.77c.09-.93.19-1.87.28-2.8a5.56,5.56,0,0,0,2.12,1.31l.4-1.79a2.47,2.47,0,0,0,1.36,1.16l.52-1.14a.9.9,0,0,0,.95.49l.28-1a.85.85,0,1,0,1.6-.49l1.12.76a.48.48,0,0,0,0-.68,8.78,8.78,0,0,0,4.41.08,8,8,0,0,1-2.87-3.9,1.59,1.59,0,0,1-.75,1.54,1.62,1.62,0,0,1-1.72-.07L195,212a1.8,1.8,0,0,0-1.54-.53,10.17,10.17,0,0,0-1.63.39,7,7,0,0,1-5.1-.68,9.61,9.61,0,0,0,.73,7A10.19,10.19,0,0,1,187.36,213.48Z"/><path class="cls-8" d="M201.69,207.36a23.59,23.59,0,0,0,1.11,5.13c-1.36-.69-2-2.24-2.53-3.66a1.63,1.63,0,0,1-.13-1.16C200.49,206.76,201.19,208.21,201.69,207.36Z"/><path class="cls-13" d="M159.65,416.49c4.76-2.65,7.85-7.22,10.48-11.91,3.18-39.41,0-36.87,1.65-54h12.64c.52,10.74.26,20.46-2.11,30.62-1.83,7.87-3.44,13.92-5.23,23.35a15.78,15.78,0,0,0-.26,6.08,4.46,4.46,0,0,1-.1,3.51c-1.49,2.34-2.95,1.77-5.62,2.75-3.11,1.15-2.47,3.51-8.77,3.69a5.69,5.69,0,0,1-3.54-.68,2,2,0,0,1-.84-1.17C157.72,417.63,158.81,417,159.65,416.49Z"/><path class="cls-14" d="M179,395.22c1.07-4.8,2.14-9,3.29-14,2.37-10.16,2.63-19.88,2.11-30.62H171.78c-1.54,15.77,1.06,14.83-1,45.52C175,398.55,177.38,397,179,395.22Z"/><path class="cls-4" d="M169.74,414.93a11.26,11.26,0,0,1-4.16,2.15,6.18,6.18,0,0,1-4.5-.53,6.53,6.53,0,0,1-.56-.35l1-.82a.74.74,0,0,1,.4-.21.82.82,0,0,1,.44.16,4.1,4.1,0,0,0,1.93.35A12.39,12.39,0,0,0,169.74,414.93Z"/><path class="cls-8" d="M159.65,416.49c.47-.26.91-.56,1.35-.85a5.87,5.87,0,0,0,4.8,1.3c4.08-.51,7.7-3.51,11.09-6a4.17,4.17,0,0,1-.17,3.24c-1.49,2.34-2.95,1.77-5.62,2.75-3.11,1.15-2.47,3.51-8.77,3.69a5.63,5.63,0,0,1-3.54-.69,1.9,1.9,0,0,1-.84-1.16C157.72,417.63,158.81,417,159.65,416.49Z"/><path class="cls-5" d="M171.13,312.53c.23,6-.48,13.3-.71,19.31s-1,12.2-1,18.32c-.12,14.37,3.41,29,.42,42.93a23.11,23.11,0,0,0,16.31-.67c1.93-22.82,4.4-53.4,8.2-78.08C187.37,314.78,177.62,315.43,171.13,312.53Z"/><path class="cls-4" d="M192.49,318.05A22,22,0,0,1,189,318a8.65,8.65,0,0,1-.2,4.16c-3.56,10.12-10.12,25.05-10.12,34.16,0,13.31,0,23.75-.22,38a22.43,22.43,0,0,0,7.72-1.85C188.07,369.6,188.69,342.73,192.49,318.05Z"/><path class="cls-13" d="M188.79,420.44s2.55-2.12,2.56-2.14a11.57,11.57,0,0,0,2-8.54c-2.16-17.39-7.93-38.94-10.63-56.12H198.4c2.31,18.1,4.92,39.66,1.44,56.77a18.68,18.68,0,0,0-.17,6.33c.19,1.36.35,2.73.49,4.1s.19,2.8-.51,3.67c-.58.71-2.73.35-4.42,1.14-4.4,2.07-9.39,2.55-12.52.87C180.85,425.11,184.83,422.73,188.79,420.44Z"/><path class="cls-14" d="M198.4,353.64H182.76c2.6,16.58,8.06,37.23,10.38,54.27a6.3,6.3,0,0,0,7.49-2.28C202.83,389.4,200.5,370.09,198.4,353.64Z"/><path class="cls-4" d="M199.05,419.74a2.61,2.61,0,0,0,.08-1.11,8.43,8.43,0,0,0-.7,1.63.38.38,0,0,0,.41-.11A.89.89,0,0,0,199.05,419.74Z"/><path class="cls-4" d="M190.59,425a8.23,8.23,0,0,1-2.39.46,4.62,4.62,0,0,1-3.84-2.3l1.32-.95c1.8,1.46,4.28,1.5,6.49,1.06s4.37-1.3,6.61-1.46A84.07,84.07,0,0,1,190.59,425Z"/><path class="cls-8" d="M185.05,422.72a4.54,4.54,0,0,0,2.74,1.72c1.79.45,4.36-.34,6-1,2-.79,4.18-2.14,6.33-2.59.13,1.3.19,2.78-.51,3.65-.58.71-2.73.35-4.42,1.14-4.4,2.07-9.39,2.55-12.52.87C181.47,425.58,182.83,424.21,185.05,422.72Z"/><path class="cls-5" d="M203.13,315.41c2.67,10-.91,20.52-2.18,30.83-2.24,18.22,7.64,39.24,4.13,57.23-5.39,2.63-11.23,4.72-17.31,1.46,1-10.8-2.17-25-4-35.68-.94-5.48-2.36-10.88-2.85-16.43-1.2-13.62,3.25-27.71-.32-40.83l19.15-.94Z"/><path class="cls-4" d="M196.67,319.73a8.7,8.7,0,0,0,3.37-1,3.19,3.19,0,0,0,1.65-2.93q-14.74-.93-29.37-3a2.74,2.74,0,0,0,.13,2.85,6.18,6.18,0,0,0,2.21,2,23.11,23.11,0,0,0,10.77,3A55.12,55.12,0,0,0,196.67,319.73Z"/><path class="cls-4" d="M201,346.24c1.27-10.31,4.85-20.83,2.18-30.83l-3.38-4.36-3.48.17c2.42,3.91,4.25,8,3.67,12.13-4,23,0,43,3,65a52.41,52.41,0,0,1,.58,15.85c.52-.23,1-.48,1.56-.73C208.59,385.48,198.71,364.46,201,346.24Z"/><path class="cls-8" d="M206.49,240.11c2.52,2.63,3.2,6.77,2.78,10.52a40.27,40.27,0,0,1-4.89,14.61c-2.25,4.14-4.06,9.07-2.89,15.05a53.31,53.31,0,0,0,2.8,8.54,63.65,63.65,0,0,1,4.1,22.65,5.63,5.63,0,0,1-.87,3.58c-.88,1.06-2.34,1.21-3.65,1.28-9.28.49-22.37,1-33-3,.53-14.53,6.29-26.79,6.82-41.32.26-6.93-3.21-11.72-.47-18,2.45-5.6,10.6-12.54,15.86-15C197.41,236.92,203.06,236.53,206.49,240.11Z"/><path class="cls-11" d="M180.46,293.2c.33-7.61,2.95-15.05,2.58-22.65a65.09,65.09,0,0,0,20.05-12.29c-3.34,7.82-6.75,16.15-5.44,24.55.84,5.36,3.54,10.21,5.58,15.22s3.41,12.09,1.58,17.2c-8.87,1-16.95,1.15-25-1.25C181.76,307.3,180.16,300.15,180.46,293.2Z"/><path class="cls-4" d="M179.32,275.93a11.31,11.31,0,0,1,1.76-5.61,12.52,12.52,0,0,1,4.27-3.22q9.51-5.16,19.47-9.39a71.94,71.94,0,0,1-21.25,28.1,3.32,3.32,0,0,1-2.78,1c-1.27-.37-1.62-2-1.68-3.3A48.26,48.26,0,0,1,179.32,275.93Z"/><path class="cls-4" d="M173.18,314.25c-1.14-6.5.63-13,2.35-19.34.67-2.49,1.37-5.06,1.88-7.59A112.64,112.64,0,0,0,179,274.18c.31-3.86.63-7.86,1.31-11.75,1.22-7,4.31-16.36,12.06-21.39l.27.42c-7.6,4.93-10.63,14.18-11.84,21.06-.67,3.86-1,7.85-1.3,11.7a114.2,114.2,0,0,1-1.58,13.2c-.51,2.55-1.21,5.12-1.89,7.62-1.7,6.26-3.46,12.74-2.33,19.12Z"/><path class="cls-13" d="M203.74,241.16c-3-.64-6.12.81-8.67,2.34-3.84,2.32-7.47,5-11.19,7.57s-7.82,4.75-12.22,5c-6.21-7-10.06-8.73-16.13-15.39A13.77,13.77,0,0,1,154,237.4a24.63,24.63,0,0,0-2.13-5.28,1.6,1.6,0,0,0-.77-.73,3.23,3.23,0,0,0-.88,0,3.44,3.44,0,0,1-1.85-.93l-6.26-4.95c-.86,1.7.79,2.54,3.55,5.2a2,2,0,0,0-1.64,1.56,6,6,0,0,1,0,1.89c-.15.51-.58,1-.38,1.5.12.27.39.43.52.69s0,.81,0,1.22a2.92,2.92,0,0,0,.81,1.81,8.19,8.19,0,0,0,2.12,2.15c.62.37,1.32.56,1.94.92a5.41,5.41,0,0,1,2.24,2.58c.11.23.73,1.49.81,1.67,0,0,6.07,12,12.47,20.48a4.19,4.19,0,0,0,3.69,1.64,80.83,80.83,0,0,0,30.52-8.92,27,27,0,0,0,6.35-4.12c2.16-2,4-4.67,3.77-7.9S206.64,241.78,203.74,241.16Z"/><path class="cls-14" d="M203.74,241.16c-3-.64-6.12.81-8.67,2.34-3.84,2.32-7.47,5-11.19,7.57s-7.82,4.75-12.22,5c-.84-.94-1.63-1.78-2.39-2.56a6.74,6.74,0,0,1-1.33.86c-7,4-14-5-17-12-1-1.93-4.74-2-6.8-4.72a3.06,3.06,0,0,0,.8,1.7,8.19,8.19,0,0,0,2.12,2.15c.62.37,1.32.56,1.94.92a5.41,5.41,0,0,1,2.24,2.58c.11.23.73,1.49.81,1.67,0,0,6.07,12,12.47,20.48a4.19,4.19,0,0,0,3.69,1.64,80.83,80.83,0,0,0,30.52-8.92,27,27,0,0,0,6.35-4.12c2.16-2,4-4.67,3.77-7.9S206.64,241.78,203.74,241.16Z"/><path class="cls-8" d="M200.85,240.17c-2.61.31-4.8,2-7,3.51a63.4,63.4,0,0,1-17.17,8.5,15.22,15.22,0,0,0-4.05,1.69,4.42,4.42,0,0,0-2.12,3.64c0,1.31.9,2.53.81,3.84s-1.27,2.51-2.2,3.61-1.68,2.71-.9,3.91a3.89,3.89,0,0,0,2.26,1.32,15.55,15.55,0,0,1,3.85,1.5,4.85,4.85,0,0,1,2.38,3.22,16,16,0,0,1-.07,2.59,2.76,2.76,0,0,0,.88,2.34,2.46,2.46,0,0,0,1.48.42c2.59,0,4.41-2.44,6.14-4.37,5.78-6.42,14.63-9.43,20.39-15.87a17.29,17.29,0,0,0,4.17-7.67,11.07,11.07,0,0,0-1.37-8.47A8.2,8.2,0,0,0,200.85,240.17Z"/><path class="cls-4" d="M171.83,255.23l-.42-.27c1-1.62,2.89-2.74,5.54-3.35.84-.2,1.7-.34,2.53-.47a24.59,24.59,0,0,0,3.77-.81,22.36,22.36,0,0,0,7-4.4l.74-.63a31.81,31.81,0,0,1,6.09-4.38,10.27,10.27,0,0,1,8.35-.74l-.19.47a9.72,9.72,0,0,0-7.93.72,31,31,0,0,0-6,4.31l-.74.63a22.85,22.85,0,0,1-7.18,4.5,26.2,26.2,0,0,1-3.85.83c-.83.13-1.68.26-2.5.45C174.54,252.67,172.78,253.73,171.83,255.23Z"/><path class="cls-11" d="M181.52,257.17a16.43,16.43,0,0,1-7.41,1.8,2.75,2.75,0,0,0-2.06.52,4.57,4.57,0,0,1-.49,3.86c1.09-1.36,2.9-1.84,4.51-2.5A16.66,16.66,0,0,0,181.52,257.17Z"/><path class="cls-11" d="M192.71,260.38a139.31,139.31,0,0,1-15.61,12.77,11,11,0,0,0-6.52-3.25,31.43,31.43,0,0,0,11.66-3.29A90,90,0,0,0,192.71,260.38Z"/><path class="cls-11" d="M181.14,278.72c2.75-1.74,4.87-4.45,7.3-6.62a50.76,50.76,0,0,1,8.48-5.67c3-1.76,5.88-4.13,6.91-7.44-2.05,3.39-5.42,5.76-8.89,7.68s-7.13,3.51-10.34,5.84a39.93,39.93,0,0,0-6.58,6.22,1.64,1.64,0,0,0,1.53.62A3.65,3.65,0,0,0,181.14,278.72Z"/><path class="cls-14" d="M180.47,221.5a1.54,1.54,0,0,1,.62.29.61.61,0,0,1,.22.62.39.39,0,0,1-.55.23,7.82,7.82,0,0,1-1.46-1.47Z"/><path class="cls-13" d="M556.85,273.08a19.42,19.42,0,0,1-.62-2.06c0-.49.18-1,.19-1.45a5.23,5.23,0,0,0-.75-2.14,7.09,7.09,0,0,1-.66-2.68,2.3,2.3,0,0,0-1.61,2.66c.12.6.49,1.19.36,1.79a1.81,1.81,0,0,1-.31.62l-.09-.11a10.24,10.24,0,0,0-1.72-1.35,27.8,27.8,0,0,1-4.87-5.33c-.24-.3-.63-.64-1-.44s-.36.94-.23,1.3a15.3,15.3,0,0,0,2.93,4.68,1.5,1.5,0,0,1,.38.64,1.48,1.48,0,0,1-.22.93,21.15,21.15,0,0,0-.89,2.15,3.7,3.7,0,0,0-.25,2.19,3.77,3.77,0,0,0,.78,1.28,4.51,4.51,0,0,0,2.74,2,12.32,12.32,0,0,0,2.09.21,34.05,34.05,0,0,1,5.48,5.71,18.22,18.22,0,0,1,4.27-3.4q-3.18-3-6.12-6.24A2.13,2.13,0,0,0,556.85,273.08Z"/><path class="cls-14" d="M548.28,274.78a4.05,4.05,0,0,1,0-2.24l.63-3.58a4.4,4.4,0,0,0,1.81.78,2.27,2.27,0,0,1,1.56,1.14,2.87,2.87,0,0,1,.14.66c.13,1.22.27,2.45.4,3.67a3.33,3.33,0,0,1-2.41,1A2.38,2.38,0,0,1,548.28,274.78Z"/><path class="cls-13" d="M548.53,270.85a14.23,14.23,0,0,0,1.22.8.86.86,0,0,0,.7.17.72.72,0,0,0,.38-.64,2.09,2.09,0,0,0-.58-1.49,6.42,6.42,0,0,0-1.29-1,1.41,1.41,0,0,0-.72-.29.84.84,0,0,0-.78.67,1.33,1.33,0,0,0,.25,1A3.48,3.48,0,0,0,548.53,270.85Z"/><path class="cls-13" d="M546.83,271.88a1.85,1.85,0,0,0,.89.83l1.26.73a3,3,0,0,0,.94.4,1,1,0,0,0,.93-.32.92.92,0,0,0,.08-.84,2.09,2.09,0,0,0-.49-.72,6.49,6.49,0,0,0-2.66-1.71.75.75,0,0,0-.55,0,.8.8,0,0,0-.33.53A1.76,1.76,0,0,0,546.83,271.88Z"/><path class="cls-13" d="M547,273.22a1.32,1.32,0,0,0,.16,1.31,2.26,2.26,0,0,0,1.11.78,7.9,7.9,0,0,0,1.35.28,2.36,2.36,0,0,0,.7.05.74.74,0,0,0,.56-.37.91.91,0,0,0-.31-1,4.89,4.89,0,0,0-1.19-.75l-1.15-.58a1.2,1.2,0,0,0-.71-.18A.76.76,0,0,0,547,273.22Z"/><path class="cls-15" d="M616.28,295.19,612,293.73A75.48,75.48,0,0,1,559.13,275a1.48,1.48,0,0,0-2,0,12.25,12.25,0,0,0-2.35,2.58,5.28,5.28,0,0,0-.71,4.59,8,8,0,0,0,2.52,3c6.72,5.63,13.47,11.29,21,15.77s15.94,7.78,24.69,8.27c4.17.24,8.64-.27,11.91-2.88S618.9,298.44,616.28,295.19Z"/><path class="cls-12" d="M596.19,295.91a.69.69,0,0,1-1.38,0,.69.69,0,0,1,1.38,0Z"/><path class="cls-12" d="M586.44,300.79a.57.57,0,1,1-.56-.56A.56.56,0,0,1,586.44,300.79Z"/><circle class="cls-12" cx="585.19" cy="292.73" r="0.87"/><circle class="cls-12" cx="574.06" cy="288.23" r="0.5"/><path class="cls-12" d="M568.44,287.66a.69.69,0,0,1-1.38,0,.69.69,0,0,1,1.38,0Z"/><path class="cls-12" d="M562.19,280a.57.57,0,1,1-.56-.56A.56.56,0,0,1,562.19,280Z"/><circle class="cls-12" cx="558.31" cy="282.98" r="0.75"/><path class="cls-9" d="M554.48,278.13a5,5,0,0,0-.38,4,8,8,0,0,0,2.52,3c6.72,5.63,13.47,11.29,21,15.77s15.94,7.78,24.69,8.27c4.17.24,8.64-.27,11.91-2.88a9.28,9.28,0,0,0,3-4.46C594.45,305.56,569.47,296.14,554.48,278.13Z"/><path class="cls-9" d="M578,290.14a5.66,5.66,0,0,0,1.82,5.87A10.34,10.34,0,0,0,578,290.14Z"/><path class="cls-4" d="M578.38,431.13a3.7,3.7,0,1,0,3.71,3.7A3.7,3.7,0,0,0,578.38,431.13Z"/><path class="cls-4" d="M647.19,431.33v-.68h0v-.87a1.6,1.6,0,0,0-1.47-1.6c-4.37-.36-17.21-1.42-22.15-2-6-.71-8.46-3.88-8.46-3.88h-.78V401.84h-.79V372.46h-3v29.38h-.78v20.47h-.78s-2.47,3.17-8.46,3.88c-4.94.58-17.79,1.64-22.15,2a1.6,1.6,0,0,0-1.48,1.6v.87l.59-.05v2.62h2.38v-2.81l27.83-2.25A19,19,0,0,1,606,429.5a5.45,5.45,0,0,0-1.4,1.17,3.2,3.2,0,0,0-.4.78h-1.82v6.87h6.1v-6.87h-1.92c0-.19,0-.37.07-.55a12.73,12.73,0,0,0,6.5-3l31.68,2.56v.89a3.7,3.7,0,1,0,2.38,0Z"/><path class="cls-11" d="M568.84,380.72c-1.88,1.61-3.62,4-2.89,6.39.94,3.05,5,3.57,8.18,3.51l35.36-.61c7.77-.14,16.18-.5,22.2-5.4,4.29-3.5,6.67-8.78,8.5-14a91.17,91.17,0,0,0,5.06-23.17c.41-5.34.21-10.93-2.24-15.7s-7.63-8.45-12.93-7.71c-3.7.52-6.87,3.07-9,6.15a37.3,37.3,0,0,0-4.34,10.27c-2.6,8.71-5.1,18.08-11.91,24.1C594.91,373.33,578.93,372.09,568.84,380.72Z"/><path class="cls-8" d="M568.84,378.39c-1.88,1.61-3.62,4-2.89,6.39.94,3.05,5,3.56,8.18,3.51l35.36-.62c7.77-.13,16.18-.49,22.2-5.4,4.29-3.49,6.67-8.78,8.5-14a91.26,91.26,0,0,0,5.06-23.17c.41-5.34.21-10.93-2.24-15.7s-7.63-8.45-12.93-7.71c-3.7.52-6.87,3.06-9,6.15a37.3,37.3,0,0,0-4.34,10.27c-2.6,8.71-5.1,18.08-11.91,24.09C594.91,371,578.93,369.76,568.84,378.39Z"/><path class="cls-5" d="M636.17,331.52c2.22.66,3.66,2.92,4,5.21a17.8,17.8,0,0,1-.69,6.86c-1.31,5.37-2.82,10.7-4.54,16-2.08,6.35-4.64,12.86-9.62,17.31-5.31,4.76-12.64,6.48-19.7,7.47a149.88,149.88,0,0,1-25.14,1.27c-2.49-.08-5.38-.44-6.65-2.58a5,5,0,0,1,0-4.57,10.93,10.93,0,0,1,3.1-3.57c6.79-5.47,15.73-7.45,23.17-12A38.35,38.35,0,0,0,614.9,346.2c1.31-2.87,2.26-5.9,3.65-8.73a16.46,16.46,0,0,1,6-7.14c2.72-1.6,6.36-1.9,9-.12Z"/><path class="cls-13" d="M548.79,427.23c2.1-.94,5.61-2,7.69-3.92,3.16-3,3-4.37,3.25-7.47.32-3.58-.48-8.09-.8-11.67-.1-1.18-.23-2.35-.35-3.52h10.16a64.89,64.89,0,0,0,.14,24.1c.32,1.58.63,3.4-.41,4.64a4.07,4.07,0,0,1-3.83,1,9.35,9.35,0,0,0-3.63-.32c-4.38.73-8.82,2.12-12.94,1-.78-.21-2.21-.67-2.38-1.46C545.49,428.62,547.87,427.64,548.79,427.23Z"/><path class="cls-14" d="M568.88,424.75a64.89,64.89,0,0,1-.14-24.1H558.58c.12,1.17.24,2.34.35,3.52.13,1.43.33,3,.51,4.62,3.83,1.44,4.82,6.2,6.5,9.56,2,5-3,8-7,9a58.79,58.79,0,0,1-13.25,2.2v.05c.17.79,1.6,1.25,2.38,1.46,4.12,1.12,8.56-.27,12.94-1a9.35,9.35,0,0,1,3.63.32,4.07,4.07,0,0,0,3.83-1C569.51,428.15,569.2,426.33,568.88,424.75Z"/><path class="cls-10" d="M549.77,432.37a7.67,7.67,0,0,1-4-1.29,1.71,1.71,0,0,1-.83-1.58,1.86,1.86,0,0,1,.83-1.05,9.69,9.69,0,0,1,3.44-1.57,2,2,0,0,0,1,1.65,4.5,4.5,0,0,0,1.87.62,23.07,23.07,0,0,0,8.81-.75,61,61,0,0,1,8.71-1.81,3.46,3.46,0,0,1-1.71,3.77c-1.58.83-3.49.29-5.27.29-2.14,0-4.19.8-6.27,1.28A20.6,20.6,0,0,1,549.77,432.37Z"/><path class="cls-9" d="M559.23,409c0-1.62-.16-3.24-.3-4.86-.1-1.18-.23-2.35-.35-3.52h10.16a65.54,65.54,0,0,0-1,8.38Z"/><path class="cls-10" d="M570.81,404.85l-11.72.55a2.89,2.89,0,0,1-2.84-2.48c-2-14-5.15-23.09-2.71-35.73.87-4.48,5.45-8.36,9.94-9.19,11.87-2.18,29.8-3.85,30.92-17.09l17.5,3.28c.41,6.07.4,20.38-5.34,28.66l-37.5,2.63C569.5,387,569.75,392.57,570.81,404.85Z"/><path class="cls-16" d="M611.11,360.45c-15.44,2.33-32.09.58-47.17,5.9-3,2-7,5-6,9,1.21,10.29,1.69,20.21,2.54,30l10.33-.48c-1.06-12.28-1.31-17.86-1.75-29.37l37.5-2.63C608.94,369.42,610.32,364.94,611.11,360.45Z"/><path class="cls-13" d="M556.26,437.7c1.86-1.13,5.48-2.72,7.94-4,2.63-1.36,3.64-2.82,4-5.56.47-3.56-.58-9.94-.89-13.52-.11-1.17-.24-2.35-.36-3.52h10.17c-.31,8.38-1.42,16.17.14,24.1.31,1.58.62,3.41-.41,4.64-1.48,1.76-4.29,1.14-6.29,1.11a52.58,52.58,0,0,0-7.31.37c-2.24.27-4.57.79-6.81.2a2.24,2.24,0,0,1-1.75-1.46C554.5,439.07,555.4,438.23,556.26,437.7Z"/><path class="cls-14" d="M577.27,435.2c-1.56-7.93-.45-15.72-.14-24.1h-3.58c1.14,10.07,2.48,20.66.57,29.94a3.76,3.76,0,0,0,2.74-1.2C577.89,438.61,577.58,436.78,577.27,435.2Z"/><path class="cls-9" d="M567.25,419.62c0-1.62-.31-3.49-.46-5.1-.1-1.18.29-2.25.17-3.42l10.91.09a64.21,64.21,0,0,0-.73,8.43Z"/><path class="cls-10" d="M553.27,440.31c.62,1.28,3,2.23,4.45,2.38a16,16,0,0,0,4.24-.39,39.28,39.28,0,0,1,8.39-.45,21.5,21.5,0,0,0,4,0c1.33-.16,3.11-.52,4-1.54s0-3-.79-4.1c-3,2-6,2.57-9.61,2.84-2,.15-4,.35-6,.33-1.4,0-3.64.17-4-1.6-.14-.64.13-.92.54-1.36-.76-.36-1.94.88-3.34,1.55a5.46,5.46,0,0,0-1.76,1A1.18,1.18,0,0,0,553.27,440.31Z"/><path class="cls-10" d="M577,416h-9.26a3.26,3.26,0,0,1-3.23-2.83L561,386.87c-.5-3.76-1.31-8.54.51-11.85,1.21-2.2,2.54-4.42,4.6-5.84,8.57-5.94,20.72-7.51,27.44-14,3.32-3.22,3.52-7.38,4.85-12.92,6.36,1.34,15.58,3.12,20.69,7.25,2,40.11-23,24.61-39.19,32.33,0,10.58.36,21.06-.08,31.51A2.83,2.83,0,0,1,577,416Z"/><path class="cls-16" d="M597.36,344.86c-1.21-.53-2.68-1-3.79-.26-1.67,1.08-1.23,3.93-2.83,5.11a49.66,49.66,0,0,1,24.73,19.5c1.57-3.31,1-7.34-.79-10.54a26.22,26.22,0,0,0-7.5-7.92A49.94,49.94,0,0,0,597.36,344.86Z"/><path class="cls-16" d="M619.07,349.48a21.72,21.72,0,0,0-5.15-3c5.77,22.14-17.92,35.62-38,30.84,3,11,4,23-2,33-1.7,2.54-5.37,3.64-9.34,3.39a3.26,3.26,0,0,0,3.11,2.28H577a2.83,2.83,0,0,0,2.83-2.7c.44-10.45.06-20.93.08-31.51C596.1,374.09,621.08,389.59,619.07,349.48Z"/><path class="cls-5" d="M590.9,346.85c.59-.88.68-3.2,1.27-4.08,5.26.39,9.94,3.5,13.8,7.09s7.21,7.74,11.36,11a4.53,4.53,0,0,1,1.4,1.46c.68,1.39-.3,3-1.23,4.21-3-3.92-6.86-7.12-10.66-10.28A52.91,52.91,0,0,0,590.9,346.85Z"/><path class="cls-15" d="M596.38,326a22.13,22.13,0,0,1-2.67-7.87c-.34-4,1.31-7.79,3.52-11.28a13.89,13.89,0,0,1,13.84-14.08,58,58,0,0,1,11.46,1.11c3.56.71,7.27,1.89,9.58,4.69,1.76,2.15,2.44,5,2.87,7.7,2.07,13.44-12.2,27.13-14.85,56.28a1.1,1.1,0,0,1-1.73.8c-8.17-6-18.13-19-27.32-20C593.35,340.57,595.29,334,596.38,326Z"/><path class="cls-9" d="M635,306.27c-.43-2.74-1.11-5.55-2.87-7.7-2.31-2.8-6-4-9.58-4.69-1.46-.29-2.94-.51-4.43-.69-3.44,4.4-6.41,8.9-5.54,14.16.25,5.46.49,11,.42,16.43l-9.51-.61a17.88,17.88,0,0,1-4.32-.62,6.1,6.1,0,0,1-3.46-2.51c-.51-.85-1-2-1.94-2.09a20,20,0,0,0,4.52,9.47,1.22,1.22,0,0,0,.68.49c.75.11,1-1,1.69-1.37a1.53,1.53,0,0,1,1.62.34,10.38,10.38,0,0,0,1.36,1.12c1.2.63,2.67-.07,4,.05,2,.18,3.38,2.07,5,3.37-.64,7.63-2.24,15-5.74,21.64,4,3.7,8,7.66,11.51,10.29a1.1,1.1,0,0,0,1.73-.8C622.78,333.4,637.05,319.71,635,306.27Z"/><path class="cls-4" d="M604.6,295.1a5,5,0,0,0-.7,2.82c-.08,2.47.33,5.17,2.1,6.9a6.74,6.74,0,0,0,3.84,1.75,12,12,0,0,0,4.26-.28,20.39,20.39,0,0,0,9.89-5.45c1.09-1.09,2.11-2.58,1.68-4.06-.36-1.27-1.67-2-2.89-2.52-5.1-2.17-11.08-2.82-16.15-.6A4.78,4.78,0,0,0,604.6,295.1Z"/><path class="cls-12" d="M600.93,331.93a.76.76,0,1,0-.42,1.08A.8.8,0,0,0,600.93,331.93Z"/><path class="cls-12" d="M600.43,312.13a.78.78,0,0,0,0-1.27.79.79,0,0,0-1.11.64A.78.78,0,0,0,600.43,312.13Z"/><path class="cls-12" d="M608.88,317a.77.77,0,1,0,.54-1.27A.81.81,0,0,0,608.88,317Z"/><path class="cls-12" d="M603.82,342a.78.78,0,1,0,1,.76A.82.82,0,0,0,603.82,342Z"/><path class="cls-12" d="M616.87,340.76a2.2,2.2,0,0,0,.44-.77.75.75,0,0,0-.22-.81.7.7,0,0,0-1,.55A1.07,1.07,0,0,0,616.87,340.76Z"/><path class="cls-12" d="M615.81,351a.81.81,0,1,1-.81-.81A.81.81,0,0,1,615.81,351Z"/><circle class="cls-12" cx="610.44" cy="334.85" r="0.75"/><circle class="cls-12" cx="601.31" cy="320.73" r="0.75"/><path class="cls-12" d="M619.19,358.91a.69.69,0,0,1-1.38,0,.69.69,0,0,1,1.38,0Z"/><path class="cls-12" d="M607.69,350a.57.57,0,1,1-.56-.56A.56.56,0,0,1,607.69,350Z"/><path class="cls-12" d="M597.81,341.29a.94.94,0,1,1-.93-.94A.94.94,0,0,1,597.81,341.29Z"/><path class="cls-8" d="M618,262.17c-1.68-.55-2.83-2.53-4.59-2.45s-2.66,2-4.21,2.66-3.36.17-4.53,1.25-.73,3.3-1.18,5c-.4,1.52-1.63,2.65-2.62,3.87s-1.83,2.84-1.27,4.31c.33.89,1.15,1.65,1.06,2.59a5.23,5.23,0,0,1-.38,1.2,5.05,5.05,0,0,0,.34,3.17,7.75,7.75,0,0,1,0,3c0,1.09-1,2-.73,3.77,10.69,2,21.3,3.23,31.88.74-.78-.68-.76-2.5-.27-3.41.32-.59.93-1.17.72-1.81s-1-.67-1.5-1.13c-1.14-1.17-1.28-2.68-.75-3.15.85-.76.82-2.18.82-3.33,0-2.41-2.27-4.11-3.45-6.21-1-1.71-1.19-3.71-1.81-5.57s-1.83-3.76-3.74-4.19C620.62,262.18,619.26,262.58,618,262.17Z"/><path class="cls-14" d="M605.28,268.55a3.43,3.43,0,0,0-1,3.06c.21.69.8,1.25.86,2,.14,1.63-2.34,2.44-2.45,4.07-.06.9.62,1.65.94,2.48a5.16,5.16,0,0,1-.21,3.52,20.61,20.61,0,0,0-1.12,3.41,3.5,3.5,0,0,0,1,3.28,4.7,4.7,0,0,0,1.77.74,40.72,40.72,0,0,0,10.34,1.53,21.82,21.82,0,0,0,10.12-2.26.57.57,0,0,0,.24-.19c.17-.29-.23-.56-.5-.75a2.45,2.45,0,0,1-.83-2.34c.11-.86.46-1.67.64-2.53a2.88,2.88,0,0,0-.44-2.48c-.84-1-2.38-.79-3.52-1.36-1.38-.7-2-2.33-2.33-3.83s-.7-3.13-1.86-4.15-3.31-1.25-4.26-2.65c-.52-.77-.59-1.79-1.13-2.56a3.14,3.14,0,0,0-3.29-1A6,6,0,0,0,605.28,268.55Z"/><path class="cls-13" d="M609.87,293.05c1.65-3.78,1.94-7.4,2.33-11.51a20.63,20.63,0,0,0,8.2.62q.9,5.86,1.79,11.74a2.2,2.2,0,0,1,1.41,1.44,3.13,3.13,0,0,1-.71,2.36,15.47,15.47,0,0,1-6.51,5.94,8.58,8.58,0,0,1-8.49-.71c-2.36-1.82-3.23-5.54-1.46-7.94C607,294.26,609.06,293.45,609.87,293.05Z"/><path class="cls-14" d="M623.4,294.86c-1.95,6.07-8.2,9.84-14.46,7.49-.93,0-2.27-1.07-3.16-2.51a6.28,6.28,0,0,0,2.11,3.09,8.58,8.58,0,0,0,8.49.71,15.47,15.47,0,0,0,6.51-5.94,3.13,3.13,0,0,0,.71-2.36A1.68,1.68,0,0,0,623.4,294.86Z"/><path class="cls-14" d="M619.66,282.22a20.14,20.14,0,0,1-7.46-.68c-.39,4.11-.68,7.73-2.33,11.51-.81.4-2.91,1.21-3.44,1.94a5.07,5.07,0,0,0-.94,3,37.55,37.55,0,0,1,11.45-4.62C619.58,292.47,619.12,286.94,619.66,282.22Z"/><path class="cls-4" d="M611,289.73a50.62,50.62,0,0,0,1.2-8.19,20.07,20.07,0,0,0,7,.72C619,287.21,615.38,289,611,289.73Z"/><path class="cls-13" d="M605.9,274.14a2.53,2.53,0,0,0,.27-1.54,12.26,12.26,0,0,1,.66-4l.74-2a11.83,11.83,0,0,1,13.11,1.77,7.83,7.83,0,0,1,3,5c.21,2-.63,3.9-1.45,5.71a17,17,0,0,1-3.5,5.62,11.33,11.33,0,0,1-5.62,2.65,26.61,26.61,0,0,1-4.37.41,2.57,2.57,0,0,1-2.49-1.79,22.74,22.74,0,0,1-1.35-9.42A5.94,5.94,0,0,1,605.9,274.14Z"/><path class="cls-14" d="M623.68,273.34a7.83,7.83,0,0,0-3-5,12.3,12.3,0,0,0-9.92-2.85,4.52,4.52,0,0,1,1.18.84c2.57,1.72,2.2,6.37,5.19,8.29a3.09,3.09,0,0,1,1.48,2.8,10.49,10.49,0,0,0,1.25,6,23.23,23.23,0,0,0,2.37-4.36C623.05,277.24,623.89,275.32,623.68,273.34Z"/><path class="cls-8" d="M626.61,284.22c.23-1.83.83-3.62.74-5.47a7.41,7.41,0,0,0-1.27-3.82,6,6,0,0,0-.59-.74c0-.21,0-.41,0-.62a10.09,10.09,0,0,0-.68-4.85,8.73,8.73,0,0,0-4.47-3.94,16.76,16.76,0,0,0-8.32-1.37l-2.62,1.19c1.11-.28,4.43.72,5,1.71a14.72,14.72,0,0,1,.81,2.91,4.27,4.27,0,0,0,2.45,2.59c.86.34,1.92.45,2.42,1.23a3.28,3.28,0,0,1,0,2.57,9,9,0,0,0-.25,3.65,5.42,5.42,0,0,0,.62,1.8,3.14,3.14,0,0,0,1.29,1.87,6.77,6.77,0,0,1,2.25,2c.54,1,.29,2.39,1,3.32a3.85,3.85,0,0,0,3,1.12C626.6,288.13,626.37,286.05,626.61,284.22Z"/><path class="cls-11" d="M600.63,277.46c.26.29.61.52.71.89s-.2.9-.4,1.33a2.61,2.61,0,0,0,.62,2.94,3.85,3.85,0,0,1,.14-3c.26-.53.66-1.06.55-1.64-.14-.78-1.08-1.16-1.35-1.89a2.09,2.09,0,0,1,.33-1.75,5.78,5.78,0,0,0,.81-1.63,7.27,7.27,0,0,0-1.65,2.14A2.51,2.51,0,0,0,600.63,277.46Z"/><path class="cls-11" d="M602.57,284.08a10.26,10.26,0,0,0-1.29,3.21,3.51,3.51,0,0,0,1,3.18A11.05,11.05,0,0,1,602.57,284.08Z"/><path class="cls-11" d="M621.76,271.5a1.9,1.9,0,0,1,1.23,1.93,9.59,9.59,0,0,1-.58,2.39,3.09,3.09,0,0,0,.08,2.41,5.16,5.16,0,0,0,1.87,1.44c.68.42,1.34,1.12,1.19,1.91-.1.56-.6,1-.59,1.58a1.59,1.59,0,0,0,.65,1.07,4.51,4.51,0,0,1,.93.87,2,2,0,0,1,.23,1.41,6.25,6.25,0,0,1-.47,1.38,2.31,2.31,0,0,0,1-1.56,2.28,2.28,0,0,0-.53-1.75,4,4,0,0,1-.67-.81,1.93,1.93,0,0,1,.21-1.61,2.69,2.69,0,0,0,.41-1.59c-.13-.71-.83-1.14-1.47-1.46a2.85,2.85,0,0,1-1.6-1.36c-.29-.8.21-1.64.39-2.47A3.37,3.37,0,0,0,621.76,271.5Z"/><path class="cls-11" d="M629.27,280.47c.35-.65.91-1.29.82-2s-.77-1.21-1.43-1.53a3.63,3.63,0,0,1,.81.64,1.21,1.21,0,0,1,.33.95c-.07.49-.53.83-.87,1.19a3.43,3.43,0,0,0-.55,3.81c.32.64.85,1.17,1.13,1.83a3.7,3.7,0,0,1-.09,2.81,10.89,10.89,0,0,1-1.52,2.45,9.66,9.66,0,0,0,1.84-1.83,3.3,3.3,0,0,0,.65-2.45,14.1,14.1,0,0,0-1.29-2.69A3.8,3.8,0,0,1,629.27,280.47Z"/><path class="cls-11" d="M612.21,263a7.2,7.2,0,0,1,3.27,2.17,6.89,6.89,0,0,0-7.11-.37A3.63,3.63,0,0,1,612.21,263Z"/><path class="cls-11" d="M618.74,268a7.48,7.48,0,0,1-1.06-1.79,6.48,6.48,0,0,0-1.07-1.77,2.32,2.32,0,0,0-1.84-.81,2.91,2.91,0,0,1,1.41,1.42c.33.6.56,1.25.93,1.82A2.36,2.36,0,0,0,618.74,268Z"/><path class="cls-11" d="M618.58,265.22a2.17,2.17,0,0,0,1.49,1.72,2.07,2.07,0,0,0-.65-1.42C619,265.16,619.11,265.18,618.58,265.22Z"/><path class="cls-15" d="M635.36,345.66,625.67,347a121.31,121.31,0,0,0-1.35-25.68c-1-6.4-2.52-13.17-.13-19.2.92-2.31,2.7-4.58,5.17-4.83a5.63,5.63,0,0,1,4.49,1.89,12.45,12.45,0,0,1,2.48,4.35c3.08,8.26,2.43,14.58,1.63,23.37C637.42,332.8,637.51,339.84,635.36,345.66Z"/><path class="cls-9" d="M623.65,303.72c-1.58,5.6-.26,11.73.67,17.55A121.31,121.31,0,0,1,625.67,347l2.67-.35C629.84,332.38,627.62,317.43,623.65,303.72Z"/><circle class="cls-12" cx="627.81" cy="303.73" r="0.62"/><circle class="cls-12" cx="634.94" cy="308.85" r="1"/><path class="cls-12" d="M630.44,319.41a.82.82,0,1,1-.81-.81A.82.82,0,0,1,630.44,319.41Z"/><circle class="cls-12" cx="636.56" cy="319.73" r="0.75"/><path class="cls-12" d="M634.81,331.29a.69.69,0,1,1-.68-.69A.69.69,0,0,1,634.81,331.29Z"/><path class="cls-13" d="M623.64,316.48c-.37.54-1.26,1-1.45,1.58-.06.19.14.3.14.5a24.12,24.12,0,0,0,.15,3.06c-1.67,1.65-3.5,1.68-5.29,2.4L617,322.1a4.24,4.24,0,0,0-.56-1.34,7.11,7.11,0,0,0-.91-.91,4.45,4.45,0,0,1-1.1-2.62,25.14,25.14,0,0,1,0-2.88c0-2.82-.62-5.59-.88-8.39a1.94,1.94,0,0,1,.12-1.07c.31-.05.78.41.86.71a36.15,36.15,0,0,1,1.25,5.46c.39-.52.17-1.12.14-1.77a16,16,0,0,0-.3-2.17,14.1,14.1,0,0,1-.48-3.09c0-.26.27-.85.51-.93s.48.15.56.49c-.11-.48,0-.45,0-.75a.53.53,0,0,1,.57-.54,12.1,12.1,0,0,1,2.33,4.32,10.88,10.88,0,0,1,.22,3.66,7.14,7.14,0,0,0-.27-4.19,18.14,18.14,0,0,1-.72-1.85,2.28,2.28,0,0,1,.23-1.91c1.56,2.31,3.19,4.81,3.12,7.59a11,11,0,0,0,0,3.44,4.91,4.91,0,0,0,1.44-1.24c.3-.45.43-1,.69-1.48a1.57,1.57,0,0,1,1.22-.95.51.51,0,0,1,.38.13.59.59,0,0,1,0,.47c-.27,1.38-1.06,2.62-1.27,4A5.16,5.16,0,0,1,623.64,316.48Z"/><path class="cls-14" d="M615,319.19a3.09,3.09,0,0,0,.48.66,7.11,7.11,0,0,1,.91.91,4.24,4.24,0,0,1,.56,1.34l.21,1.92c1.79-.72,3.62-.75,5.29-2.4a24.12,24.12,0,0,1-.15-3.06c0-.19-.19-.31-.14-.49A14.12,14.12,0,0,1,615,319.19Z"/><path class="cls-13" d="M623.64,316.48a5.16,5.16,0,0,0,.48-2.19c.21-1.38,1-2.62,1.27-4a.59.59,0,0,0,0-.47.51.51,0,0,0-.38-.13,1.57,1.57,0,0,0-1.22.95c-.26.49-.39,1-.69,1.48a4.91,4.91,0,0,1-1.44,1.24,11,11,0,0,1,0-3.44c.07-2.78-1.56-5.28-3.12-7.59a2.28,2.28,0,0,0-.23,1.91,18.14,18.14,0,0,0,.72,1.85,7.14,7.14,0,0,1,.27,4.19,10.88,10.88,0,0,0-.22-3.66,12.1,12.1,0,0,0-2.33-4.32.53.53,0,0,0-.57.54c0,.3-.11.27,0,.75-.08-.34-.22-.62-.56-.49s-.51.67-.51.93a14.1,14.1,0,0,0,.48,3.09,16,16,0,0,1,.3,2.17c0,.65.25,1.25-.14,1.77a36.15,36.15,0,0,0-1.25-5.46c-.08-.3-.55-.76-.86-.71a1.94,1.94,0,0,0-.12,1.07c.26,2.8.89,5.57.88,8.39a25.14,25.14,0,0,0,0,2.88,5,5,0,0,0,.62,2,14.12,14.12,0,0,0,7.16-1.12h0C622.38,317.44,623.27,317,623.64,316.48Z"/><path class="cls-4" d="M618.06,310.81h-.5a14.41,14.41,0,0,0-1.92-7.39l.44-.25A15,15,0,0,1,618.06,310.81Z"/><path class="cls-15" d="M631.28,349.94a6.77,6.77,0,0,1-6.34-2.21,22.36,22.36,0,0,1-3.34-6.63c-1.89-6.58-3.68-13.42-5.58-20,2.46-.12,5.84-1.46,7.09-3.59a88.15,88.15,0,0,0,7.95,15.57c1.87,2.81,4.05,5.59,4.65,8.91S634.61,349.37,631.28,349.94Z"/><path class="cls-4" d="M633,340.48c0-4.4-2.12-8.54-4.18-12-.6-1-1.21-1.94-1.8-2.85a29.32,29.32,0,0,1-4-7.77l.47-.14a29.29,29.29,0,0,0,3.92,7.64c.59.91,1.2,1.85,1.81,2.87,2.09,3.53,4.24,7.74,4.25,12.26Z"/><circle class="cls-12" cx="627.06" cy="342.1" r="0.75"/><circle class="cls-12" cx="628.56" cy="333.6" r="0.62"/><path class="cls-12" d="M622.31,330a.56.56,0,1,1-.56-.56A.56.56,0,0,1,622.31,330Z"/><path class="cls-12" d="M623.56,324.16a.56.56,0,1,1-.56-.56A.56.56,0,0,1,623.56,324.16Z"/><path class="cls-4" d="M567.71,416.27a3.52,3.52,0,0,1-3.48-3l-3.6-27.06c-.49-3.6-1.1-8.09.64-11.26A16.52,16.52,0,0,1,566,369c3.87-2.68,8.49-4.49,12.95-6.23,5.55-2.17,10.79-4.22,14.46-7.77l.35.36c-3.74,3.62-9,5.69-14.63,7.88-4.43,1.73-9,3.52-12.85,6.17a16.06,16.06,0,0,0-4.52,5.76c-1.66,3-1.06,7.42-.58,10.95l.1.74,3.49,26.32a3,3,0,0,0,3,2.62Z"/><path class="cls-13" d="M326.34,240.13a9.58,9.58,0,0,1-1.84,7.32,12.84,12.84,0,0,1-9.49,9.88,12.28,12.28,0,0,1-7-11.68,12.11,12.11,0,0,1,8.25-10.79c2.5-.75,5.48-.45,7.29,1.51Z"/><path class="cls-14" d="M319.12,234.49a8.86,8.86,0,0,0-2.9.37A12.11,12.11,0,0,0,308,245.65a12.28,12.28,0,0,0,7,11.68,9.25,9.25,0,0,0,1.3-.37C314.73,249.2,314.58,240.75,319.12,234.49Z"/><path class="cls-13" d="M298,260.52c-.49-.55,0-1.39.41-2a35.34,35.34,0,0,0,7-15.9,45.74,45.74,0,0,0,11.09,2.76A129.22,129.22,0,0,0,313.14,265l-14.32-4.1A1.53,1.53,0,0,1,298,260.52Z"/><path class="cls-5" d="M329.45,239.58a6.22,6.22,0,0,0,4.2-4.79,6.73,6.73,0,0,1-4.7.63,1.56,1.56,0,0,0,1.21-.53,9.81,9.81,0,0,1-5.09-2.19c-1.5-1.12-2.87-2.43-4.45-3.43a7.84,7.84,0,0,0-5.31-1.41c-.22,0-.44.11-.66.17a8.67,8.67,0,0,0-3.21.19c-3.58.92-6.12,4.34-6.92,7.94s-1.21,7.85-.24,11.41c3.64,1.73,9,1.6,12.84.45a14.13,14.13,0,0,0,1.58-.57,13.48,13.48,0,0,0,.44-2.19,4.39,4.39,0,0,1,1-2.38,1.89,1.89,0,0,1,2.36-.42,1.92,1.92,0,0,1,.72,1.49,3.33,3.33,0,0,1-.05.77,16.9,16.9,0,0,0,2.1-2.13,7.45,7.45,0,0,0,6.74-3.28A7,7,0,0,1,329.45,239.58Z"/><path class="cls-14" d="M321.56,245.38a3.1,3.1,0,0,1,.51-.44,1.25,1.25,0,0,0,.37-1.34,1,1,0,0,0-1.21-.57,1.26,1.26,0,0,0-.69,1.17,4.32,4.32,0,0,0,.31,1.49.57.57,0,0,0-.7,0,.59.59,0,0,0-.18.68,2.12,2.12,0,0,0,.32.42.55.55,0,0,1,.13.5c0,.1-.13.17-.18.27s0,.25.07.27a.21.21,0,0,0,.18-.06,2.18,2.18,0,0,0,.86-1.45A2.11,2.11,0,0,1,321.56,245.38Z"/><path class="cls-10" d="M319.78,233c.43.25.38.92.7,1.31s1.08.33,1.66.33A4.31,4.31,0,0,1,325,236a12.35,12.35,0,0,1,1.91,2.57l1.13-1.78-11.48-6.68.57,2.82a1.12,1.12,0,0,0,.19.49c.3.33.85.15,1.23-.08S319.39,232.81,319.78,233Z"/><path class="cls-4" d="M276.28,437.79a9,9,0,0,0-3.34-.78,6.64,6.64,0,0,1-2.76-.92,2.48,2.48,0,0,1-1.33-2.53,16.55,16.55,0,0,1-6.91-2.33c0,1.9-1.23,3.6-1.75,5.43a4.34,4.34,0,0,0-.09,1.5,7.27,7.27,0,0,0,.24,3.73,11.61,11.61,0,0,0,7.23,1.42,6.26,6.26,0,0,1,.29-1.19,8.25,8.25,0,0,1,3.52-.3,10,10,0,0,0,2.62.38,5.7,5.7,0,0,0,1.78-.72,3.21,3.21,0,0,0,1.66-1.78C277.68,438.7,277.17,438.3,276.28,437.79Z"/><path class="cls-12" d="M268.37,435.25a29,29,0,0,0-6-2.3,5.2,5.2,0,0,0-.66,1.31,1.7,1.7,0,0,0,.18,1.41,2.13,2.13,0,0,0,1.21.7A6.11,6.11,0,0,0,268.37,435.25Z"/><path class="cls-10" d="M265,411.82c-.95,2.44-2.26,11.21-3.54,14.35-1,2.44-2,3.73-.49,5.9s6.12,4.54,8.51,3.46c6.67-17.24,14.57-34,20.79-51.41s10.76-35.68,10.38-54.16l-30-9.51c-9.38,22.41-3.19,29.08-2.3,45.48S271,396.52,265,411.82Z"/><path class="cls-16" d="M300.68,330l-22-7c-10,22.34-.82,47.28-2.74,70.37a156.27,156.27,0,0,1-10,42.06,5.17,5.17,0,0,0,3.58.12c6.67-17.24,14.57-34,20.79-51.41S301.06,348.44,300.68,330Z"/><path class="cls-4" d="M278,322.75,300.68,330c.38,18.48-4.16,36.75-10.38,54.16-4.06,11.36-8.83,22.45-13.51,33.57.77-4.1,1.16-8.27,1.81-12.17C284.62,377,263.35,349.82,278,322.75Z"/><path class="cls-4" d="M307.14,448.14a3.63,3.63,0,0,0-2.89-1.91,21.88,21.88,0,0,0-3.62,0c-4.76,0-9.41-2.42-14.11-1.68a51.47,51.47,0,0,0-.09,6.08,8.63,8.63,0,0,0,.2,1.11,22.81,22.81,0,0,0,.39,3.07,3.52,3.52,0,0,0,.51,1.53,3.06,3.06,0,0,0,1.76,1,9.32,9.32,0,0,0,7.61-1.29,1.84,1.84,0,0,0,.67-.66,1.59,1.59,0,0,0,.15-.65,18.76,18.76,0,0,1,2.17-.79,16.77,16.77,0,0,0,4-1.5C305.48,451.64,307.85,449.78,307.14,448.14Z"/><path class="cls-12" d="M298,447.33a.75.75,0,0,1,.92.58,1.18,1.18,0,0,1-.41,1.09,2.74,2.74,0,0,1-1.09.55,17,17,0,0,1-5.33.61,8.71,8.71,0,0,1-3.17-.46,3.45,3.45,0,0,1-2.16-2.23,2.17,2.17,0,0,1,1.33-2.59Z"/><path class="cls-10" d="M272.5,324.57l.6-6.75c9.27,4.25,19.91,8.83,30,10.37,0,22.05,2.13,40.85,1.47,61.08-.61,18.8-3.89,39.05-6.62,58.81-4.49,1.1-7.64,1.39-11.74-1.57-.22-16.7-1.21-29.68-.22-37.05s-2.53-25.48-4.72-32.65C274.41,354.4,267.85,351,272.5,324.57Z"/><path class="cls-16" d="M292.94,386.35c-1.84-20.2-11.26-42.1-5.81-62.58-4.85-1.81-9.6-3.92-14-5.95l-.6,6.75c-4.65,26.42,1.91,29.83,8.76,52.24,2.19,7.17,5.69,25.31,4.72,32.65s0,20.35.22,37.05a11.29,11.29,0,0,0,5.38,2.27C293.27,428.05,294.55,407.35,292.94,386.35Z"/><path class="cls-17" d="M295.6,447.52c7.47-37.23,4.89-76.11,1.42-112.58l.76-.11c2.81,37.08,5.69,75.35-1.63,112.49C295.88,447.38,295.88,447.46,295.6,447.52Z"/><path class="cls-4" d="M291.27,258.59c-3.42-.61-6.79,2-8.09,5.24s-.95,6.87-.3,10.28a70.37,70.37,0,0,0,11.41,26.39,40.85,40.85,0,0,0,7.53,8.58c7.45,6.1,17.5,7.72,27,9.12l2.81-6.15A59.49,59.49,0,0,1,306.6,286.1c-3.76-7.63-5.82-16-7.86-24.24Z"/><polygon class="cls-4" points="343.45 328.18 324.29 328.18 332.13 296.21 351.29 296.21 343.45 328.18"/><polygon class="cls-1" points="342.56 323.18 326.4 323.18 333.02 296.21 349.18 296.21 342.56 323.18"/><path class="cls-3" d="M333,296.21l-6.11,24.88C332.1,315,338,310.46,345.72,310.3l3.46-14.09Z"/><path class="cls-5" d="M292.66,258.17a12.73,12.73,0,0,0,4.94-5.68,23.2,23.2,0,0,1,18.8,12.08l-9.61-3.64c-4-1.53-8.19-3.08-12.5-3Z"/><path class="cls-5" d="M306.7,342.15c.28-3.17-1-10.12-.48-20.77.25-8.58.65-5.36.84-8,.47-6.48,2.57-8.64,5.78-14.28,2.44-4.31,6.18-11.58,8.73-15.82s3.87-9.81,1.32-14c-1.57-2.62-4.33-4.26-7.05-5.66a88.76,88.76,0,0,0-12.45-5.22c-4.79-1.6-10.43-2.66-14.57.22A31.31,31.31,0,0,0,281,267c-9.48,15.81-8.21,21.57-13.11,48.9-.4,2.25-7.73,17.78-8.84,22.72a62.92,62.92,0,0,0,7.28,2.34,84,84,0,0,1,5.37-18.72c0,7.4-2.1,12.53-1.67,19.56C281.8,344.18,294.28,343.65,306.7,342.15Z"/><path class="cls-18" d="M294.93,258.68a63,63,0,0,1,15.78,3.22,28.83,28.83,0,0,0-15.18-4.83,2.23,2.23,0,0,0-1.2.2.79.79,0,0,0-.32,1.06A1.21,1.21,0,0,0,294.93,258.68Z"/><path class="cls-16" d="M292.15,257.72A13.77,13.77,0,0,0,284.4,264Z"/><path class="cls-16" d="M317.88,267.76l-4.29,5.9A9.19,9.19,0,0,1,317.88,267.76Z"/><path class="cls-18" d="M300.29,342.82q3.21-.29,6.41-.67c.28-3.17-1-10.12-.48-20.77.25-8.58.65-5.36.84-8,.47-6.48,2.57-8.64,5.78-14.28,2.44-4.31,6.18-11.58,8.73-15.82,2.36-3.94,3.66-9,1.8-13.12C297.31,284,297.61,314.65,300.29,342.82Z"/><path class="cls-13" d="M334.84,271.38a20.88,20.88,0,0,1,4.76-1.91,10.78,10.78,0,0,1-1.08-5.36c.06-1.06.22-2.27-.52-3a3.26,3.26,0,0,0-1.6-.72l-4-1c-1.32-.33-1.71.08-2.42-1.07-.28-.46-1.48-1.83-1.82-2.24s-1.24-2.2-2.12-1.39c-.4.38.51,2.15.73,2.65l1.66,3.85c.44,1,.72,1.72-.11,2.47-.29.27-1,.28-1.31.5s-.22,1.39-.09,1.76a1.16,1.16,0,0,0,.5.53Z"/><path class="cls-15" d="M341,269.66l-1.56-2.91a8.86,8.86,0,0,0-6.18,2.3,1.23,1.23,0,0,0-.52.91,1.3,1.3,0,0,0,.19.53l2,3.9a11.27,11.27,0,0,1,6.46-3.64Z"/><path class="cls-5" d="M349.29,308.64a6.39,6.39,0,0,0,3.55-4.11c1.14-3.34.66-7-.45-10.37s-2.8-6.45-4.17-9.7c-1.86-4.42-3.11-9.1-5.27-13.38a4.64,4.64,0,0,0-1.92-2.35c-1.19-.53-2.65.09-4.12.28-1,.13-1.93,1.18-2.94,1.64a1.51,1.51,0,0,0-.83,1.76,148.08,148.08,0,0,1,3.62,18.77c.4,3.41.71,6.89,1.94,10.1s3.59,6.19,6.86,7.26A5.82,5.82,0,0,0,349.29,308.64Z"/><path class="cls-18" d="M334,270.65a1.51,1.51,0,0,0-.83,1.76,148.08,148.08,0,0,1,3.62,18.77c.4,3.41.71,6.89,1.94,10.1s3.59,6.19,6.86,7.26l.18,0c-.84-13.51-4.58-26.86-9.89-39.16A18.25,18.25,0,0,1,334,270.65Z"/><path class="cls-5" d="M312.39,279.9a17.59,17.59,0,0,1,7.12-11.51,3.77,3.77,0,0,1,2.68-.9,4.09,4.09,0,0,1,2,1.23c7.18,6.89,12.57,15.47,19.78,22.33a52.29,52.29,0,0,1,5.73,5.8,10.94,10.94,0,0,1,2.53,7.57c-.28,2.7-2.32,5.32-5,5.65-2.08.25-4.08-.82-5.8-2a104.14,104.14,0,0,1-8.57-7.16,100.81,100.81,0,0,0-14.72-10.57,13.88,13.88,0,0,1-4.45-3.45A9.47,9.47,0,0,1,312.39,279.9Z"/><path class="cls-16" d="M345.74,292.56a13.11,13.11,0,0,1,4.47,10.11,8.28,8.28,0,0,0-4.47-10.11Z"/><path class="cls-18" d="M344.94,307.35c-8.4-12.6-23.15-17.44-32.4-28.15-.05.23-.11.46-.15.7a9.47,9.47,0,0,0,1.24,7,13.88,13.88,0,0,0,4.45,3.45A100.81,100.81,0,0,1,332.8,300.9a104.14,104.14,0,0,0,8.57,7.16,9.43,9.43,0,0,0,5.23,2C346,309.21,345.48,308.3,344.94,307.35Z"/><path class="cls-18" d="M272.27,318.36a116,116,0,0,1,14.82-51.9A103.84,103.84,0,0,0,272.27,318.36Z"/><path class="cls-4" d="M466.37,434.9c-1.37,3,.7,5.6.71,8.28,2.93.16,5.17.07,8.1.23V441.5a27,27,0,0,0,17.56,1.34,3.46,3.46,0,0,0-2.19-3.32,13.88,13.88,0,0,0-4.11-.8,14.1,14.1,0,0,1-6-2,8.41,8.41,0,0,1-3.69-5.13l-8,.78a2.71,2.71,0,0,0-1.92.72C466.38,433.54,466.64,434.31,466.37,434.9Z"/><path class="cls-1" d="M469.34,436.23a16.36,16.36,0,0,0,6.53.49,1.12,1.12,0,0,0,.89-.44,1.22,1.22,0,0,0,0-.78l-.52-2.69a65.47,65.47,0,0,0-9,2A3,3,0,0,0,469.34,436.23Z"/><path class="cls-5" d="M436,298.18c-.19,9.58,2.29,18.8,4.12,27.51,7.86,37.52,16.29,72.92,25,111,3.18-1.1,9.79-2.26,13-3.36a1165.79,1165.79,0,0,0-15.61-135.11Z"/><path class="cls-18" d="M436,298.18c-.19,9.58,2.29,18.8,4.12,27.51,7.86,37.52,16.29,72.92,25,111,1.69-.58,4.34-1.19,6.93-1.78-7-46.82-20-91.77-35.13-136.69Z"/><path class="cls-9" d="M467.77,435.69c-1.4-6.84-2.71-12.69-4-19.14-6.33-31.26-11.55-58.11-19.48-90.53l.35-.29c7.93,32.43,13.4,59.43,19.73,90.7,1.31,6.45,2.36,12.25,3.75,19.09Z"/><path class="cls-4" d="M425.93,449c1-.67,1-2.11,1-3.32-.1-1.68-.19-3.36-.29-5a2.49,2.49,0,0,0-.42-1.5,2.35,2.35,0,0,0-1.89-.55l-9.74.06q-2.58,6.52-5.14,13c-.34.86-.65,1.93-.06,2.64a5.36,5.36,0,0,0,2.73,1.16,50.37,50.37,0,0,0,5.63.08c1,0,4.32-1.44,4.84-2.27.76-1.2-.16-2.2.8-3.24C424,449.32,425.15,449.48,425.93,449Z"/><path class="cls-1" d="M416.67,443.32l2.6.18a11,11,0,0,0,3.67-.15,3.81,3.81,0,0,0,2.71-2.32,20.71,20.71,0,0,0-9-1.13,3.93,3.93,0,0,0-1.69.44,1.45,1.45,0,0,0,.16,2.68A4.67,4.67,0,0,0,416.67,443.32Z"/><path class="cls-5" d="M419.72,298.18l-.34,3.34c-3,28.27-5.58,46.82-5.75,70.13s.84,46.72-1.74,69.86a55,55,0,0,1,16.14.72c3.73-44,11.66-81.82,18.58-122.41,1-6,.51-13.83-.27-21.64Z"/><path class="cls-18" d="M425.44,335.35c6.31-17.14,14.5-1.75,19.88-37.17h-25.6l-.34,3.34c-3,28.27-5.58,46.82-5.75,70.13s.84,46.72-1.74,69.86c1.39-.15,2.77-.23,4.17-.27C415.8,410.36,414.58,364.31,425.44,335.35Z"/><path class="cls-9" d="M425.35,441.1l-.4-.19c3.23-40.18,10.13-76,19.49-117.53l.41.22C435.5,365.06,428.59,401,425.35,441.1Z"/><path class="cls-1" d="M439.44,307.26c0-.9,0-1.94-.05-2.9q-8.64.33-17.27,1.16l-1.5,4.85a175.73,175.73,0,0,1,18.87-2C439.47,308,439.45,307.63,439.44,307.26Z"/><path class="cls-1" d="M440.6,304.31c.07,1,0,2,0,2.95,0,.35,0,.69.05,1l1.9-.08c0-1.33,0-2.66,0-4Z"/><path class="cls-1" d="M455.36,308.24q3.67.13,7.34.42c-.25-1.46-.5-2.92-.76-4.37-2.21-.08-4.43-.12-6.65-.15C455.32,305.51,455.31,306.88,455.36,308.24Z"/><path class="cls-1" d="M454.15,308.2c0-1.35,0-2.71-.07-4.07h-2.32a16.42,16.42,0,0,1,.29,4Z"/><path class="cls-8" d="M450.54,304.12c-2.23,0-4.47,0-6.7.09,0,1.32,0,2.65,0,4,2.37-.07,4.74-.07,7.12,0A13.41,13.41,0,0,0,450.54,304.12Z"/><path class="cls-5" d="M435.92,241.9a1.88,1.88,0,0,1,0,1.1q-.67,3-1.33,5.91c-3.45-2.59-3.57-7.89-6.56-11l6.85,3.14A1.82,1.82,0,0,1,435.92,241.9Z"/><path class="cls-12" d="M453.46,236.39c-12.14-4.92-23.39-5.38-36.54-4-3.28.35-6.84,1.05-8.9,3.46-2.39,2.8-1.89,6.82-1.16,10.33,4.13,19.64,12.07,38.91,11.34,58.91a208.35,208.35,0,0,1,45.13-2c-3.56-16.56-4.22-31.58-1.24-48.23.7-3.88.2-9.33-2.35-12.46C458.35,240.73,455.55,237.24,453.46,236.39Z"/><path class="cls-13" d="M437.75,219.65A46.22,46.22,0,0,1,424,220c1.08,5.43,1.69,7.8-.19,13,24.14,6.28,17.47,4.91,17.92,3.38C438.41,231.52,438.39,225.49,437.75,219.65Z"/><path class="cls-14" d="M441.74,236.37c-3.33-4.85-3.35-10.88-4-16.72a50.24,50.24,0,0,1-12.23.54,112.07,112.07,0,0,0,3.64,14.2C446.89,239,441.32,237.77,441.74,236.37Z"/><path class="cls-5" d="M439.56,231.81c-1.21-3.83-1.36-8-1.81-12.16a50.33,50.33,0,0,1-11.95.56C426.41,227.53,432.76,231.25,439.56,231.81Z"/><path class="cls-13" d="M434,203.55a9.63,9.63,0,0,0-6.59-.36c-2.41.68-5.41,1.45-7,3.62s-1.5,5-.66,7.49a17.52,17.52,0,0,0,9.39,10.53A17.78,17.78,0,0,0,440.67,226a2.33,2.33,0,0,0,1.91-2.49c-.26-2.87-.39-5.61-1.39-8.21-.33-.88-1.2-1.53-1.46-2.36s.12-1.69-.21-2.6C438.38,207.23,436.9,204.83,434,203.55Z"/><path class="cls-14" d="M431.93,225.82a18.24,18.24,0,0,0,8.74.13,2.33,2.33,0,0,0,1.91-2.49l-.12-1.34A12,12,0,0,1,431.93,225.82Z"/><path class="cls-14" d="M426.94,210.35a21.52,21.52,0,0,0,7.62-1.25,5.43,5.43,0,0,0,3.59-1.75,9,9,0,0,0-4.17-3.82c-2.64-1.17-5.72-.65-8.48.21a9.84,9.84,0,0,0-5.12,3.07c-1.57,2.08-1.5,5-.66,7.49a17.9,17.9,0,0,0,7.22,9.35C427,219.21,424.44,214.64,426.94,210.35Z"/><path class="cls-5" d="M440.2,197.16a6.33,6.33,0,0,1-2.94,2.93,3.25,3.25,0,0,0,.82-2,8.24,8.24,0,0,1-5.35,2.91c-2.05.36-4.16.3-6.22.57A9.31,9.31,0,0,0,420.9,204c-1.58,1.68-3.86,4-3.11,6.53a5.19,5.19,0,0,0-1,4.11A7.65,7.65,0,0,0,420.2,219a22,22,0,0,1,4.48,3.45,14.71,14.71,0,0,0,.6-4.09c.55.43,1.08.9,1.6,1.38a.72.72,0,0,0,.76-.67,6.12,6.12,0,0,0-.58-2c-.51-.87-.92-.66-1.42-1.54a6.51,6.51,0,0,1-.37-.8,17.39,17.39,0,0,1,.57-5.13l.52-.06c2.76-.27,5.6-.32,8.18-1.32s4.91-3.28,5-6l-1.34,1.18A11.54,11.54,0,0,0,440.2,197.16Z"/><path class="cls-13" d="M427.84,219.47c-.07-.62-3.11-2.44-3.7-2.25a1.66,1.66,0,0,0-1,1.42,3.54,3.54,0,0,0,.37,1.8,8.34,8.34,0,0,0,1.37,2.13,3.29,3.29,0,0,0,1.55,1.09,1.52,1.52,0,0,0,1.68-.59Z"/><path class="cls-5" d="M462.09,254.89c.7-3.88.2-9.33-2.35-12.46-1.39-1.7-4.19-5.19-6.28-6a64.37,64.37,0,0,0-6.59-2.27c8.12,21.94,6.25,45.48,7.13,68.6q4.67.11,9.33.4C459.77,286.56,459.11,271.54,462.09,254.89Z"/><path class="cls-5" d="M448.34,303a.23.23,0,0,1-.2-.11.24.24,0,0,1,.09-.32l3.59-2a1.4,1.4,0,0,0-1.14-.5.23.23,0,1,1-.05-.45,2.37,2.37,0,0,0,1.69-2.17,7.73,7.73,0,0,0-.49-2.82l-.09-.29c-1.71-5.75-1.86-11.81-2-17.67-.11-4.21-.62-9-1.11-13.69s-1-9.51-1.11-13.73a.22.22,0,0,1,.22-.24h0a.24.24,0,0,1,.23.23c.1,4.2.61,9,1.11,13.69s1,9.5,1.11,13.72c.15,5.84.3,11.87,2,17.55l.09.3a7.81,7.81,0,0,1,.51,3,3.08,3.08,0,0,1-1.28,2.27,1.86,1.86,0,0,1,.86.78.23.23,0,0,1-.09.31L448.46,303A.27.27,0,0,1,448.34,303Z"/><path class="cls-5" d="M446.55,241.61c-.69,1.06-.61,3.32-1.73,3.9,2.54,14.67,2.81,27,.26,41.71,2.88,2.27,5.12,3.32,7.05,4.7.23-3.87,1.62-4.17,1.6-6.07,0-1.74-.53-4.13-1-8C451.3,266,450.08,253.08,446.55,241.61Z"/><path class="cls-9" d="M420.79,230.26c-.55,0-1.21,1.77-1.77,1.82-1.09.1-1,.24-2.1.36-3.28.37-6.84,1.13-8.9,3.71-2.39,3-1.57,7.25-1.16,11.06,2.89,26.55,15.21,36.92,8.9,77.5,5-.82,11.53-2.27,17.43-3.17a7.26,7.26,0,0,0,6.18-7.6c-1.09-19.41-1.78-46.74-4.17-64.26C434.13,241.63,427.55,234.31,420.79,230.26Z"/><path class="cls-3" d="M419.5,306.41a17.94,17.94,0,0,0,12.94-8.93A128.1,128.1,0,0,1,419.5,306.41Z"/><path class="cls-5" d="M406.51,244c.1,1.07.24,2.14.35,3.17a104.52,104.52,0,0,0,2.85,15.16c5.33,12.34,16,21.62,28.48,27.06-.37-7.8-.79-15.74-1.34-23.12C423.82,262.11,411.93,255.89,406.51,244Z"/><path class="cls-5" d="M437.63,319.18a.22.22,0,0,1-.23-.22A251.1,251.1,0,0,0,428,260.7a.28.28,0,0,1,0-.18.21.21,0,0,1,.15-.11,13,13,0,0,0,4.53-1.77l-4.3-.55a.27.27,0,0,1-.16-.1.28.28,0,0,1,0-.18,25.52,25.52,0,0,0-9.61-25.49.24.24,0,0,1,0-.33.23.23,0,0,1,.32-.05,26,26,0,0,1,9.84,25.72l4.66.6a.22.22,0,0,1,.19.18.21.21,0,0,1-.09.24,13.46,13.46,0,0,1-5,2.14,252.07,252.07,0,0,1,9.35,58.12.23.23,0,0,1-.22.24Z"/><path class="cls-5" d="M416,324.37a.24.24,0,0,1-.11-.44c2.95-1.57,6.36-1.88,9.65-2.18l1.49-.15c3.59-.36,7.62-1.09,10.31-3.78a.23.23,0,0,1,.33.33c-2.79,2.79-6.92,3.54-10.6,3.91l-1.49.15c-3.25.3-6.61.61-9.47,2.13A.2.2,0,0,1,416,324.37Z"/><path class="cls-5" d="M419.63,305.64a.23.23,0,0,1-.12-.42c4.33-2.67,8.62-5.53,12.75-8.5a.23.23,0,0,1,.32,0,.24.24,0,0,1-.05.33c-4.14,3-8.44,5.83-12.78,8.51Z"/><path class="cls-15" d="M455.14,237.38c6.5,5.54,6.15,10,9.5,17.8,2.19,5.13,4.59,12.46,5.26,18,.57,4.68-.57,10.53-1.42,15.16-1.84,10.07-1.82,18.89-4.65,28.72-2.77-3.34-5.71-5.57-6.09-9.89a20.48,20.48,0,0,1,.43-5.23c1.06-6,2.47-12,2-18.08s-2.61-11.72-4.06-17.57c-2.1-8.47-2.62-17.24-3.13-26Z"/><path class="cls-5" d="M453.68,250.07a103,103,0,0,0,2.47,16.22c1.45,5.85,3.64,11.56,4.06,17.57s-1,12.09-2,18.08a20.48,20.48,0,0,0-.43,5.23c.38,4.32,3.32,6.55,6.09,9.89.2-.7.38-1.39.56-2.07C464.85,292.31,465.72,269.69,453.68,250.07Z"/><path class="cls-15" d="M444.8,270.57c.82-4.95-.83-6.31-3.89-10.28s-5.91-3.71-9.93-6.71c-5.1-3.81-10.22-13.07-15.32-16.87a10.7,10.7,0,0,0-4-2.17c-2.92-.65-5.95,1.35-7.27,4s-1.22,5.86-.62,8.79c1.38,6.73,5.25,12.77,10.12,17.62s10.72,8.59,16.71,12c3.35,1.88,7.35,3.7,10.88,2.19C444.22,278,444.32,273.48,444.8,270.57Z"/><path class="cls-3" d="M406,249.51a14.44,14.44,0,0,1,4.2-13c-1.06-.58-2.36.19-3.18,1.08a9.72,9.72,0,0,0-1,11.89Z"/><path class="cls-3" d="M413.27,239.1a1,1,0,0,0-.67-1.39,1,1,0,0,0-1.09.84.94.94,0,0,0,1.76.55Z"/><path class="cls-5" d="M430.09,253.89A16.36,16.36,0,0,0,434.64,275a26.45,26.45,0,0,1-.28-18.75Z"/><path class="cls-13" d="M440.07,224.13a9.2,9.2,0,0,1,2.86-.68,11.21,11.21,0,0,1,4,0c1.4.32,2.34,1.22,3.58,1.65a1,1,0,0,1,.64,1.25c-.19.58-.37,1.12-.6,1.79-.13.38,0,1.09-.35,1.2a.88.88,0,0,1-1-.61,2.6,2.6,0,0,1,0-1.27,10.75,10.75,0,0,1-3.24,2.22,11.48,11.48,0,0,0-.06,4.05c-2.14-.2-4.26-.51-6.37-.91a1.83,1.83,0,0,1-1.35-.71,1.75,1.75,0,0,1-.16-.88c0-1.61.43-2.94.41-4.55C438.81,225.69,439.11,224.59,440.07,224.13Z"/><path class="cls-14" d="M438.18,228.8a15.53,15.53,0,0,0-.22,2.41,1.75,1.75,0,0,0,.16.88,1.83,1.83,0,0,0,1.35.71c2.11.4,4.23.71,6.37.91a11.33,11.33,0,0,1-.11-2.79A35.59,35.59,0,0,1,438.18,228.8Z"/><path class="cls-15" d="M440.43,280.17a6.61,6.61,0,0,0,4.31-4.27,19.71,19.71,0,0,0,.88-6.22c.39-11.8,1.33-25.31,1.72-37.11-2.58-.81-8.65-1.13-11.24-1.94-1.36,13.18-6.18,26.88-4.36,40.06a14.38,14.38,0,0,0,2.37,6.8A6.4,6.4,0,0,0,440.43,280.17Z"/><path class="cls-3" d="M436,238.5a143.48,143.48,0,0,0-4,18.16,48,48,0,0,0,.8,18.47A134.64,134.64,0,0,1,436,238.5Z"/><path class="cls-5" d="M447.08,236.45a33.08,33.08,0,0,1-11.36-2,.22.22,0,0,1-.14-.29.23.23,0,0,1,.29-.14,32.77,32.77,0,0,0,11.21,2,1,1,0,0,1,.17,0,.23.23,0,1,1,0,.46Z"/><path class="cls-9" d="M463.06,320c1,.16,2.07.31,3.05.38-3.55-17.74-7-46-4-63.8.7-4.16.84-10.21-1.7-13.56-1.39-1.82-4.43-5.77-6.53-6.68a75.29,75.29,0,0,0-7.15-2.42c1.79,2.78,4,6.3,4.39,9.31,3.49,19.21,3.47,49.42,5.84,70.37A7.31,7.31,0,0,0,463.06,320Z"/><path class="cls-5" d="M459.62,317.76a.23.23,0,0,1-.23-.21c-1.46-14.79-2.17-40-.91-54.22l-3.18.52a.22.22,0,0,1-.25-.14.24.24,0,0,1,.09-.28l3.9-2.73a86.23,86.23,0,0,0-9.66-25.31.22.22,0,0,1,.08-.31.23.23,0,0,1,.32.08,86.8,86.8,0,0,1,9.74,25.6.23.23,0,0,1-.09.23l-3.2,2.24,2.47-.4a.22.22,0,0,1,.19.06.24.24,0,0,1,.08.19c-1.3,14.13-.59,39.55.88,54.42a.23.23,0,0,1-.21.25Z"/><path class="cls-5" d="M465.25,319.54a10.61,10.61,0,0,1-6.19-2,.23.23,0,0,1-.05-.32.22.22,0,0,1,.32,0,10.13,10.13,0,0,0,6.34,1.91.22.22,0,0,1,.24.22.23.23,0,0,1-.22.24Z"/><path class="cls-5" d="M462.46,301.77a.24.24,0,0,1-.15-.06l-2.09-1.7a.23.23,0,1,1,.3-.36l2.09,1.71a.23.23,0,0,1,0,.32A.23.23,0,0,1,462.46,301.77Z"/><path class="cls-14" d="M424,218.42a4.42,4.42,0,0,1,2,1.18.56.56,0,0,1,.17.26c0,.21-.15.37-.25.56a.71.71,0,0,0,.38,1c.19.07.47.12.46.32s-.11.19-.19.27a.91.91,0,0,0-.23,1,3.64,3.64,0,0,1-1.13-1,1.26,1.26,0,0,1-.08-1.4c0-.05.09-.13.05-.18a.15.15,0,0,0-.13,0,1.38,1.38,0,0,1-1-.69A1.35,1.35,0,0,1,424,218.42Z"/></g></svg>